<svg width="57" height="42" viewBox="0 0 57 42" fill="none" xmlns="http://www.w3.org/2000/svg">
<mask id="mask0" mask-type="alpha" maskUnits="userSpaceOnUse" x="14" y="0" width="43" height="42">
<path fill-rule="evenodd" clip-rule="evenodd" d="M14.5824 0.000244141H56.3825V41.3658H14.5824V0.000244141Z" fill="white"/>
</mask>
<g mask="url(#mask0)">
<path fill-rule="evenodd" clip-rule="evenodd" d="M42.4386 13.2029H42.4365H42.409C42.4048 13.1417 42.3978 13.0812 42.3935 13.02C42.0897 6.00244 36.3517 0.359492 29.1869 0.0170847C29.0015 0.00783051 28.8133 0.00498305 28.6251 0.00284746C28.5821 0.00284746 28.5391 0 28.4961 0H28.4954H28.4947C28.4869 0 28.4799 0 28.4728 0C23.3889 0.00854237 18.9465 2.68444 16.5252 6.67159C15.3007 8.61498 14.5824 10.8453 14.5824 13.1752C14.5824 13.2449 14.5873 13.314 14.588 13.3831C14.5873 13.4571 14.5824 13.5304 14.5824 13.6044C14.5824 20.5487 19.9045 26.2735 26.7768 27.1021C27.3421 27.1804 27.9166 27.226 28.501 27.226H30.9527V41.3657H42.4365H42.4386C50.1399 41.3657 56.3826 35.0615 56.3826 27.2843C56.3826 19.5072 50.1399 13.2029 42.4386 13.2029Z" fill="#00ADFB"/>
</g>
<path fill-rule="evenodd" clip-rule="evenodd" d="M9.29652 14.366C3.86845 16.3339 0 21.4412 0 27.4331C0 35.1282 6.3797 41.366 14.2499 41.366H14.252H26V32.1164C16.872 30.95 9.73523 23.5 9.29652 14.366Z" fill="#152ABE"/>
</svg>
