<svg width="124" height="21" viewBox="0 0 124 21" fill="none" xmlns="http://www.w3.org/2000/svg">
<path fill-rule="evenodd" clip-rule="evenodd" d="M113 16.8807L119.798 21L118 13.2311L124 8.00653L116.09 7.32458L113 0L109.91 7.32458L102 8.00653L108.001 13.2311L106.202 21L113 16.8807Z" fill="#F8C51C"/>
<path fill-rule="evenodd" clip-rule="evenodd" d="M87 16.8807L93.798 21L91.9995 13.2311L98 8.00653L90.0899 7.32458L87 0L83.9101 7.32458L76 8.00653L82.0005 13.2311L80.202 21L87 16.8807Z" fill="#F8C51C"/>
<path fill-rule="evenodd" clip-rule="evenodd" d="M62 16.8807L68.798 21L66.9995 13.2311L73 8.00653L65.0899 7.32458L62 0L58.9101 7.32458L51 8.00653L57.0005 13.2311L55.202 21L62 16.8807Z" fill="#F8C51C"/>
<path fill-rule="evenodd" clip-rule="evenodd" d="M37 16.8807L43.798 21L41.9995 13.2311L48 8.00653L40.0899 7.32458L37 0L33.9101 7.32458L26 8.00653L32.0005 13.2311L30.202 21L37 16.8807Z" fill="#F8C51C"/>
<path fill-rule="evenodd" clip-rule="evenodd" d="M11 16.8807L17.798 21L15.9995 13.2311L22 8.00653L14.0899 7.32458L11 0L7.9101 7.32458L0 8.00653L6.0005 13.2311L4.202 21L11 16.8807Z" fill="#F8C51C"/>
</svg>
