<svg width="96" height="28" viewBox="0 0 96 28" fill="none" xmlns="http://www.w3.org/2000/svg">
<path fill-rule="evenodd" clip-rule="evenodd" d="M69.8047 5.36731C68.2793 5.36731 66.8753 5.98732 65.7551 7.02679C65.5271 6.20903 64.7786 5.60833 63.888 5.60833H63.4303C62.3587 5.60833 61.4902 6.47697 61.4902 7.54857V25.1175C61.4902 26.1891 62.3587 27.0577 63.4303 27.0577H63.888C64.9596 27.0577 65.8282 26.1891 65.8282 25.1175V19.6832C66.9361 20.6816 68.3127 21.2736 69.8047 21.2736C73.4652 21.2736 76.4324 17.7129 76.4324 13.3205C76.4324 8.92804 73.4652 5.36731 69.8047 5.36731ZM72.0944 13.1999C72.0944 15.2631 70.6916 16.9356 68.9613 16.9356C67.2309 16.9356 65.8282 15.2631 65.8282 13.1999C65.8282 11.1368 67.2309 9.4643 68.9613 9.4643C70.6916 9.4643 72.0944 11.1368 72.0944 13.1999Z" fill="#B7B7B7"/>
<path fill-rule="evenodd" clip-rule="evenodd" d="M85.4698 5.36731C83.9443 5.36731 82.5404 5.98732 81.4201 7.02679C81.1921 6.20903 80.4436 5.60833 79.553 5.60833H79.0953C78.0237 5.60833 77.1553 6.47697 77.1553 7.54857V25.1175C77.1553 26.1891 78.0237 27.0577 79.0953 27.0577H79.553C80.6246 27.0577 81.4933 26.1891 81.4933 25.1175V19.6832C82.6011 20.6816 83.9778 21.2736 85.4698 21.2736C89.1302 21.2736 92.0975 17.7129 92.0975 13.3205C92.0975 8.92804 89.1302 5.36731 85.4698 5.36731ZM87.7595 13.1999C87.7595 15.2631 86.3566 16.9356 84.6264 16.9356C82.896 16.9356 81.4933 15.2631 81.4933 13.1999C81.4933 11.1368 82.896 9.4643 84.6264 9.4643C86.3566 9.4643 87.7595 11.1368 87.7595 13.1999Z" fill="#B7B7B7"/>
<path fill-rule="evenodd" clip-rule="evenodd" d="M60.9969 17.9397L54.283 1.68472C53.9317 0.785437 53.0677 0.19124 52.1025 0.185669H52.0882C51.1284 0.185669 50.264 0.768168 49.9041 1.65872L42.9544 17.9137C42.467 19.1201 43.0497 20.4933 44.2561 20.9807C45.4623 21.4683 46.8353 20.8855 47.3229 19.6792L48.5839 16.9355H55.3995L56.6078 19.6534C56.971 20.5839 57.8606 21.153 58.8032 21.153C59.088 21.153 59.3777 21.1007 59.6592 20.9911C60.871 20.518 61.4702 19.1517 60.9969 17.9397ZM52.3101 6.0244L54.3524 12.1511C54.4254 12.3708 54.262 12.5973 54.0306 12.5973H50.1513C49.9199 12.5973 49.7565 12.3708 49.8297 12.1511L51.8718 6.0244C51.942 5.81383 52.2399 5.81383 52.3101 6.0244Z" fill="#B7B7B7"/>
<path fill-rule="evenodd" clip-rule="evenodd" d="M24.3243 11.5363H30.0921C30.0921 11.5363 29.5315 9.23195 27.2082 9.23195C24.8851 9.23195 24.3243 11.5363 24.3243 11.5363ZM26.0466 16.7836C28.8332 17.8474 29.7718 16.4631 31.7746 16.0225C33.7774 15.5819 34.3781 17.1441 34.258 18.1856C34.1379 19.2269 32.4154 21.2297 27.1635 21.153C21.9113 21.0765 19.9182 17.1441 19.7579 13.3789C19.5977 9.61372 22.6819 5.20756 27.4086 5.36725C32.135 5.52694 34.0153 8.98239 34.4973 11.8745C34.9794 14.7665 33.0514 14.7665 33.0514 14.7665H24.8572C24.8572 14.7665 23.8436 15.9425 26.0466 16.7836Z" fill="white"/>
<path fill-rule="evenodd" clip-rule="evenodd" d="M41.714 5.86654C41.3896 5.86654 41.1575 5.49907 41.0047 5.12435V2.47516C41.0047 1.27729 40.0335 0.306152 38.8357 0.306152C37.6376 0.306152 36.6667 1.27729 36.6667 2.47516V5.8567C36.6438 5.86041 36.6217 5.86654 36.5982 5.86654C35.9367 5.86654 33.7744 6.04313 33.7744 7.49315C33.7744 8.943 34.6145 9.75705 35.5299 9.75705C35.9406 9.75705 36.3254 9.79883 36.6667 9.92194V18.8635C36.6667 20.0615 37.6376 21.0325 38.8357 21.0325C40.0335 21.0325 41.0047 20.0615 41.0047 18.8635V10.3115C41.4644 9.87551 42.0863 9.75705 42.7821 9.75705C43.6977 9.75705 44.5377 8.943 44.5377 7.49315C44.5377 6.04313 42.3754 5.86654 41.714 5.86654Z" fill="white"/>
<mask id="mask0" mask-type="alpha" maskUnits="userSpaceOnUse" x="0" y="0" width="20" height="22">
<path fill-rule="evenodd" clip-rule="evenodd" d="M0 0.199463H19.1123V21.3625H0V0.199463Z" fill="white"/>
</mask>
<g mask="url(#mask0)">
<path fill-rule="evenodd" clip-rule="evenodd" d="M5.77114 7.19874C3.8569 10.4494 5.37377 16.8065 9.38312 16.951C13.3923 17.0953 14.2953 14.1698 14.3315 13.5197C14.3315 13.5197 14.5055 13.1251 13.5135 13.1251C12.5218 13.1251 9.5144 13.6207 9.5144 11.1414C9.5144 8.66195 11.5939 8.91782 12.0739 8.91782H17.1608C17.1608 8.91782 19.1124 8.80585 19.1124 10.9654C19.1124 13.1251 18.9525 20.2753 11.1941 21.2673C3.43576 22.259 0 15.27 0 11.2636C0 7.25704 2.52942 0.199463 9.55618 0.199463C16.5829 0.199463 18.8117 3.7017 17.4319 5.77136C16.0522 7.84084 13.2885 5.35524 12.7622 5.08154C11.4821 4.41529 7.68557 3.94811 5.77114 7.19874Z" fill="white"/>
</g>
<path fill-rule="evenodd" clip-rule="evenodd" d="M92.6797 0.24231C90.901 0.24231 89.459 1.68435 89.459 3.46304C89.459 5.24174 90.901 6.68359 92.6797 6.68359C94.4586 6.68359 95.9005 5.24174 95.9005 3.46304C95.9005 1.68435 94.4586 0.24231 92.6797 0.24231ZM92.6797 0.76706C94.1663 0.76706 95.3759 1.97644 95.3759 3.46304C95.3759 4.94965 94.1663 6.15903 92.6797 6.15903C91.1931 6.15903 89.9837 4.94965 89.9837 3.46304C89.9837 1.97644 91.1931 0.76706 92.6797 0.76706Z" fill="white"/>
<path fill-rule="evenodd" clip-rule="evenodd" d="M91.8872 3.17969H92.3227C92.6146 3.17969 92.8261 3.12547 92.9572 3.01722C93.0885 2.90877 93.1538 2.74797 93.1538 2.5348C93.1538 2.31792 93.0829 2.16231 92.9416 2.06799C92.7999 1.97366 92.5867 1.92631 92.3015 1.92631H91.8872V3.17969ZM91.8872 3.69887V5.23023H91.2607V1.39673H92.3437C92.8383 1.39673 93.2045 1.48939 93.4424 1.6747C93.6801 1.86002 93.7989 2.13966 93.7989 2.51382C93.7989 2.99103 93.5506 3.33103 93.0541 3.5338L94.1372 5.23023H93.4238L92.5063 3.69887H91.8872Z" fill="white"/>
</svg>
