<svg width="883" height="585" viewBox="0 0 883 585" fill="none" xmlns="http://www.w3.org/2000/svg">
<path opacity="0.221912" d="M429 0V0C426.238 0 424 2.23784 424 5V5C424 7.76216 426.238 10 429 10V10C431.762 10 434 7.76216 434 5V5C434.003 2.23784 431.762 0 429 0Z" fill="#00ADFB"/>
<g opacity="0.4">
<path opacity="0.4" fill-rule="evenodd" clip-rule="evenodd" d="M73.975 361.963C75.0658 361.963 75.95 361.074 75.95 359.977C75.95 358.889 75.0658 358 73.975 358C72.8842 358 72 358.889 72 359.977C72 361.074 72.8842 361.963 73.975 361.963ZM73.975 379.12C75.0658 379.12 75.95 378.231 75.95 377.134C75.95 376.047 75.0658 375.157 73.975 375.157C72.8842 375.157 72 376.047 72 377.134C72 378.231 72.8842 379.12 73.975 379.12ZM75.95 394.292C75.95 395.389 75.0658 396.268 73.975 396.268C72.8842 396.268 72 395.389 72 394.292C72 393.204 72.8842 392.315 73.975 392.315C75.0658 392.315 75.95 393.204 75.95 394.292ZM73.975 413.426C75.0658 413.426 75.95 412.546 75.95 411.449C75.95 410.352 75.0658 409.472 73.975 409.472C72.8842 409.472 72 410.352 72 411.449C72 412.546 72.8842 413.426 73.975 413.426ZM75.95 428.606C75.95 429.704 75.0658 430.583 73.975 430.583C72.8842 430.583 72 429.704 72 428.606C72 427.509 72.8842 426.63 73.975 426.63C75.0658 426.63 75.95 427.509 75.95 428.606ZM73.975 447.741C75.0658 447.741 75.95 446.861 75.95 445.764C75.95 444.667 75.0658 443.787 73.975 443.787C72.8842 443.787 72 444.667 72 445.764C72 446.861 72.8842 447.741 73.975 447.741ZM75.95 462.921C75.95 464.018 75.0658 464.898 73.975 464.898C72.8842 464.898 72 464.018 72 462.921C72 461.824 72.8842 460.945 73.975 460.945C75.0658 460.945 75.95 461.824 75.95 462.921ZM73.975 482.055C75.0658 482.055 75.95 481.166 75.95 480.079C75.95 478.982 75.0658 478.102 73.975 478.102C72.8842 478.102 72 478.982 72 480.079C72 481.166 72.8842 482.055 73.975 482.055ZM75.95 497.236C75.95 498.324 75.0658 499.213 73.975 499.213C72.8842 499.213 72 498.324 72 497.236C72 496.139 72.8842 495.25 73.975 495.25C75.0658 495.25 75.95 496.139 75.95 497.236ZM73.975 516.37C75.0658 516.37 75.95 515.481 75.95 514.394C75.95 513.296 75.0658 512.407 73.975 512.407C72.8842 512.407 72 513.296 72 514.394C72 515.481 72.8842 516.37 73.975 516.37ZM75.95 531.551C75.95 532.639 75.0658 533.528 73.975 533.528C72.8842 533.528 72 532.639 72 531.551C72 530.454 72.8842 529.565 73.975 529.565C75.0658 529.565 75.95 530.454 75.95 531.551ZM73.975 550.685C75.0658 550.685 75.95 549.796 75.95 548.708C75.95 547.611 75.0658 546.722 73.975 546.722C72.8842 546.722 72 547.611 72 548.708C72 549.796 72.8842 550.685 73.975 550.685ZM75.95 565.856C75.95 566.954 75.0658 567.843 73.975 567.843C72.8842 567.843 72 566.954 72 565.856C72 564.769 72.8842 563.88 73.975 563.88C75.0658 563.88 75.95 564.769 75.95 565.856ZM73.975 585C75.0658 585 75.95 584.111 75.95 583.014C75.95 581.926 75.0658 581.037 73.975 581.037C72.8842 581.037 72 581.926 72 583.014C72 584.111 72.8842 585 73.975 585ZM93.0666 359.977C93.0666 361.074 92.1824 361.963 91.0916 361.963C90.0009 361.963 89.1166 361.074 89.1166 359.977C89.1166 358.889 90.0009 358 91.0916 358C92.1824 358 93.0666 358.889 93.0666 359.977ZM91.0916 379.12C92.1824 379.12 93.0666 378.231 93.0666 377.134C93.0666 376.047 92.1824 375.157 91.0916 375.157C90.0009 375.157 89.1166 376.047 89.1166 377.134C89.1166 378.231 90.0009 379.12 91.0916 379.12ZM93.0666 394.292C93.0666 395.389 92.1824 396.268 91.0916 396.268C90.0009 396.268 89.1166 395.389 89.1166 394.292C89.1166 393.204 90.0009 392.315 91.0916 392.315C92.1824 392.315 93.0666 393.204 93.0666 394.292ZM91.0916 413.426C92.1824 413.426 93.0666 412.546 93.0666 411.449C93.0666 410.352 92.1824 409.472 91.0916 409.472C90.0009 409.472 89.1166 410.352 89.1166 411.449C89.1166 412.546 90.0009 413.426 91.0916 413.426ZM93.0666 428.606C93.0666 429.704 92.1824 430.583 91.0916 430.583C90.0009 430.583 89.1166 429.704 89.1166 428.606C89.1166 427.509 90.0009 426.63 91.0916 426.63C92.1824 426.63 93.0666 427.509 93.0666 428.606ZM91.0916 447.741C92.1824 447.741 93.0666 446.861 93.0666 445.764C93.0666 444.667 92.1824 443.787 91.0916 443.787C90.0009 443.787 89.1166 444.667 89.1166 445.764C89.1166 446.861 90.0009 447.741 91.0916 447.741ZM93.0666 462.921C93.0666 464.018 92.1824 464.898 91.0916 464.898C90.0009 464.898 89.1166 464.018 89.1166 462.921C89.1166 461.824 90.0009 460.945 91.0916 460.945C92.1824 460.945 93.0666 461.824 93.0666 462.921ZM91.0916 482.055C92.1824 482.055 93.0666 481.166 93.0666 480.079C93.0666 478.982 92.1824 478.102 91.0916 478.102C90.0009 478.102 89.1166 478.982 89.1166 480.079C89.1166 481.166 90.0009 482.055 91.0916 482.055ZM93.0666 497.236C93.0666 498.324 92.1824 499.213 91.0916 499.213C90.0009 499.213 89.1166 498.324 89.1166 497.236C89.1166 496.139 90.0009 495.25 91.0916 495.25C92.1824 495.25 93.0666 496.139 93.0666 497.236ZM91.0916 516.37C92.1824 516.37 93.0666 515.481 93.0666 514.394C93.0666 513.296 92.1824 512.407 91.0916 512.407C90.0009 512.407 89.1166 513.296 89.1166 514.394C89.1166 515.481 90.0009 516.37 91.0916 516.37ZM93.0666 531.551C93.0666 532.639 92.1824 533.528 91.0916 533.528C90.0009 533.528 89.1166 532.639 89.1166 531.551C89.1166 530.454 90.0009 529.565 91.0916 529.565C92.1824 529.565 93.0666 530.454 93.0666 531.551ZM91.0916 550.685C92.1824 550.685 93.0666 549.796 93.0666 548.708C93.0666 547.611 92.1824 546.722 91.0916 546.722C90.0009 546.722 89.1166 547.611 89.1166 548.708C89.1166 549.796 90.0009 550.685 91.0916 550.685ZM93.0666 565.856C93.0666 566.954 92.1824 567.843 91.0916 567.843C90.0009 567.843 89.1166 566.954 89.1166 565.856C89.1166 564.769 90.0009 563.88 91.0916 563.88C92.1824 563.88 93.0666 564.769 93.0666 565.856ZM91.0916 585C92.1824 585 93.0666 584.111 93.0666 583.014C93.0666 581.926 92.1824 581.037 91.0916 581.037C90.0009 581.037 89.1166 581.926 89.1166 583.014C89.1166 584.111 90.0009 585 91.0916 585ZM110.183 359.977C110.183 361.074 109.299 361.963 108.208 361.963C107.117 361.963 106.233 361.074 106.233 359.977C106.233 358.889 107.117 358 108.208 358C109.299 358 110.183 358.889 110.183 359.977ZM108.208 379.12C109.299 379.12 110.183 378.231 110.183 377.134C110.183 376.047 109.299 375.157 108.208 375.157C107.117 375.157 106.233 376.047 106.233 377.134C106.233 378.231 107.117 379.12 108.208 379.12ZM110.183 394.292C110.183 395.389 109.299 396.268 108.208 396.268C107.117 396.268 106.233 395.389 106.233 394.292C106.233 393.204 107.117 392.315 108.208 392.315C109.299 392.315 110.183 393.204 110.183 394.292ZM108.208 413.426C109.299 413.426 110.183 412.546 110.183 411.449C110.183 410.352 109.299 409.472 108.208 409.472C107.117 409.472 106.233 410.352 106.233 411.449C106.233 412.546 107.117 413.426 108.208 413.426ZM110.183 428.606C110.183 429.704 109.299 430.583 108.208 430.583C107.117 430.583 106.233 429.704 106.233 428.606C106.233 427.509 107.117 426.63 108.208 426.63C109.299 426.63 110.183 427.509 110.183 428.606ZM108.208 447.741C109.299 447.741 110.183 446.861 110.183 445.764C110.183 444.667 109.299 443.787 108.208 443.787C107.117 443.787 106.233 444.667 106.233 445.764C106.233 446.861 107.117 447.741 108.208 447.741ZM110.183 462.921C110.183 464.018 109.299 464.898 108.208 464.898C107.117 464.898 106.233 464.018 106.233 462.921C106.233 461.824 107.117 460.945 108.208 460.945C109.299 460.945 110.183 461.824 110.183 462.921ZM108.208 482.055C109.299 482.055 110.183 481.166 110.183 480.079C110.183 478.982 109.299 478.102 108.208 478.102C107.117 478.102 106.233 478.982 106.233 480.079C106.233 481.166 107.117 482.055 108.208 482.055ZM110.183 497.236C110.183 498.324 109.299 499.213 108.208 499.213C107.117 499.213 106.233 498.324 106.233 497.236C106.233 496.139 107.117 495.25 108.208 495.25C109.299 495.25 110.183 496.139 110.183 497.236ZM108.208 516.37C109.299 516.37 110.183 515.481 110.183 514.394C110.183 513.296 109.299 512.407 108.208 512.407C107.117 512.407 106.233 513.296 106.233 514.394C106.233 515.481 107.117 516.37 108.208 516.37ZM110.183 531.551C110.183 532.639 109.299 533.528 108.208 533.528C107.117 533.528 106.233 532.639 106.233 531.551C106.233 530.454 107.117 529.565 108.208 529.565C109.299 529.565 110.183 530.454 110.183 531.551ZM108.208 550.685C109.299 550.685 110.183 549.796 110.183 548.708C110.183 547.611 109.299 546.722 108.208 546.722C107.117 546.722 106.233 547.611 106.233 548.708C106.233 549.796 107.117 550.685 108.208 550.685ZM110.183 565.856C110.183 566.954 109.299 567.843 108.208 567.843C107.117 567.843 106.233 566.954 106.233 565.856C106.233 564.769 107.117 563.88 108.208 563.88C109.299 563.88 110.183 564.769 110.183 565.856ZM108.208 585C109.299 585 110.183 584.111 110.183 583.014C110.183 581.926 109.299 581.037 108.208 581.037C107.117 581.037 106.233 581.926 106.233 583.014C106.233 584.111 107.117 585 108.208 585ZM127.3 359.977C127.3 361.074 126.416 361.963 125.325 361.963C124.234 361.963 123.35 361.074 123.35 359.977C123.35 358.889 124.234 358 125.325 358C126.416 358 127.3 358.889 127.3 359.977ZM125.325 379.12C126.416 379.12 127.3 378.231 127.3 377.134C127.3 376.047 126.416 375.157 125.325 375.157C124.234 375.157 123.35 376.047 123.35 377.134C123.35 378.231 124.234 379.12 125.325 379.12ZM127.3 394.292C127.3 395.389 126.416 396.268 125.325 396.268C124.234 396.268 123.35 395.389 123.35 394.292C123.35 393.204 124.234 392.315 125.325 392.315C126.416 392.315 127.3 393.204 127.3 394.292ZM125.325 413.426C126.416 413.426 127.3 412.546 127.3 411.449C127.3 410.352 126.416 409.472 125.325 409.472C124.234 409.472 123.35 410.352 123.35 411.449C123.35 412.546 124.234 413.426 125.325 413.426ZM127.3 428.606C127.3 429.704 126.416 430.583 125.325 430.583C124.234 430.583 123.35 429.704 123.35 428.606C123.35 427.509 124.234 426.63 125.325 426.63C126.416 426.63 127.3 427.509 127.3 428.606ZM125.325 447.741C126.416 447.741 127.3 446.861 127.3 445.764C127.3 444.667 126.416 443.787 125.325 443.787C124.234 443.787 123.35 444.667 123.35 445.764C123.35 446.861 124.234 447.741 125.325 447.741ZM127.3 462.921C127.3 464.018 126.416 464.898 125.325 464.898C124.234 464.898 123.35 464.018 123.35 462.921C123.35 461.824 124.234 460.945 125.325 460.945C126.416 460.945 127.3 461.824 127.3 462.921ZM125.325 482.055C126.416 482.055 127.3 481.166 127.3 480.079C127.3 478.982 126.416 478.102 125.325 478.102C124.234 478.102 123.35 478.982 123.35 480.079C123.35 481.166 124.234 482.055 125.325 482.055ZM127.3 497.236C127.3 498.324 126.416 499.213 125.325 499.213C124.234 499.213 123.35 498.324 123.35 497.236C123.35 496.139 124.234 495.25 125.325 495.25C126.416 495.25 127.3 496.139 127.3 497.236ZM125.325 516.37C126.416 516.37 127.3 515.481 127.3 514.394C127.3 513.296 126.416 512.407 125.325 512.407C124.234 512.407 123.35 513.296 123.35 514.394C123.35 515.481 124.234 516.37 125.325 516.37ZM127.3 531.551C127.3 532.639 126.416 533.528 125.325 533.528C124.234 533.528 123.35 532.639 123.35 531.551C123.35 530.454 124.234 529.565 125.325 529.565C126.416 529.565 127.3 530.454 127.3 531.551ZM125.325 550.685C126.416 550.685 127.3 549.796 127.3 548.708C127.3 547.611 126.416 546.722 125.325 546.722C124.234 546.722 123.35 547.611 123.35 548.708C123.35 549.796 124.234 550.685 125.325 550.685ZM127.3 565.856C127.3 566.954 126.416 567.843 125.325 567.843C124.234 567.843 123.35 566.954 123.35 565.856C123.35 564.769 124.234 563.88 125.325 563.88C126.416 563.88 127.3 564.769 127.3 565.856ZM125.325 585C126.416 585 127.3 584.111 127.3 583.014C127.3 581.926 126.416 581.037 125.325 581.037C124.234 581.037 123.35 581.926 123.35 583.014C123.35 584.111 124.234 585 125.325 585ZM144.417 359.977C144.417 361.074 143.532 361.963 142.442 361.963C141.351 361.963 140.467 361.074 140.467 359.977C140.467 358.889 141.351 358 142.442 358C143.532 358 144.417 358.889 144.417 359.977ZM142.442 379.12C143.532 379.12 144.417 378.231 144.417 377.134C144.417 376.047 143.532 375.157 142.442 375.157C141.351 375.157 140.467 376.047 140.467 377.134C140.467 378.231 141.351 379.12 142.442 379.12ZM144.417 394.292C144.417 395.389 143.532 396.268 142.442 396.268C141.351 396.268 140.467 395.389 140.467 394.292C140.467 393.204 141.351 392.315 142.442 392.315C143.532 392.315 144.417 393.204 144.417 394.292ZM142.442 413.426C143.532 413.426 144.417 412.546 144.417 411.449C144.417 410.352 143.532 409.472 142.442 409.472C141.351 409.472 140.467 410.352 140.467 411.449C140.467 412.546 141.351 413.426 142.442 413.426ZM144.417 428.606C144.417 429.704 143.532 430.583 142.442 430.583C141.351 430.583 140.467 429.704 140.467 428.606C140.467 427.509 141.351 426.63 142.442 426.63C143.532 426.63 144.417 427.509 144.417 428.606ZM142.442 447.741C143.532 447.741 144.417 446.861 144.417 445.764C144.417 444.667 143.532 443.787 142.442 443.787C141.351 443.787 140.467 444.667 140.467 445.764C140.467 446.861 141.351 447.741 142.442 447.741ZM144.417 462.921C144.417 464.018 143.532 464.898 142.442 464.898C141.351 464.898 140.467 464.018 140.467 462.921C140.467 461.824 141.351 460.945 142.442 460.945C143.532 460.945 144.417 461.824 144.417 462.921ZM142.442 482.055C143.532 482.055 144.417 481.166 144.417 480.079C144.417 478.982 143.532 478.102 142.442 478.102C141.351 478.102 140.467 478.982 140.467 480.079C140.467 481.166 141.351 482.055 142.442 482.055ZM144.417 497.236C144.417 498.324 143.532 499.213 142.442 499.213C141.351 499.213 140.467 498.324 140.467 497.236C140.467 496.139 141.351 495.25 142.442 495.25C143.532 495.25 144.417 496.139 144.417 497.236ZM142.442 516.37C143.532 516.37 144.417 515.481 144.417 514.394C144.417 513.296 143.532 512.407 142.442 512.407C141.351 512.407 140.467 513.296 140.467 514.394C140.467 515.481 141.351 516.37 142.442 516.37ZM144.417 531.551C144.417 532.639 143.532 533.528 142.442 533.528C141.351 533.528 140.467 532.639 140.467 531.551C140.467 530.454 141.351 529.565 142.442 529.565C143.532 529.565 144.417 530.454 144.417 531.551ZM142.442 550.685C143.532 550.685 144.417 549.796 144.417 548.708C144.417 547.611 143.532 546.722 142.442 546.722C141.351 546.722 140.467 547.611 140.467 548.708C140.467 549.796 141.351 550.685 142.442 550.685ZM144.417 565.856C144.417 566.954 143.532 567.843 142.442 567.843C141.351 567.843 140.467 566.954 140.467 565.856C140.467 564.769 141.351 563.88 142.442 563.88C143.532 563.88 144.417 564.769 144.417 565.856ZM142.442 585C143.532 585 144.417 584.111 144.417 583.014C144.417 581.926 143.532 581.037 142.442 581.037C141.351 581.037 140.467 581.926 140.467 583.014C140.467 584.111 141.351 585 142.442 585ZM161.533 359.977C161.533 361.074 160.649 361.963 159.558 361.963C158.468 361.963 157.583 361.074 157.583 359.977C157.583 358.889 158.468 358 159.558 358C160.649 358 161.533 358.889 161.533 359.977ZM159.558 379.12C160.649 379.12 161.533 378.231 161.533 377.134C161.533 376.047 160.649 375.157 159.558 375.157C158.468 375.157 157.583 376.047 157.583 377.134C157.583 378.231 158.468 379.12 159.558 379.12ZM161.533 394.292C161.533 395.389 160.649 396.268 159.558 396.268C158.468 396.268 157.583 395.389 157.583 394.292C157.583 393.204 158.468 392.315 159.558 392.315C160.649 392.315 161.533 393.204 161.533 394.292ZM159.558 413.426C160.649 413.426 161.533 412.546 161.533 411.449C161.533 410.352 160.649 409.472 159.558 409.472C158.468 409.472 157.583 410.352 157.583 411.449C157.583 412.546 158.468 413.426 159.558 413.426ZM161.533 428.606C161.533 429.704 160.649 430.583 159.558 430.583C158.468 430.583 157.583 429.704 157.583 428.606C157.583 427.509 158.468 426.63 159.558 426.63C160.649 426.63 161.533 427.509 161.533 428.606ZM159.558 447.741C160.649 447.741 161.533 446.861 161.533 445.764C161.533 444.667 160.649 443.787 159.558 443.787C158.468 443.787 157.583 444.667 157.583 445.764C157.583 446.861 158.468 447.741 159.558 447.741ZM161.533 462.921C161.533 464.018 160.649 464.898 159.558 464.898C158.468 464.898 157.583 464.018 157.583 462.921C157.583 461.824 158.468 460.945 159.558 460.945C160.649 460.945 161.533 461.824 161.533 462.921ZM159.558 482.055C160.649 482.055 161.533 481.166 161.533 480.079C161.533 478.982 160.649 478.102 159.558 478.102C158.468 478.102 157.583 478.982 157.583 480.079C157.583 481.166 158.468 482.055 159.558 482.055ZM161.533 497.236C161.533 498.324 160.649 499.213 159.558 499.213C158.468 499.213 157.583 498.324 157.583 497.236C157.583 496.139 158.468 495.25 159.558 495.25C160.649 495.25 161.533 496.139 161.533 497.236ZM159.558 516.37C160.649 516.37 161.533 515.481 161.533 514.394C161.533 513.296 160.649 512.407 159.558 512.407C158.468 512.407 157.583 513.296 157.583 514.394C157.583 515.481 158.468 516.37 159.558 516.37ZM161.533 531.551C161.533 532.639 160.649 533.528 159.558 533.528C158.468 533.528 157.583 532.639 157.583 531.551C157.583 530.454 158.468 529.565 159.558 529.565C160.649 529.565 161.533 530.454 161.533 531.551ZM159.558 550.685C160.649 550.685 161.533 549.796 161.533 548.708C161.533 547.611 160.649 546.722 159.558 546.722C158.468 546.722 157.583 547.611 157.583 548.708C157.583 549.796 158.468 550.685 159.558 550.685ZM161.533 565.856C161.533 566.954 160.649 567.843 159.558 567.843C158.468 567.843 157.583 566.954 157.583 565.856C157.583 564.769 158.468 563.88 159.558 563.88C160.649 563.88 161.533 564.769 161.533 565.856ZM159.558 585C160.649 585 161.533 584.111 161.533 583.014C161.533 581.926 160.649 581.037 159.558 581.037C158.468 581.037 157.583 581.926 157.583 583.014C157.583 584.111 158.468 585 159.558 585ZM178.65 359.977C178.65 361.074 177.766 361.963 176.675 361.963C175.584 361.963 174.7 361.074 174.7 359.977C174.7 358.889 175.584 358 176.675 358C177.766 358 178.65 358.889 178.65 359.977ZM176.675 379.12C177.766 379.12 178.65 378.231 178.65 377.134C178.65 376.047 177.766 375.157 176.675 375.157C175.584 375.157 174.7 376.047 174.7 377.134C174.7 378.231 175.584 379.12 176.675 379.12ZM178.65 394.292C178.65 395.389 177.766 396.268 176.675 396.268C175.584 396.268 174.7 395.389 174.7 394.292C174.7 393.204 175.584 392.315 176.675 392.315C177.766 392.315 178.65 393.204 178.65 394.292ZM176.675 413.426C177.766 413.426 178.65 412.546 178.65 411.449C178.65 410.352 177.766 409.472 176.675 409.472C175.584 409.472 174.7 410.352 174.7 411.449C174.7 412.546 175.584 413.426 176.675 413.426ZM178.65 428.606C178.65 429.704 177.766 430.583 176.675 430.583C175.584 430.583 174.7 429.704 174.7 428.606C174.7 427.509 175.584 426.63 176.675 426.63C177.766 426.63 178.65 427.509 178.65 428.606ZM176.675 447.741C177.766 447.741 178.65 446.861 178.65 445.764C178.65 444.667 177.766 443.787 176.675 443.787C175.584 443.787 174.7 444.667 174.7 445.764C174.7 446.861 175.584 447.741 176.675 447.741ZM178.65 462.921C178.65 464.018 177.766 464.898 176.675 464.898C175.584 464.898 174.7 464.018 174.7 462.921C174.7 461.824 175.584 460.945 176.675 460.945C177.766 460.945 178.65 461.824 178.65 462.921ZM176.675 482.055C177.766 482.055 178.65 481.166 178.65 480.079C178.65 478.982 177.766 478.102 176.675 478.102C175.584 478.102 174.7 478.982 174.7 480.079C174.7 481.166 175.584 482.055 176.675 482.055ZM178.65 497.236C178.65 498.324 177.766 499.213 176.675 499.213C175.584 499.213 174.7 498.324 174.7 497.236C174.7 496.139 175.584 495.25 176.675 495.25C177.766 495.25 178.65 496.139 178.65 497.236ZM176.675 516.37C177.766 516.37 178.65 515.481 178.65 514.394C178.65 513.296 177.766 512.407 176.675 512.407C175.584 512.407 174.7 513.296 174.7 514.394C174.7 515.481 175.584 516.37 176.675 516.37ZM178.65 531.551C178.65 532.639 177.766 533.528 176.675 533.528C175.584 533.528 174.7 532.639 174.7 531.551C174.7 530.454 175.584 529.565 176.675 529.565C177.766 529.565 178.65 530.454 178.65 531.551ZM176.675 550.685C177.766 550.685 178.65 549.796 178.65 548.708C178.65 547.611 177.766 546.722 176.675 546.722C175.584 546.722 174.7 547.611 174.7 548.708C174.7 549.796 175.584 550.685 176.675 550.685ZM178.65 565.856C178.65 566.954 177.766 567.843 176.675 567.843C175.584 567.843 174.7 566.954 174.7 565.856C174.7 564.769 175.584 563.88 176.675 563.88C177.766 563.88 178.65 564.769 178.65 565.856ZM176.675 585C177.766 585 178.65 584.111 178.65 583.014C178.65 581.926 177.766 581.037 176.675 581.037C175.584 581.037 174.7 581.926 174.7 583.014C174.7 584.111 175.584 585 176.675 585ZM195.766 359.977C195.766 361.074 194.882 361.963 193.791 361.963C192.701 361.963 191.816 361.074 191.816 359.977C191.816 358.889 192.701 358 193.791 358C194.882 358 195.766 358.889 195.766 359.977ZM193.791 379.12C194.882 379.12 195.766 378.231 195.766 377.134C195.766 376.047 194.882 375.157 193.791 375.157C192.701 375.157 191.816 376.047 191.816 377.134C191.816 378.231 192.701 379.12 193.791 379.12ZM195.766 394.292C195.766 395.389 194.882 396.268 193.791 396.268C192.701 396.268 191.816 395.389 191.816 394.292C191.816 393.204 192.701 392.315 193.791 392.315C194.882 392.315 195.766 393.204 195.766 394.292ZM193.791 413.426C194.882 413.426 195.766 412.546 195.766 411.449C195.766 410.352 194.882 409.472 193.791 409.472C192.701 409.472 191.816 410.352 191.816 411.449C191.816 412.546 192.701 413.426 193.791 413.426ZM195.766 428.606C195.766 429.704 194.882 430.583 193.791 430.583C192.701 430.583 191.816 429.704 191.816 428.606C191.816 427.509 192.701 426.63 193.791 426.63C194.882 426.63 195.766 427.509 195.766 428.606ZM193.791 447.741C194.882 447.741 195.766 446.861 195.766 445.764C195.766 444.667 194.882 443.787 193.791 443.787C192.701 443.787 191.816 444.667 191.816 445.764C191.816 446.861 192.701 447.741 193.791 447.741ZM195.766 462.921C195.766 464.018 194.882 464.898 193.791 464.898C192.701 464.898 191.816 464.018 191.816 462.921C191.816 461.824 192.701 460.945 193.791 460.945C194.882 460.945 195.766 461.824 195.766 462.921ZM193.791 482.055C194.882 482.055 195.766 481.166 195.766 480.079C195.766 478.982 194.882 478.102 193.791 478.102C192.701 478.102 191.816 478.982 191.816 480.079C191.816 481.166 192.701 482.055 193.791 482.055ZM195.766 497.236C195.766 498.324 194.882 499.213 193.791 499.213C192.701 499.213 191.816 498.324 191.816 497.236C191.816 496.139 192.701 495.25 193.791 495.25C194.882 495.25 195.766 496.139 195.766 497.236ZM193.791 516.37C194.882 516.37 195.766 515.481 195.766 514.394C195.766 513.296 194.882 512.407 193.791 512.407C192.701 512.407 191.816 513.296 191.816 514.394C191.816 515.481 192.701 516.37 193.791 516.37ZM195.766 531.551C195.766 532.639 194.882 533.528 193.791 533.528C192.701 533.528 191.816 532.639 191.816 531.551C191.816 530.454 192.701 529.565 193.791 529.565C194.882 529.565 195.766 530.454 195.766 531.551ZM193.791 550.685C194.882 550.685 195.766 549.796 195.766 548.708C195.766 547.611 194.882 546.722 193.791 546.722C192.701 546.722 191.816 547.611 191.816 548.708C191.816 549.796 192.701 550.685 193.791 550.685ZM195.766 565.856C195.766 566.954 194.882 567.843 193.791 567.843C192.701 567.843 191.816 566.954 191.816 565.856C191.816 564.769 192.701 563.88 193.791 563.88C194.882 563.88 195.766 564.769 195.766 565.856ZM193.791 585C194.882 585 195.766 584.111 195.766 583.014C195.766 581.926 194.882 581.037 193.791 581.037C192.701 581.037 191.816 581.926 191.816 583.014C191.816 584.111 192.701 585 193.791 585ZM212.884 359.977C212.884 361.074 211.999 361.963 210.909 361.963C209.818 361.963 208.934 361.074 208.934 359.977C208.934 358.889 209.818 358 210.909 358C211.999 358 212.884 358.889 212.884 359.977ZM210.909 379.12C211.999 379.12 212.884 378.231 212.884 377.134C212.884 376.047 211.999 375.157 210.909 375.157C209.818 375.157 208.934 376.047 208.934 377.134C208.934 378.231 209.818 379.12 210.909 379.12ZM212.884 394.292C212.884 395.389 211.999 396.268 210.909 396.268C209.818 396.268 208.934 395.389 208.934 394.292C208.934 393.204 209.818 392.315 210.909 392.315C211.999 392.315 212.884 393.204 212.884 394.292ZM210.909 413.426C211.999 413.426 212.884 412.546 212.884 411.449C212.884 410.352 211.999 409.472 210.909 409.472C209.818 409.472 208.934 410.352 208.934 411.449C208.934 412.546 209.818 413.426 210.909 413.426ZM212.884 428.606C212.884 429.704 211.999 430.583 210.909 430.583C209.818 430.583 208.934 429.704 208.934 428.606C208.934 427.509 209.818 426.63 210.909 426.63C211.999 426.63 212.884 427.509 212.884 428.606ZM210.909 447.741C211.999 447.741 212.884 446.861 212.884 445.764C212.884 444.667 211.999 443.787 210.909 443.787C209.818 443.787 208.934 444.667 208.934 445.764C208.934 446.861 209.818 447.741 210.909 447.741ZM212.884 462.921C212.884 464.018 211.999 464.898 210.909 464.898C209.818 464.898 208.934 464.018 208.934 462.921C208.934 461.824 209.818 460.945 210.909 460.945C211.999 460.945 212.884 461.824 212.884 462.921ZM210.909 482.055C211.999 482.055 212.884 481.166 212.884 480.079C212.884 478.982 211.999 478.102 210.909 478.102C209.818 478.102 208.934 478.982 208.934 480.079C208.934 481.166 209.818 482.055 210.909 482.055ZM212.884 497.236C212.884 498.324 211.999 499.213 210.909 499.213C209.818 499.213 208.934 498.324 208.934 497.236C208.934 496.139 209.818 495.25 210.909 495.25C211.999 495.25 212.884 496.139 212.884 497.236ZM210.909 516.37C211.999 516.37 212.884 515.481 212.884 514.394C212.884 513.296 211.999 512.407 210.909 512.407C209.818 512.407 208.934 513.296 208.934 514.394C208.934 515.481 209.818 516.37 210.909 516.37ZM212.884 531.551C212.884 532.639 211.999 533.528 210.909 533.528C209.818 533.528 208.934 532.639 208.934 531.551C208.934 530.454 209.818 529.565 210.909 529.565C211.999 529.565 212.884 530.454 212.884 531.551ZM210.909 550.685C211.999 550.685 212.884 549.796 212.884 548.708C212.884 547.611 211.999 546.722 210.909 546.722C209.818 546.722 208.934 547.611 208.934 548.708C208.934 549.796 209.818 550.685 210.909 550.685ZM212.884 565.856C212.884 566.954 211.999 567.843 210.909 567.843C209.818 567.843 208.934 566.954 208.934 565.856C208.934 564.769 209.818 563.88 210.909 563.88C211.999 563.88 212.884 564.769 212.884 565.856ZM210.909 585C211.999 585 212.884 584.111 212.884 583.014C212.884 581.926 211.999 581.037 210.909 581.037C209.818 581.037 208.934 581.926 208.934 583.014C208.934 584.111 209.818 585 210.909 585ZM230 359.977C230 361.074 229.116 361.963 228.025 361.963C226.934 361.963 226.05 361.074 226.05 359.977C226.05 358.889 226.934 358 228.025 358C229.116 358 230 358.889 230 359.977ZM228.025 379.12C229.116 379.12 230 378.231 230 377.134C230 376.047 229.116 375.157 228.025 375.157C226.934 375.157 226.05 376.047 226.05 377.134C226.05 378.231 226.934 379.12 228.025 379.12ZM230 394.292C230 395.389 229.116 396.268 228.025 396.268C226.934 396.268 226.05 395.389 226.05 394.292C226.05 393.204 226.934 392.315 228.025 392.315C229.116 392.315 230 393.204 230 394.292ZM228.025 413.426C229.116 413.426 230 412.546 230 411.449C230 410.352 229.116 409.472 228.025 409.472C226.934 409.472 226.05 410.352 226.05 411.449C226.05 412.546 226.934 413.426 228.025 413.426ZM230 428.606C230 429.704 229.116 430.583 228.025 430.583C226.934 430.583 226.05 429.704 226.05 428.606C226.05 427.509 226.934 426.63 228.025 426.63C229.116 426.63 230 427.509 230 428.606ZM228.025 447.741C229.116 447.741 230 446.861 230 445.764C230 444.667 229.116 443.787 228.025 443.787C226.934 443.787 226.05 444.667 226.05 445.764C226.05 446.861 226.934 447.741 228.025 447.741ZM230 462.921C230 464.018 229.116 464.898 228.025 464.898C226.934 464.898 226.05 464.018 226.05 462.921C226.05 461.824 226.934 460.945 228.025 460.945C229.116 460.945 230 461.824 230 462.921ZM228.025 482.055C229.116 482.055 230 481.166 230 480.079C230 478.982 229.116 478.102 228.025 478.102C226.934 478.102 226.05 478.982 226.05 480.079C226.05 481.166 226.934 482.055 228.025 482.055ZM230 497.236C230 498.324 229.116 499.213 228.025 499.213C226.934 499.213 226.05 498.324 226.05 497.236C226.05 496.139 226.934 495.25 228.025 495.25C229.116 495.25 230 496.139 230 497.236ZM228.025 516.37C229.116 516.37 230 515.481 230 514.394C230 513.296 229.116 512.407 228.025 512.407C226.934 512.407 226.05 513.296 226.05 514.394C226.05 515.481 226.934 516.37 228.025 516.37ZM230 531.551C230 532.639 229.116 533.528 228.025 533.528C226.934 533.528 226.05 532.639 226.05 531.551C226.05 530.454 226.934 529.565 228.025 529.565C229.116 529.565 230 530.454 230 531.551ZM228.025 550.685C229.116 550.685 230 549.796 230 548.708C230 547.611 229.116 546.722 228.025 546.722C226.934 546.722 226.05 547.611 226.05 548.708C226.05 549.796 226.934 550.685 228.025 550.685ZM230 565.856C230 566.954 229.116 567.843 228.025 567.843C226.934 567.843 226.05 566.954 226.05 565.856C226.05 564.769 226.934 563.88 228.025 563.88C229.116 563.88 230 564.769 230 565.856ZM228.025 585C229.116 585 230 584.111 230 583.014C230 581.926 229.116 581.037 228.025 581.037C226.934 581.037 226.05 581.926 226.05 583.014C226.05 584.111 226.934 585 228.025 585Z" fill="white"/>
</g>
<path d="M862.5 473V473C851.175 473 842 482.175 842 493.5V493.5C842 504.825 851.175 514 862.5 514V514C873.825 514 883 504.825 883 493.5V493.5C883.011 482.175 873.825 473 862.5 473Z" fill="#00ADFB"/>
<path d="M68.5 194V194C63.2519 194 59 198.252 59 203.5V203.5C59 208.748 63.2519 213 68.5 213V213C73.7481 213 78 208.748 78 203.5V203.5C78.0051 198.252 73.7481 194 68.5 194Z" fill="#00ADFB"/>
<path opacity="0.221912" d="M109 256V256C106.238 256 104 258.238 104 261V261C104 263.762 106.238 266 109 266V266C111.762 266 114 263.762 114 261V261C114.003 258.238 111.762 256 109 256Z" fill="#00ADFB"/>
<path opacity="0.221912" d="M5 331V331C2.23784 331 0 333.238 0 336V336C0 338.762 2.23784 341 5 341V341C7.76216 341 10 338.762 10 336V336C10.0027 333.238 7.76216 331 5 331Z" fill="#00ADFB"/>
<path opacity="0.04" d="M758.5 63V63C746.07 63 736 73.0703 736 85.5V85.5C736 97.9297 746.07 108 758.5 108V108C770.93 108 781 97.9297 781 85.5V85.5C781.012 73.0703 770.93 63 758.5 63Z" fill="#00ADFB"/>
<path opacity="0.221912" d="M801 133V133C798.79 133 797 134.79 797 137V137C797 139.21 798.79 141 801 141V141C803.21 141 805 139.21 805 137V137C805.002 134.79 803.21 133 801 133Z" fill="#00ADFB"/>
<path opacity="0.221912" d="M745 552V552C742.79 552 741 553.79 741 556V556C741 558.21 742.79 560 745 560V560C747.21 560 749 558.21 749 556V556C749.002 553.79 747.21 552 745 552Z" fill="#00ADFB"/>
</svg>
