<svg width="42" height="42" viewBox="0 0 42 42" fill="none" xmlns="http://www.w3.org/2000/svg">
<rect width="41.695" height="41.695" rx="8.16867" fill="#F4F9FF"/>
<path d="M24.9043 27.9832L29.0405 25.5959V16.1587L20.8678 11.4404L16.2808 14.0887" stroke="#152ABE" stroke-width="1.5"/>
<path d="M12.6951 16.1587V25.5959L20.8678 30.3142" stroke="#152ABE" stroke-width="1.5"/>
<circle cx="20.8677" cy="11.4405" r="2.33501" fill="#F4F9FF" stroke="#00ADFB" stroke-width="1.5"/>
<path d="M19.8506 18.542C18.5626 18.5443 17.5198 19.589 17.5198 20.877C17.5198 22.1649 18.5626 23.2097 19.8506 23.212" stroke="#152ABE" stroke-width="1.5"/>
<path d="M21.5812 23.212C22.8691 23.2097 23.912 22.1649 23.912 20.877C23.912 19.589 22.8691 18.5443 21.5812 18.542" stroke="#152ABE" stroke-width="1.5"/>
<circle cx="20.8677" cy="29.8697" r="2.33501" fill="#F4F9FF" stroke="#00ADFB" stroke-width="1.5"/>
<circle cx="12.6954" cy="25.8335" r="2.33501" fill="#F4F9FF" stroke="#00ADFB" stroke-width="1.5"/>
<circle cx="28.7365" cy="25.8335" r="2.33501" fill="#F4F9FF" stroke="#00ADFB" stroke-width="1.5"/>
<circle cx="12.6954" cy="16.2808" r="2.33501" fill="#F4F9FF" stroke="#00ADFB" stroke-width="1.5"/>
<circle cx="28.7365" cy="16.2808" r="2.33501" fill="#F4F9FF" stroke="#00ADFB" stroke-width="1.5"/>
</svg>
