<svg width="42" height="42" viewBox="0 0 42 42" fill="none" xmlns="http://www.w3.org/2000/svg">
<mask id="mask0" mask-type="alpha" maskUnits="userSpaceOnUse" x="0" y="0" width="42" height="42">
<path fill-rule="evenodd" clip-rule="evenodd" d="M0 0.737305H41.6948V41.7006H0V0.737305Z" fill="white"/>
</mask>
<g mask="url(#mask0)">
<path fill-rule="evenodd" clip-rule="evenodd" d="M35.5683 41.7008H6.12626C2.74301 41.7008 -0.000488281 39.0062 -0.000488281 35.6816V6.75608C-0.000488281 3.43145 2.74301 0.736816 6.12626 0.736816H35.5683C38.9523 0.736816 41.695 3.43145 41.695 6.75608V35.6816C41.695 39.0062 38.9523 41.7008 35.5683 41.7008Z" fill="#F4F9FF"/>
</g>
<path d="M17.6393 31.7188H14.9116C13.8571 31.7188 13.0013 30.878 13.0013 29.842V12.5948C13.0013 11.5588 13.8571 10.7188 14.9116 10.7188H27.1358C28.1903 10.7188 29.0453 11.5588 29.0453 12.5948V29.842C29.0453 30.878 28.1903 31.7188 27.1358 31.7188H19.8451" stroke="#00ADFB" stroke-width="1.5"/>
<path d="M13.0016 15.5344H29.0456" stroke="#00ADFB" stroke-width="1.5"/>
<path d="M24.7014 20.0743C23.7691 19.1341 22.4664 18.5498 21.0241 18.5498C18.1884 18.5498 15.8904 20.8075 15.8904 23.5928C15.8904 26.3788 18.1884 28.6364 21.0241 28.6364C23.8591 28.6364 26.1571 26.3788 26.1571 23.5928C26.1571 22.9193 26.0229 22.2768 25.7791 21.6895" stroke="#00ADFB" stroke-width="1.5"/>
<path d="M18.1732 23.5927C18.1732 25.1401 19.449 26.3935 21.024 26.3935C22.5975 26.3935 23.8747 25.1401 23.8747 23.5927C23.8747 22.0461 22.5975 20.792 21.024 20.792C20.0205 20.792 19.1377 21.3019 18.63 22.0712" stroke="#152ABE" stroke-width="1.5"/>
<path d="M14.8561 13.1843H19.1903" stroke="#152ABE" stroke-width="1.5"/>
<path d="M22.1202 13.1843H24.1887" stroke="#152ABE" stroke-width="1.5"/>
<path d="M25.1224 13.1843H27.1917" stroke="#152ABE" stroke-width="1.5"/>
</svg>
