<svg width="42" height="42" viewBox="0 0 42 42" fill="none" xmlns="http://www.w3.org/2000/svg">
<rect width="41.695" height="41.695" rx="8.16867" fill="#F4F9FF"/>
<rect x="7.90125" y="26.8789" width="6.72965" height="4.50775" rx="1.6687" stroke="#00ADFB" stroke-width="1.5"/>
<rect x="17.4827" y="26.8789" width="6.72965" height="4.50775" rx="1.6687" stroke="#00ADFB" stroke-width="1.5"/>
<rect x="27.0641" y="26.8789" width="6.72965" height="4.50775" rx="1.6687" stroke="#00ADFB" stroke-width="1.5"/>
<path d="M21.0435 18.1338V24.8245" stroke="#152ABE" stroke-width="1.5"/>
<path d="M23.1366 21.9941H29.2068C29.5387 21.9941 29.8571 22.126 30.0918 22.3607C30.3265 22.5954 30.4583 22.9137 30.4583 23.2457V24.8248" stroke="#152ABE" stroke-width="1.5"/>
<path d="M11.2368 24.8248V23.2457C11.2368 22.9137 11.3687 22.5954 11.6034 22.3607C11.8381 22.126 12.1564 21.9941 12.4883 21.9941H20.8476" stroke="#152ABE" stroke-width="1.5"/>
<path d="M19.8659 9.96582H28.4545C29.1457 9.96582 29.7061 10.5261 29.7061 11.2173V16.6917C29.7061 17.3829 29.1457 17.9433 28.4545 17.9433H13.6325C12.9413 17.9433 12.381 17.3829 12.381 16.6917V11.2173C12.381 10.8854 12.5128 10.5671 12.7475 10.3324C12.9823 10.0977 13.3006 9.96582 13.6325 9.96582H17.5462" stroke="#00ADFB" stroke-width="1.5"/>
</svg>
