<svg width="42" height="42" viewBox="0 0 42 42" fill="none" xmlns="http://www.w3.org/2000/svg">
<mask id="mask0" mask-type="alpha" maskUnits="userSpaceOnUse" x="0" y="0" width="42" height="42">
<path fill-rule="evenodd" clip-rule="evenodd" d="M0 0.737305H41.6948V41.7003H0V0.737305Z" fill="white"/>
</mask>
<g mask="url(#mask0)">
<path fill-rule="evenodd" clip-rule="evenodd" d="M35.5685 41.7001H6.12651C2.74251 41.7001 -0.000244141 39.0054 -0.000244141 35.6816V6.75534C-0.000244141 3.43145 2.74251 0.736816 6.12651 0.736816H35.5685C38.9525 0.736816 41.6953 3.43145 41.6953 6.75534V35.6816C41.6953 39.0054 38.9525 41.7001 35.5685 41.7001Z" fill="#F4F9FF"/>
</g>
<path d="M18.2877 27.2929H19.9992H23.858C24.722 27.2929 25.4232 26.604 25.4232 25.7552C25.4232 24.9056 24.722 24.2166 23.858 24.2166H22.604C21.257 24.2166 19.9197 24.3544 18.8187 23.5925C16.331 21.8691 14.3135 21.8285 12.5007 21.9752C11.1867 22.0827 9.64771 22.1513 9.64771 22.1513" stroke="#00ADFB" stroke-width="1.5"/>
<path d="M26.2617 29.7109L24.0567 31.2185C22.7172 32.1337 21.0027 32.3363 19.4809 31.7594L13.2574 28.711C11.8459 28.1341 11.5129 27.8379 9.98444 27.8379H9.64844" stroke="#00ADFB" stroke-width="1.5"/>
<path d="M25.4231 25.0048L30.2216 23.6409C30.7526 23.5002 31.3188 23.6674 31.6833 24.0712C32.2706 24.7233 32.1296 25.735 31.3863 26.2088L27.5613 28.7855" stroke="#00ADFB" stroke-width="1.5"/>
<path d="M12.9595 12.7092H26.5255" stroke="#00ADFB" stroke-width="1.5"/>
<path d="M22.33 19.8146H14.5435C13.669 19.8146 12.9595 19.1183 12.9595 18.2591V11.17C12.9595 10.3108 13.669 9.61377 14.5435 9.61377H27.1517C28.0262 9.61377 28.735 10.3108 28.735 11.17V18.2591C28.735 19.1183 28.0262 19.8146 27.1517 19.8146H23.9875" stroke="#152ABE" stroke-width="1.5"/>
<path d="M14.9773 17.5305H17.846" stroke="#00ADFB" stroke-width="1.5"/>
</svg>
