<svg width="42" height="42" viewBox="0 0 42 42" fill="none" xmlns="http://www.w3.org/2000/svg">
<mask id="mask0" mask-type="alpha" maskUnits="userSpaceOnUse" x="0" y="0" width="42" height="42">
<path fill-rule="evenodd" clip-rule="evenodd" d="M0.000244141 0H41.9999V41.9999H0.000244141V0Z" fill="white"/>
</mask>
<g mask="url(#mask0)">
<path fill-rule="evenodd" clip-rule="evenodd" d="M35.8282 42H6.17124C2.76324 42 0.000244141 39.237 0.000244141 35.829V6.171C0.000244141 2.763 2.76324 0 6.17124 0H35.8282C39.2372 0 42.0002 2.763 42.0002 6.171V35.829C42.0002 39.237 39.2372 42 35.8282 42Z" fill="#F4F9FF"/>
</g>
<path fill-rule="evenodd" clip-rule="evenodd" d="M24.6524 22.5576H6.49939V11.2476C6.49939 10.4086 7.17939 9.72656 8.02039 9.72656H23.1314C23.9704 9.72656 24.6524 10.4086 24.6524 11.2476V22.5576Z" stroke="#00ADFB" stroke-width="1.5"/>
<path d="M16.8389 19.324H11.3459C10.9029 19.324 10.5449 18.966 10.5449 18.524V13.761C10.5449 13.318 10.9029 12.96 11.3459 12.96H19.8049C20.2469 12.96 20.6059 13.318 20.6059 13.761V15.189V16.863V18.524C20.6059 18.966 20.2469 19.324 19.8049 19.324H18.3529" stroke="#152ABE" stroke-width="1.5"/>
<path d="M6.49915 25.2081V22.5581" stroke="#00ADFB" stroke-width="1.5"/>
<path d="M11.2706 29.2314H8.0726C7.2036 29.2314 6.4996 28.5274 6.4996 27.6584V27.2944H4.5376" stroke="#00ADFB" stroke-width="1.5"/>
<path d="M26.5763 29.2314H17.4103" stroke="#00ADFB" stroke-width="1.5"/>
<path d="M24.6525 16.4004H30.0805C30.5275 16.4004 30.9585 16.5674 31.2895 16.8674L34.6345 19.8984C35.1865 20.3984 35.5015 21.1084 35.5015 21.8524V27.7094C35.5015 28.5494 34.8195 29.2314 33.9795 29.2314H32.7155" stroke="#00ADFB" stroke-width="1.5"/>
<path fill-rule="evenodd" clip-rule="evenodd" d="M17.4103 29.2316C17.4103 27.5366 16.0353 26.1626 14.3403 26.1626C12.6443 26.1626 11.2703 27.5366 11.2703 29.2316C11.2703 30.9266 12.6443 32.3006 14.3403 32.3006C16.0353 32.3006 17.4103 30.9266 17.4103 29.2316Z" stroke="#00ADFB" stroke-width="1.5"/>
<path fill-rule="evenodd" clip-rule="evenodd" d="M32.7149 29.2316C32.7149 27.5366 31.3409 26.1626 29.6459 26.1626C27.9499 26.1626 26.5759 27.5366 26.5759 29.2316C26.5759 30.9266 27.9499 32.3006 29.6459 32.3006C31.3409 32.3006 32.7149 30.9266 32.7149 29.2316Z" stroke="#00ADFB" stroke-width="1.5"/>
<path d="M24.6525 22.5576H35.5015" stroke="#00ADFB" stroke-width="1.5"/>
<path d="M23.4601 25.6475H26.2121" stroke="#00ADFB" stroke-width="1.5"/>
<path d="M28.3077 17.9854L31.5497 21.0004" stroke="#152ABE" stroke-width="1.5"/>
<path d="M26.2765 19.2031L28.1455 20.8451" stroke="#152ABE" stroke-width="1.5"/>
</svg>
