<svg width="42" height="42" viewBox="0 0 42 42" fill="none" xmlns="http://www.w3.org/2000/svg">
<path fill-rule="evenodd" clip-rule="evenodd" d="M35.5682 41.7008H6.12624C2.74299 41.7008 0.000244141 39.0062 0.000244141 35.6816V6.75608C0.000244141 3.43145 2.74299 0.736816 6.12624 0.736816H35.5682C38.9522 0.736816 41.695 3.43145 41.695 6.75608V35.6816C41.695 39.0062 38.9522 41.7008 35.5682 41.7008Z" fill="#F4F9FF"/>
<path d="M23.3335 7.85059V12.9915H28.2145" stroke="#00ADFB" stroke-width="1.5"/>
<path d="M18.8899 12.9915H20.8474" stroke="#152ABE" stroke-width="1.5"/>
<path d="M19.3213 30.9425H12.0643C11.534 30.9425 11.1035 30.5195 11.1035 29.9986V8.79448C11.1035 8.2728 11.534 7.85059 12.0643 7.85059H23.5535L28.214 12.7174V20.1418" stroke="#152ABE" stroke-width="1.5"/>
<path d="M13.3997 16.0584H25.2857" stroke="#00ADFB" stroke-width="1.5"/>
<path d="M13.3997 19.3963H25.2857" stroke="#00ADFB" stroke-width="1.5"/>
<path d="M13.3997 22.7581H17.0927" stroke="#00ADFB" stroke-width="1.5"/>
<path d="M17.0924 12.9915H13.3994" stroke="#152ABE" stroke-width="1.5"/>
<path d="M19.6589 24.0361L27.2287 28.5331L34.7977 24.0361" stroke="#00ADFB" stroke-width="1.5"/>
<path d="M29.2449 33.3814H20.9882C20.2547 33.3814 19.6592 32.7963 19.6592 32.0757V24.064C19.6592 23.3426 20.2547 22.7583 20.9882 22.7583H33.4682C34.2017 22.7583 34.7972 23.3426 34.7972 24.064V32.0757C34.7972 32.7963 34.2017 33.3814 33.4682 33.3814H31.3352" stroke="#00ADFB" stroke-width="1.5"/>
<path d="M21.8936 30.9021H25.0653" stroke="#152ABE" stroke-width="1.5"/>
</svg>
