<svg width="12" height="7" viewBox="0 0 12 7" fill="none" xmlns="http://www.w3.org/2000/svg">
<path d="M11.7071 1.70698C12.0976 1.31646 12.0976 0.683295 11.7071 0.292771C11.3166 -0.0977532 10.6834 -0.0977532 10.2929 0.292771L11.7071 1.70698ZM6 5.99988L5.29289 6.70698C5.68342 7.09751 6.31658 7.09751 6.70711 6.70698L6 5.99988ZM1.70711 0.292771C1.31658 -0.0977532 0.683417 -0.0977532 0.292893 0.292771C-0.0976311 0.683295 -0.0976311 1.31646 0.292893 1.70698L1.70711 0.292771ZM10.2929 0.292771L5.29289 5.29277L6.70711 6.70698L11.7071 1.70698L10.2929 0.292771ZM6.70711 5.29277L1.70711 0.292771L0.292893 1.70698L5.29289 6.70698L6.70711 5.29277Z" fill="#7A8399"/>
</svg>
