<svg width="42" height="42" viewBox="0 0 42 42" fill="none" xmlns="http://www.w3.org/2000/svg">
<rect width="41.695" height="41.695" rx="8.16867" fill="#F4F9FF"/>
<path d="M30.5149 23.1801C29.1011 26.598 26.5749 29.4385 23.3454 31.2416L22.1541 31.9068C21.342 32.3604 20.3528 32.3604 19.5407 31.9068L18.3494 31.2416C13.1525 28.3395 9.93237 22.8529 9.93237 16.9006V11.7452C9.93238 10.2873 11.1142 9.10547 12.5721 9.10547H29.1227C30.5806 9.10547 31.7624 10.2873 31.7624 11.7452V16.9006C31.7626 17.9841 31.6555 19.065 31.4428 20.1274" stroke="#00ADFB" stroke-width="1.5"/>
<path d="M17.9727 19.5701L19.6639 21.2614L23.7222 17.2031" stroke="#00ADFB" stroke-width="1.5"/>
<path d="M15.59 22.5897C17.3613 25.356 20.981 26.2634 23.8477 24.6598C26.7144 23.0562 27.8355 19.4968 26.4052 16.5398C24.9749 13.5828 21.4886 12.252 18.4517 13.5039C15.4149 14.7558 13.8791 18.1568 14.9482 21.2627" stroke="#152ABE" stroke-width="1.5"/>
</svg>
