<svg width="22" height="17" viewBox="0 0 22 17" fill="none" xmlns="http://www.w3.org/2000/svg">
<path d="M18.9645 4.54538C18.9736 4.72105 18.9777 4.90705 18.9777 5.09305C18.9753 8.27486 17.7155 11.3228 15.4803 13.5545C13.2451 15.7861 10.2213 17.015 7.08578 16.966C4.81972 16.9682 2.5993 16.3198 0.68103 15.0957C1.0059 15.1267 1.33994 15.1474 1.67703 15.1474C3.55546 15.1504 5.38193 14.5217 6.8709 13.3597C5.0924 13.3347 3.52477 12.1692 2.96531 10.456C3.22374 10.5097 3.48673 10.5374 3.7505 10.5387C4.12238 10.5383 4.49269 10.4897 4.85242 10.394C2.91691 10.0142 1.51386 8.30226 1.49881 6.30205C1.49694 6.28488 1.49694 6.26755 1.49881 6.25038C2.08101 6.57045 2.72912 6.74742 3.39101 6.76705C2.23336 6.00257 1.53461 4.69652 1.53344 3.29505C1.53177 2.55701 1.72671 1.83224 2.09763 1.19738C4.23913 3.81169 7.36388 5.39379 10.7103 5.55805C10.6417 5.24597 10.6075 4.92712 10.6084 4.60738C10.6269 2.28535 12.4954 0.417243 14.7839 0.432713C15.9342 0.429703 17.0357 0.903795 17.833 1.74505C18.7693 1.56547 19.6679 1.22286 20.489 0.732379C20.1761 1.70465 19.5243 2.52767 18.6559 3.04705C19.4831 2.94593 20.2913 2.72315 21.0552 2.38571C20.4911 3.22663 19.783 3.95809 18.9645 4.54538Z" fill="#1B263D"/>
</svg>
