<svg width="22" height="23" viewBox="0 0 22 23" fill="none" xmlns="http://www.w3.org/2000/svg">
<path fill-rule="evenodd" clip-rule="evenodd" d="M6.61958 0.365723H15.7852C19.1599 0.365723 21.8957 3.14156 21.8957 6.56572V15.8657C21.8957 19.2899 19.1599 22.0657 15.7852 22.0657H6.61958C3.24489 22.0657 0.509155 19.2899 0.509155 15.8657V6.56572C0.509155 3.14156 3.24489 0.365723 6.61958 0.365723ZM6.61959 2.43239H15.7852C18.035 2.43239 19.8588 4.28295 19.8588 6.56572V15.8657C19.8588 18.1485 18.035 19.9991 15.7852 19.9991H6.61959C4.36979 19.9991 2.54597 18.1485 2.54597 15.8657V6.56572C2.54597 4.28295 4.36979 2.43239 6.61959 2.43239ZM16.8036 11.2157C16.8036 8.0769 14.2959 5.53239 11.2024 5.53239C8.15358 5.63916 5.7064 8.12221 5.60118 11.2157C5.60118 14.3545 8.10893 16.8991 11.2024 16.8991C14.2959 16.8991 16.8036 14.3545 16.8036 11.2157ZM11.2839 7.59906C12.208 7.59851 13.0944 7.9706 13.748 8.63341C14.4016 9.29622 14.7689 10.1954 14.7689 11.1331C14.7128 13.1427 13.1189 14.7577 11.1382 14.8117C10.2143 14.8123 9.32793 14.4401 8.67448 13.7773C8.02102 13.1145 7.65401 12.2153 7.65428 11.2777C7.71081 9.26869 9.30381 7.65416 11.2839 7.59906ZM17.822 5.53239C17.822 4.96169 17.3661 4.49906 16.8036 4.49906C16.2412 4.49906 15.7852 4.96169 15.7852 5.53239C15.7852 6.10308 16.2412 6.56572 16.8036 6.56572C17.3661 6.56572 17.822 6.10308 17.822 5.53239Z" fill="#1B263D"/>
</svg>
