<svg xmlns="http://www.w3.org/2000/svg" width="171px" height="31px" viewBox="0 0 171 31">
    <path fill="#204199" d="M40.548,9.209h2.129l2.896,7.851l3.014-7.102h0.403l3.131,7.121l2.829-7.871h2.148l-4.469,12.587h-0.419
                        	l-3.443-7.479l-3.366,7.479h-0.414L40.548,9.209z M74.545,19.261c0.224,0.968,0.696,1.711,1.419,2.23
                        	c0.721,0.519,1.647,0.779,2.777,0.779c1.348,0,2.417-0.37,3.208-1.109c0.792-0.74,1.188-1.739,1.188-2.996
                        	c0-0.863-0.245-1.36-0.735-1.938c-0.489-0.577-1.389-1.167-2.7-1.771c-0.066-0.028-0.157-0.073-0.271-0.125
                        	c-1.5-0.689-2.23-1.277-2.23-2.074c0-0.507,0.171-0.912,0.514-1.215c0.341-0.302,0.801-0.452,1.382-0.452
                        	c0.411,0,0.774,0.097,1.091,0.291c0.318,0.193,0.609,0.496,0.875,0.914l1.686-0.871c-0.254-0.707-0.708-1.247-1.367-1.626
                        	c-0.659-0.377-1.478-0.566-2.457-0.566c-1.192,0-2.152,0.336-2.887,1.007c-0.734,0.67-1.102,1.546-1.102,2.627
                        	c0,0.835,0.225,1.384,0.711,1.959c0.486,0.578,1.461,1.223,2.923,1.937c0.098,0.043,0.236,0.107,0.417,0.198
                        	c1.293,0.613,1.939,1.082,1.939,1.861c0,0.598-0.188,1.075-0.566,1.432c-0.378,0.357-0.887,0.536-1.528,0.536
                        	c-0.676,0-1.231-0.156-1.666-0.469c-0.436-0.31-0.734-0.762-0.896-1.354L74.545,19.261 M90.688,21.797v-4.022h6.525v4.022h2.156
                        	V9.209h-2.156v6.635h-6.525V9.209H88.53v12.587H90.688z M111.027,21.797v-1.933h-3.419v-2.466h3.419v-1.896h-3.419v-4.463h3.062
                        	l0.357-1.83h-5.576v12.587H111.027z M119.164,21.797v-8.186l8.322,8.186h0.482V9.209h-1.993v8.159l-8.304-8.159h-0.494v12.587
                        	H119.164z M157.14,15.499c0-0.889-0.168-1.734-0.505-2.535c-0.335-0.801-0.824-1.52-1.467-2.157
                        	c-0.644-0.625-1.371-1.101-2.185-1.429c-0.81-0.327-1.671-0.491-2.577-0.491c-0.914,0-1.777,0.165-2.592,0.491
                        	c-0.815,0.328-1.545,0.804-2.188,1.429c-0.643,0.632-1.132,1.347-1.464,2.145c-0.333,0.798-0.499,1.647-0.499,2.547
                        	c0,0.91,0.166,1.757,0.499,2.55c0.332,0.792,0.821,1.502,1.464,2.128c0.631,0.618,1.359,1.096,2.184,1.433
                        	c0.822,0.335,1.688,0.504,2.596,0.504c0.895,0,1.75-0.167,2.565-0.5c0.814-0.333,1.548-0.812,2.196-1.437
                        	c0.643-0.626,1.132-1.338,1.467-2.137C156.972,17.243,157.14,16.396,157.14,15.499 M155.005,15.499c0,0.633-0.117,1.235-0.351,1.805
                        	c-0.231,0.57-0.565,1.081-1.002,1.528c-0.441,0.447-0.94,0.789-1.493,1.025c-0.555,0.236-1.14,0.352-1.753,0.352
                        	c-0.626,0-1.217-0.115-1.774-0.352c-0.557-0.236-1.054-0.578-1.489-1.025c-0.437-0.447-0.77-0.956-0.999-1.524
                        	s-0.344-1.172-0.344-1.809c0-0.641,0.114-1.25,0.344-1.826c0.229-0.573,0.563-1.079,0.999-1.523
                        	c0.436-0.447,0.934-0.789,1.494-1.025c0.559-0.234,1.149-0.351,1.77-0.351c0.619,0,1.21,0.119,1.77,0.357
                        	c0.56,0.237,1.051,0.578,1.477,1.02c0.437,0.448,0.771,0.958,1.002,1.534C154.888,14.255,155.005,14.862,155.005,15.499
                        	 M166.433,21.797v-5.39L171,9.209h-2.157l-3.417,5.307l-3.336-5.307h-2.266l4.47,7.198v5.39H166.433z M68,19.772h-5.922
                        	l-0.888,2.024h-2.267L64.787,9.21h0.516l5.852,12.587h-2.276L68,19.772z M67.222,17.978l-2.167-4.999l-2.191,4.999H67.222z
                        	 M132.563,20.771c0.418,0.472,0.859,0.818,1.328,1.043c0.468,0.223,0.992,0.335,1.572,0.335c1.051,0,1.825-0.264,2.32-0.793
                        	c0.495-0.528,0.743-1.354,0.743-2.478V9.209h-2.138v8.97c0,0.755-0.086,1.272-0.261,1.55c-0.169,0.278-0.469,0.416-0.892,0.416
                        	c-0.229,0-0.447-0.059-0.652-0.18c-0.205-0.12-0.42-0.314-0.645-0.581L132.563,20.771z"/>
    <path fill="#F06479" d="M14.855,15.818c0.258,0.131,0.525,0.245,0.8,0.336c0.99,0.331,2.065,0.503,3.108,0.41
                        	c0.588-0.052,1.236-0.162,1.792-0.37c0.894-0.335,1.722-0.806,2.514-1.338c0.228-0.153,0.453-0.312,0.675-0.474
                        	c0.426-0.31,0.841-0.635,1.257-0.958c-0.041-0.197-0.076-0.397-0.112-0.602c-0.158-0.919-0.247-1.847-0.38-2.769
                        	c-0.144-0.99-0.326-2.003-0.784-2.902c-0.423-0.831-1.129-1.593-1.894-2.126c-1.737-1.211-4.206-1.104-5.9,0.131
                        	c-0.767,0.559-1.362,1.327-1.858,2.133c-0.238,0.386-0.455,0.784-0.656,1.19c-0.691,1.393-1.241,2.823-1.876,4.239
                        	c0.211,0.395,0.472,0.791,0.836,1.195C13.064,14.679,13.938,15.353,14.855,15.818"/>
    <path fill="#79C5ED" d="M1.656,16.352c0.659,0.59,1.456,1.037,2.315,1.254c0.093,0.023,0.188,0.044,0.284,0.063
                        	c0.155,0.029,0.312,0.052,0.468,0.067c0.701,0.071,1.429,0.04,2.108-0.159c0.909-0.268,1.72-0.762,2.418-1.397
                        	c1.021-0.928,1.702-2.154,2.262-3.397c0.009-0.02,0.018-0.041,0.027-0.062c-0.472-0.879-0.697-1.75-1.267-2.677
                        	C9.184,8.271,7.085,7.277,4.935,7.567C3.691,7.735,2.631,8.271,1.783,9.03c-0.23,0.207-0.444,0.452-0.632,0.697
                        	C0.8,10.181,0.54,10.703,0.348,11.243c-0.091,0.253-0.164,0.513-0.22,0.777c-0.075,0.354-0.107,0.717-0.122,1.078
                        	C0,13.263-0.002,13.429,0.002,13.594c0.002,0.089,0.007,0.178,0.013,0.268c0.003,0.017,0.006,0.034,0.01,0.052
                        	c0.083,0.201,0.172,0.391,0.283,0.615C0.646,15.206,1.09,15.843,1.656,16.352"/>
    <path fill="#79C5ED" d="M26.537,16.147c0.813,0.587,1.84,0.983,2.848,0.901c0.288-0.023,0.59-0.068,0.869-0.146
                        	c0.146-0.041,0.29-0.093,0.433-0.146c0.177-1.07,0.04-2.159-0.809-3.095c-1.163-1.282-3.147-1.571-4.528-0.507
                        	c-0.116,0.09-0.232,0.18-0.348,0.27c0.115,0.561,0.27,1.09,0.57,1.612C25.817,15.463,26.136,15.859,26.537,16.147"/>
    <path fill="#204199" d="M30.254,16.903c-0.279,0.077-0.581,0.122-0.869,0.146c-1.009,0.083-2.034-0.314-2.849-0.901
                        	c-0.401-0.289-0.72-0.684-0.965-1.111c-0.3-0.522-0.455-1.051-0.57-1.612c-0.416,0.324-0.831,0.647-1.257,0.958
                        	c-0.222,0.163-0.447,0.321-0.675,0.474c-0.792,0.532-1.62,1.003-2.514,1.337c-0.556,0.209-1.204,0.319-1.792,0.372
                        	c-1.043,0.092-2.118-0.08-3.108-0.41c-0.275-0.092-0.542-0.205-0.8-0.336c-0.917-0.466-1.792-1.14-2.479-1.903
                        	c-0.364-0.404-0.625-0.8-0.836-1.195c-0.01,0.02-0.018,0.041-0.027,0.062c-0.561,1.243-1.242,2.468-2.262,3.396
                        	c-0.699,0.635-1.509,1.131-2.418,1.397c-0.679,0.199-1.407,0.229-2.108,0.159c-0.156-0.016-0.313-0.038-0.468-0.067
                        	c-0.096-0.019-0.19-0.039-0.284-0.063c-0.86-0.218-1.657-0.663-2.315-1.254c-0.566-0.508-1.01-1.145-1.347-1.824
                        	c-0.111-0.224-0.201-0.414-0.284-0.615c1.468,7.363,7.966,12.914,15.762,12.914c0.48,0,0.956-0.019,1.425-0.067
                        	c1.75-0.178,2.48-0.393,3.47-0.695c4.549-1.453,8.215-4.876,9.999-9.267c0.002-0.014,0.004-0.027,0.007-0.041
                        	C30.543,16.811,30.399,16.862,30.254,16.903"/>
</svg>