<svg width="140" height="36" viewBox="0 0 140 36" fill="none" xmlns="http://www.w3.org/2000/svg">
<path d="M25.6219 2.71454C23.9776 0.814565 21.0053 2.29159e-07 17.203 2.29159e-07H6.16741C5.79101 -0.000203766 5.42689 0.135794 5.14059 0.383514C4.85428 0.631235 4.66459 0.974411 4.60563 1.3513L0.012632 30.8975C-0.00866503 31.0346 -0.000398897 31.1747 0.0368614 31.3082C0.0741218 31.4417 0.139491 31.5655 0.228464 31.6709C0.317437 31.7764 0.427899 31.861 0.552241 31.919C0.676582 31.977 0.811848 32.0069 0.948717 32.0068H7.7616L9.47268 21.0043L9.41964 21.3488C9.47746 20.9727 9.66589 20.6299 9.95098 20.3821C10.2361 20.1344 10.5991 19.998 10.9745 19.9975H14.212C20.5721 19.9975 25.5521 17.3786 27.0068 9.80261C27.0501 9.57856 27.0874 9.36048 27.1198 9.14738C27.552 6.3472 27.1168 4.44125 25.6228 2.71554" fill="#003087"/>
<path fill-rule="evenodd" clip-rule="evenodd" d="M100.529 9.54079H108.148L108.149 9.53979C110.698 9.53979 112.618 10.2229 113.701 11.5135C114.686 12.6875 115.014 14.3645 114.673 16.4975C113.916 21.3778 111.021 23.8385 106.001 23.8385H103.591C103.07 23.8385 102.626 24.2238 102.546 24.7446L101.672 30.3609C101.615 30.7254 101.304 30.9942 100.94 30.9942H97.0305C96.9389 30.9941 96.8483 30.9738 96.7651 30.9348C96.6819 30.8958 96.608 30.8391 96.5485 30.7684C96.489 30.6977 96.4452 30.6148 96.4203 30.5254C96.3953 30.436 96.3897 30.3422 96.4039 30.2504L99.4822 10.447C99.522 10.1944 99.6492 9.96437 99.8411 9.79829C100.033 9.63221 100.277 9.54092 100.529 9.54079ZM104.503 19.5466C106.522 19.5466 108.61 19.5466 109.027 16.7743C109.178 15.8014 109.057 15.0964 108.657 14.6214C107.988 13.8277 106.689 13.8277 105.314 13.8277H104.786C104.474 13.8277 104.209 14.0578 104.16 14.3704L103.353 19.5466H104.503Z" fill="#009CDE"/>
<path fill-rule="evenodd" clip-rule="evenodd" d="M46.1912 9.54054H53.8095L53.8105 9.53955C56.3594 9.53955 58.2797 10.2226 59.3632 11.5132C60.3484 12.6872 60.6754 14.3641 60.3346 16.4971C59.5783 21.3775 56.6826 23.8391 51.6633 23.8391H49.2529C48.7323 23.8391 48.2883 24.2235 48.2077 24.7453L47.3758 30.0878C47.2942 30.6096 46.8512 30.9939 46.3307 30.9939H42.6924C42.6007 30.9939 42.5101 30.9738 42.4268 30.9348C42.3435 30.8959 42.2695 30.8391 42.21 30.7684C42.1504 30.6977 42.1067 30.6148 42.0818 30.5253C42.0569 30.4358 42.0514 30.3419 42.0657 30.2501L45.1451 10.4467C45.2266 9.92492 45.6706 9.54054 46.1912 9.54054ZM50.1634 19.5463C52.1839 19.5463 54.2722 19.5463 54.6886 16.774C54.8399 15.8011 54.7191 15.0961 54.3183 14.6211C53.6484 13.8274 52.3499 13.8274 50.9747 13.8274H50.4473C50.1349 13.8274 49.8697 14.0574 49.8206 14.3701L49.0142 19.5463H50.1634ZM71.4969 23.884C71.1433 25.997 69.4902 27.416 67.3793 27.416C66.3214 27.416 65.4737 27.0705 64.9296 26.4173C64.3893 25.77 64.187 24.8469 64.3579 23.8202C64.686 21.7251 66.3676 20.2612 68.446 20.2612C69.4823 20.2612 70.3221 20.6098 70.8781 21.269C71.437 21.9332 71.657 22.8613 71.4969 23.884ZM72.9329 16.6844H76.581L76.58 16.6853C76.672 16.6852 76.7626 16.7053 76.8461 16.7442C76.9296 16.783 77.0037 16.8397 77.0634 16.9104C77.1232 16.9811 77.1671 17.0641 77.1922 17.1537C77.2173 17.2432 77.2229 17.3372 77.2087 17.4292L75.2364 30.0888C75.1549 30.6115 74.7108 30.9949 74.1903 30.9949H70.9056C70.8138 30.9951 70.7232 30.975 70.6396 30.9361C70.5562 30.8973 70.4821 30.8405 70.4226 30.7698C70.3629 30.6991 70.319 30.6161 70.294 30.5265C70.2691 30.437 70.2636 30.343 70.278 30.2511L70.441 29.2234C70.441 29.2234 68.6395 31.3385 65.3902 31.3385C63.4974 31.3385 61.9091 30.7858 60.7963 29.4584C59.5842 28.0135 59.0891 25.9433 59.4378 23.7754C60.1077 19.4337 63.5505 16.3368 67.5807 16.3368C69.3389 16.3368 71.1001 16.7262 71.8898 17.8883L72.1452 18.2627L72.3043 17.2291C72.3277 17.0772 72.404 16.9388 72.5193 16.8389C72.6346 16.739 72.7813 16.6842 72.9329 16.6844Z" fill="#003087"/>
<path fill-rule="evenodd" clip-rule="evenodd" d="M127.271 16.6843H130.919L130.918 16.6853C131.01 16.6851 131.101 16.7052 131.184 16.7441C131.268 16.7829 131.342 16.8397 131.402 16.9103C131.461 16.981 131.505 17.064 131.53 17.1536C131.555 17.2431 131.561 17.3371 131.547 17.4291L129.574 30.0887C129.492 30.6114 129.048 30.9948 128.527 30.9948H125.244C125.152 30.995 125.061 30.975 124.978 30.9361C124.895 30.8972 124.821 30.8404 124.761 30.7696C124.702 30.6989 124.658 30.6158 124.633 30.5263C124.609 30.4367 124.603 30.3428 124.618 30.251L124.781 29.2233C124.781 29.2233 122.98 31.3384 119.729 31.3384C117.837 31.3384 116.248 30.7857 115.135 29.4583C113.923 28.0134 113.427 25.9432 113.776 23.7753C114.447 19.4336 117.89 16.3367 121.919 16.3367C123.677 16.3367 125.438 16.7261 126.228 17.8882L126.483 18.2626L126.642 17.229C126.666 17.0771 126.742 16.9387 126.857 16.8388C126.973 16.7389 127.119 16.6841 127.271 16.6843ZM121.717 27.4159C123.828 27.4159 125.481 25.9969 125.835 23.8839C125.995 22.8612 125.775 21.9331 125.216 21.2689C124.66 20.6097 123.82 20.2612 122.784 20.2612C120.705 20.2612 119.024 21.725 118.696 23.8201C118.525 24.8468 118.727 25.7699 119.268 26.4172C119.812 27.0704 120.66 27.4159 121.717 27.4159Z" fill="#009CDE"/>
<path d="M96.011 16.6855H92.3432C91.9926 16.6855 91.6655 16.8618 91.469 17.1566L86.4104 24.7087L84.2662 17.4513C84.2008 17.23 84.0667 17.0358 83.884 16.8977C83.7012 16.7596 83.4795 16.6849 83.2515 16.6846H79.6477C79.5466 16.6846 79.447 16.7091 79.3572 16.756C79.2673 16.8028 79.1898 16.8708 79.131 16.9541C79.0722 17.0375 79.0339 17.1338 79.0192 17.2352C79.0045 17.3365 79.0139 17.44 79.0465 17.537L83.0836 29.5522L79.2862 34.9843C79.2191 35.0807 79.1794 35.194 79.1714 35.3117C79.1635 35.4294 79.1876 35.5471 79.2411 35.6519C79.2946 35.7567 79.3755 35.8446 79.4749 35.906C79.5743 35.9674 79.6884 35.9999 79.8048 36H83.4686C83.8144 36 84.1395 35.8277 84.3379 35.5389L96.5315 17.6963C96.5978 17.5998 96.6366 17.4868 96.644 17.3696C96.6513 17.2523 96.6268 17.1352 96.5732 17.0311C96.5195 16.9269 96.4388 16.8396 96.3397 16.7787C96.2405 16.7178 96.1269 16.6856 96.011 16.6855Z" fill="#003087"/>
<path d="M135.218 10.0855L132.091 30.2514C132.077 30.3432 132.082 30.4372 132.107 30.5266C132.132 30.6161 132.176 30.6991 132.236 30.7697C132.295 30.8404 132.37 30.8972 132.453 30.9361C132.536 30.975 132.627 30.9952 132.719 30.9952H135.863C136.383 30.9952 136.827 30.6108 136.909 30.089L139.992 10.2847C140.006 10.1927 140.001 10.0988 139.976 10.0092C139.951 9.91961 139.907 9.83661 139.848 9.76589C139.788 9.69517 139.714 9.63842 139.63 9.59956C139.547 9.56069 139.456 9.54063 139.364 9.54077H135.846C135.695 9.54038 135.548 9.595 135.433 9.69475C135.318 9.79449 135.242 9.93275 135.218 10.0845" fill="#009CDE"/>
<path d="M25.6219 2.71454C23.9776 0.814565 21.0053 2.29159e-07 17.203 2.29159e-07H6.16741C5.79101 -0.000203766 5.42689 0.135794 5.14059 0.383514C4.85428 0.631235 4.66459 0.974411 4.60563 1.3513L0.012632 30.8975C-0.00866503 31.0346 -0.000398897 31.1747 0.0368614 31.3082C0.0741218 31.4417 0.139491 31.5655 0.228464 31.6709C0.317437 31.7764 0.427899 31.861 0.552241 31.919C0.676582 31.977 0.811848 32.0069 0.948717 32.0068H7.7616L9.47268 21.0043L9.41964 21.3488C9.47746 20.9727 9.66589 20.6299 9.95098 20.3821C10.2361 20.1344 10.5991 19.998 10.9745 19.9975H14.212C20.5721 19.9975 25.5521 17.3786 27.0068 9.80261C27.0501 9.57856 27.0874 9.36048 27.1198 9.14738C27.552 6.3472 27.1168 4.44125 25.6228 2.71554" fill="#003087"/>
<path d="M11.3105 9.1842C11.3621 8.85489 11.5278 8.55501 11.7779 8.33838C12.0279 8.12175 12.346 8.00256 12.6749 8.00219H21.3265C22.351 8.00219 23.3067 8.0699 24.18 8.2113C24.6574 8.28917 25.1297 8.39625 25.5944 8.53195C26.1221 8.68236 26.6327 8.88863 27.1179 9.14735C27.552 6.34618 27.1159 4.44123 25.6219 2.71452C23.9766 0.815538 21.0053 0.000976562 17.203 0.000976562H6.16647C5.79041 0.0012479 5.42676 0.137456 5.14086 0.385135C4.85497 0.632814 4.66555 0.975729 4.60666 1.35227L0.0116886 30.8955C-0.00975261 31.0326 -0.0016277 31.1727 0.035504 31.3063C0.0726357 31.4399 0.137891 31.5637 0.226773 31.6692C0.315655 31.7748 0.426051 31.8595 0.550353 31.9176C0.674655 31.9757 0.809908 32.0058 0.946791 32.0059H7.76066L9.47174 21.0023L11.3105 9.1842Z" fill="#003087"/>
<path d="M27.119 9.14648C27.0852 9.36557 27.0476 9.58402 27.006 9.80171C25.5513 17.3767 20.5713 19.9967 14.2112 19.9967H10.9727C10.5973 19.9969 10.2343 20.1333 9.94933 20.3811C9.66437 20.6289 9.47619 20.9718 9.41877 21.348L7.76073 32.005L7.28925 35.0282C7.27051 35.1482 7.27766 35.2709 7.31021 35.3879C7.34276 35.5048 7.39994 35.6133 7.47781 35.7056C7.55568 35.798 7.65239 35.8722 7.76126 35.923C7.87013 35.9739 7.98858 36.0002 8.10845 36.0001H13.8517C14.5314 36.0001 15.109 35.4982 15.2161 34.8181L15.272 34.5213L16.3545 27.5667L16.4232 27.1823C16.4747 26.8528 16.6405 26.5526 16.8908 26.336C17.1411 26.1193 17.4594 26.0003 17.7886 26.0003H18.648C24.2115 26.0003 28.5678 23.71 29.8408 17.082C30.3712 14.3137 30.0962 12.0004 28.6915 10.3763C28.2455 9.87275 27.7126 9.45598 27.119 9.14648Z" fill="#009CDE"/>
<path d="M25.5954 8.53174C25.3734 8.46502 25.1445 8.40528 24.9088 8.3525C24.673 8.29972 24.4294 8.25292 24.18 8.21309C23.3058 8.0687 22.351 8.00098 21.3255 8.00098H12.6749C12.3456 8.00057 12.027 8.11962 11.7768 8.33659C11.5266 8.55357 11.3612 8.85415 11.3105 9.18399L9.47174 21.0041L9.4187 21.3477C9.47612 20.9715 9.6643 20.6286 9.94926 20.3808C10.2342 20.133 10.5972 19.9966 10.9726 19.9964H14.2111C20.5712 19.9964 25.5512 17.3774 27.0059 9.80138C27.0491 9.57732 27.0854 9.36024 27.1188 9.14615C26.7347 8.94236 26.3345 8.77116 25.9225 8.63431C25.8154 8.59846 25.7064 8.5646 25.5954 8.53075" fill="#012169"/>
</svg>
