<?xml version="1.0" encoding="utf-8"?>
<!-- Generator: Adobe Illustrator 16.0.0, SVG Export Plug-In . SVG Version: 6.00 Build 0)  -->
<!DOCTYPE svg PUBLIC "-//W3C//DTD SVG 1.1//EN" "http://www.w3.org/Graphics/SVG/1.1/DTD/svg11.dtd">
<svg version="1.1" id="Layer_1" xmlns="http://www.w3.org/2000/svg" xmlns:xlink="http://www.w3.org/1999/xlink" x="0px" y="0px"
	 width="455.333px" height="167.667px" viewBox="0 0 455.333 167.667" enable-background="new 0 0 455.333 167.667"
	 xml:space="preserve">
<path fill="#8BB14C" d="M65.032,24.42c-5.416,0-10.529,0.901-15.642,2.407c9.025-0.602,15.042,3.308,17.749,11.43l13.237,33.091
	H43.373l-8.423-20.456c-0.902-2.105-5.114-9.625-13.538-3.009c-5.415,8.424-8.424,18.051-8.424,28.58c0,0.117,0,0.235,0,0.352
	c0.099,28.646,23.4,51.788,52.046,51.69c5.113,0,9.927-0.6,14.741-1.805h-1.204c-9.025,0.604-14.741-3.307-17.749-11.43
	L47.584,82.179h36.702l8.724,20.458c0.903,2.406,6.017,11.131,14.741,3.912c6.017-8.424,9.325-18.955,9.325-30.085
	C117.076,47.884,93.914,24.42,65.032,24.42z M51.193,116.775c-16.846-5.717-28.879-21.659-28.879-40.312
	c0-6.918,1.805-13.537,4.812-19.554C35.182,76.851,43.204,96.807,51.193,116.775z M101.736,98.425
	C96.92,86.391,86.693,60.22,77.368,35.55c17.448,5.415,30.383,21.661,30.383,40.914C107.751,84.586,105.644,92.105,101.736,98.425z"
	/>
<g>
	<path fill="#808284" d="M139.574,140.102h-1.235v-5.799l-4.449-6.735h1.6l3.495,5.281l3.495-5.281h1.6l-4.505,6.735V140.102z"/>
	<path fill="#808284" d="M145.679,133.835c0-0.881,0.143-1.716,0.428-2.507c0.285-0.791,0.681-1.485,1.186-2.081
		c0.505-0.596,1.102-1.069,1.789-1.421c0.688-0.351,1.438-0.526,2.252-0.526c0.805,0,1.553,0.176,2.246,0.526
		c0.692,0.352,1.292,0.825,1.796,1.421c0.505,0.596,0.9,1.29,1.186,2.081c0.285,0.791,0.428,1.626,0.428,2.507
		c0,0.88-0.143,1.716-0.428,2.507c-0.286,0.791-0.681,1.484-1.186,2.08c-0.505,0.597-1.104,1.069-1.796,1.421
		c-0.692,0.351-1.441,0.526-2.246,0.526s-1.553-0.176-2.245-0.526c-0.693-0.352-1.292-0.824-1.796-1.421
		c-0.505-0.596-0.901-1.289-1.186-2.08C145.821,135.551,145.679,134.715,145.679,133.835z M146.914,133.835
		c0,0.69,0.112,1.345,0.337,1.963c0.225,0.619,0.534,1.156,0.926,1.613c0.393,0.457,0.858,0.818,1.396,1.086
		s1.125,0.401,1.761,0.401c0.627,0,1.212-0.134,1.754-0.401s1.011-0.629,1.404-1.086c0.393-0.457,0.702-0.994,0.926-1.613
		c0.225-0.618,0.336-1.272,0.336-1.963c0-0.691-0.112-1.343-0.336-1.956c-0.225-0.612-0.534-1.15-0.926-1.612
		c-0.393-0.462-0.861-0.827-1.404-1.095s-1.127-0.401-1.754-0.401c-0.636,0-1.223,0.134-1.761,0.401s-1.003,0.633-1.396,1.095
		c-0.393,0.462-0.702,1-0.926,1.612C147.026,132.492,146.914,133.144,146.914,133.835z"/>
	<path fill="#808284" d="M169.748,135.238c0,0.802-0.091,1.521-0.273,2.156c-0.183,0.635-0.463,1.173-0.842,1.612
		c-0.379,0.44-0.861,0.777-1.445,1.011c-0.585,0.234-1.28,0.352-2.084,0.352c-0.833,0-1.543-0.117-2.133-0.352
		c-0.589-0.233-1.069-0.57-1.438-1.011c-0.37-0.439-0.641-0.978-0.814-1.612c-0.173-0.636-0.26-1.354-0.26-2.156v-7.671h1.235v7.671
		c0,1.326,0.29,2.268,0.87,2.824c0.58,0.558,1.427,0.836,2.54,0.836s1.96-0.278,2.541-0.836c0.58-0.557,0.87-1.498,0.87-2.824
		v-7.671h1.235V135.238z"/>
	<path fill="#808284" d="M183.011,140.102h-1.417l-2.428-5.214h-4.168v5.214h-1.235v-12.534h5.249c0.262,0,0.55,0.014,0.863,0.042
		c0.313,0.027,0.626,0.083,0.94,0.167c0.313,0.084,0.617,0.206,0.912,0.367c0.295,0.162,0.557,0.376,0.786,0.644
		c0.229,0.268,0.411,0.597,0.547,0.986s0.204,0.853,0.204,1.387c0,0.68-0.082,1.248-0.246,1.705s-0.376,0.83-0.639,1.12
		c-0.262,0.289-0.552,0.504-0.87,0.643c-0.318,0.14-0.631,0.226-0.94,0.26L183.011,140.102z M179.516,133.417
		c0.346,0,0.671-0.022,0.976-0.067c0.304-0.044,0.57-0.142,0.8-0.292c0.229-0.15,0.409-0.373,0.54-0.669
		c0.131-0.295,0.197-0.699,0.197-1.212c0-0.39-0.065-0.721-0.197-0.994c-0.131-0.272-0.304-0.493-0.519-0.66
		s-0.461-0.289-0.737-0.367s-0.554-0.117-0.835-0.117h-4.744v4.379H179.516z"/>
	<path fill="#808284" d="M196.456,132.748c0.486,0,0.969,0.059,1.446,0.176s0.9,0.314,1.27,0.593c0.37,0.279,0.669,0.652,0.898,1.12
		c0.229,0.468,0.344,1.047,0.344,1.738c0,0.68-0.141,1.27-0.421,1.771c-0.28,0.501-0.655,0.916-1.123,1.245
		c-0.468,0.328-1.003,0.573-1.607,0.735c-0.604,0.161-1.228,0.242-1.874,0.242c-0.805,0-1.502-0.104-2.091-0.31
		s-1.092-0.454-1.509-0.743c-0.417-0.29-0.76-0.585-1.031-0.886c-0.271-0.301-0.482-0.552-0.632-0.752l0.884-1.036
		c0.159,0.167,0.351,0.379,0.575,0.635c0.225,0.256,0.51,0.504,0.856,0.743c0.346,0.24,0.76,0.446,1.242,0.619
		c0.481,0.173,1.064,0.259,1.747,0.259c0.589,0,1.118-0.064,1.586-0.192s0.861-0.304,1.179-0.526
		c0.318-0.223,0.562-0.487,0.73-0.794s0.252-0.644,0.252-1.011c0-0.39-0.075-0.722-0.224-0.995c-0.15-0.272-0.342-0.495-0.576-0.668
		s-0.491-0.298-0.772-0.376s-0.552-0.117-0.814-0.117h-2.217c-0.505,0-0.982-0.053-1.432-0.158c-0.449-0.106-0.84-0.284-1.172-0.535
		c-0.333-0.251-0.594-0.574-0.786-0.97c-0.192-0.395-0.288-0.888-0.288-1.479c0-0.435,0.086-0.875,0.26-1.32
		c0.173-0.445,0.442-0.853,0.807-1.22c0.365-0.368,0.835-0.666,1.41-0.895c0.576-0.229,1.266-0.343,2.07-0.343
		c0.599,0,1.141,0.075,1.628,0.226c0.486,0.15,0.912,0.326,1.277,0.526c0.365,0.201,0.673,0.404,0.926,0.61
		c0.252,0.206,0.444,0.365,0.575,0.477l-0.772,1.152c-0.187-0.145-0.396-0.306-0.625-0.484c-0.229-0.178-0.489-0.345-0.779-0.501
		s-0.62-0.284-0.989-0.385c-0.37-0.1-0.793-0.15-1.271-0.15c-0.589,0-1.092,0.075-1.509,0.226c-0.416,0.15-0.755,0.337-1.017,0.561
		c-0.262,0.223-0.454,0.471-0.576,0.743c-0.122,0.273-0.183,0.532-0.183,0.777c0,0.424,0.099,0.746,0.295,0.969
		c0.196,0.224,0.447,0.388,0.751,0.493c0.304,0.106,0.634,0.167,0.989,0.184c0.355,0.018,0.692,0.025,1.011,0.025H196.456z"/>
	<path fill="#808284" d="M213.647,140.102h-1.235v-9.609h-0.028l-3.888,8.557l-3.888-8.557h-0.028v9.609h-1.235v-12.534h1.235
		l3.916,8.473l3.916-8.473h1.235V140.102z"/>
	<path fill="#808284" d="M227.205,140.102h-1.375l-1.712-4.295h-5.052l-1.656,4.295h-1.375l5.011-12.534h1.235L227.205,140.102z
		 M221.661,129.355l-1.979,4.98h3.887L221.661,129.355z"/>
	<path fill="#808284" d="M238.615,140.102h-1.418l-2.428-5.214h-4.168v5.214h-1.235v-12.534h5.249c0.262,0,0.55,0.014,0.863,0.042
		c0.313,0.027,0.627,0.083,0.94,0.167s0.617,0.206,0.912,0.367c0.295,0.162,0.557,0.376,0.786,0.644
		c0.229,0.268,0.411,0.597,0.547,0.986s0.204,0.853,0.204,1.387c0,0.68-0.082,1.248-0.246,1.705s-0.377,0.83-0.639,1.12
		c-0.262,0.289-0.552,0.504-0.87,0.643c-0.318,0.14-0.632,0.226-0.94,0.26L238.615,140.102z M235.121,133.417
		c0.346,0,0.671-0.022,0.975-0.067c0.304-0.044,0.571-0.142,0.8-0.292c0.229-0.15,0.409-0.373,0.541-0.669
		c0.131-0.295,0.196-0.699,0.196-1.212c0-0.39-0.065-0.721-0.196-0.994c-0.132-0.272-0.305-0.493-0.52-0.66
		c-0.216-0.167-0.461-0.289-0.737-0.367c-0.275-0.078-0.554-0.117-0.834-0.117h-4.744v4.379H235.121z"/>
	<path fill="#808284" d="M245.885,140.102h-1.235v-11.063h-3.845v-1.471h8.926v1.471h-3.846V140.102z"/>
	<path fill="#808284" d="M265.729,140.102h-7.846v-12.534h1.235v11.063h6.61V140.102z"/>
	<path fill="#808284" d="M277.35,140.102h-1.375l-1.712-4.295h-5.053l-1.656,4.295h-1.375l5.01-12.534h1.235L277.35,140.102z
		 M271.807,129.355l-1.979,4.98h3.888L271.807,129.355z"/>
	<path fill="#808284" d="M289.014,135.238c0,0.802-0.092,1.521-0.274,2.156c-0.182,0.635-0.463,1.173-0.842,1.612
		c-0.379,0.44-0.86,0.777-1.445,1.011c-0.585,0.234-1.279,0.352-2.084,0.352c-0.833,0-1.544-0.117-2.134-0.352
		c-0.589-0.233-1.068-0.57-1.438-1.011c-0.369-0.439-0.641-0.978-0.813-1.612c-0.174-0.636-0.26-1.354-0.26-2.156v-7.671h1.234
		v7.671c0,1.326,0.29,2.268,0.87,2.824c0.58,0.558,1.427,0.836,2.541,0.836c1.113,0,1.96-0.278,2.54-0.836
		c0.58-0.557,0.87-1.498,0.87-2.824v-7.671h1.235V135.238z"/>
	<path fill="#808284" d="M302.57,140.102h-1.235l-6.82-10.211h-0.028v10.211h-1.235v-12.534h1.235l6.82,10.345h0.028v-10.345h1.235
		V140.102z"/>
	<path fill="#808284" d="M311.777,127.567c0.599,0,1.134,0.104,1.606,0.31s0.889,0.479,1.249,0.818s0.667,0.73,0.92,1.17
		c0.252,0.44,0.458,0.892,0.617,1.354c0.159,0.463,0.275,0.922,0.351,1.379s0.112,0.869,0.112,1.237c0,0.367-0.03,0.779-0.091,1.236
		c-0.062,0.457-0.164,0.916-0.309,1.379c-0.146,0.462-0.34,0.913-0.583,1.354s-0.545,0.83-0.905,1.17s-0.786,0.612-1.277,0.818
		c-0.491,0.207-1.055,0.31-1.69,0.31h-5.165v-12.534H311.777z M311.777,138.631c0.599,0,1.125-0.156,1.578-0.468
		c0.454-0.312,0.831-0.705,1.13-1.179c0.3-0.473,0.526-0.991,0.681-1.554c0.155-0.563,0.232-1.095,0.232-1.596
		c0-0.513-0.077-1.051-0.232-1.613c-0.154-0.563-0.381-1.08-0.681-1.554c-0.299-0.474-0.676-0.863-1.13-1.17
		c-0.453-0.307-0.979-0.46-1.578-0.46h-3.93v9.593H311.777z"/>
	<path fill="#808284" d="M328.787,140.102h-1.418l-2.428-5.214h-4.168v5.214h-1.235v-12.534h5.249c0.262,0,0.55,0.014,0.863,0.042
		c0.313,0.027,0.627,0.083,0.94,0.167s0.617,0.206,0.912,0.367c0.295,0.162,0.557,0.376,0.786,0.644
		c0.229,0.268,0.411,0.597,0.547,0.986s0.204,0.853,0.204,1.387c0,0.68-0.082,1.248-0.246,1.705s-0.377,0.83-0.639,1.12
		c-0.262,0.289-0.552,0.504-0.87,0.643c-0.318,0.14-0.632,0.226-0.94,0.26L328.787,140.102z M325.292,133.417
		c0.347,0,0.672-0.022,0.976-0.067c0.304-0.044,0.571-0.142,0.8-0.292c0.229-0.15,0.409-0.373,0.541-0.669
		c0.131-0.295,0.196-0.699,0.196-1.212c0-0.39-0.065-0.721-0.196-0.994c-0.132-0.272-0.305-0.493-0.52-0.66
		c-0.216-0.167-0.461-0.289-0.737-0.367c-0.275-0.078-0.554-0.117-0.835-0.117h-4.743v4.379H325.292z"/>
	<path fill="#808284" d="M336.028,140.102h-1.234v-5.799l-4.449-6.735h1.6l3.495,5.281l3.494-5.281h1.601l-4.506,6.735V140.102z"/>
	<path fill="#808284" d="M349.235,140.102H348v-12.534h5.811c0.327,0,0.683,0.048,1.066,0.142c0.384,0.096,0.741,0.273,1.073,0.535
		s0.61,0.627,0.835,1.095s0.337,1.075,0.337,1.821c0,0.669-0.086,1.229-0.26,1.68c-0.173,0.451-0.406,0.819-0.701,1.104
		s-0.646,0.487-1.053,0.609c-0.407,0.123-0.84,0.185-1.298,0.185h-4.575V140.102z M353.811,133.267c0.29,0,0.563-0.031,0.82-0.092
		c0.258-0.062,0.478-0.173,0.66-0.335c0.183-0.161,0.327-0.376,0.435-0.644c0.107-0.267,0.162-0.612,0.162-1.036
		c0-0.435-0.059-0.791-0.176-1.069s-0.271-0.495-0.463-0.651c-0.192-0.156-0.414-0.262-0.667-0.317s-0.51-0.084-0.771-0.084h-4.575
		v4.229H353.811z"/>
	<path fill="#808284" d="M369.346,140.102h-1.375l-1.712-4.295h-5.053l-1.656,4.295h-1.375l5.01-12.534h1.235L369.346,140.102z
		 M363.803,129.355l-1.979,4.98h3.888L363.803,129.355z"/>
	<path fill="#808284" d="M380.757,140.102h-1.418l-2.428-5.214h-4.168v5.214h-1.235v-12.534h5.249c0.262,0,0.55,0.014,0.863,0.042
		c0.313,0.027,0.627,0.083,0.94,0.167s0.617,0.206,0.912,0.367c0.295,0.162,0.557,0.376,0.786,0.644
		c0.229,0.268,0.411,0.597,0.547,0.986s0.204,0.853,0.204,1.387c0,0.68-0.082,1.248-0.246,1.705s-0.377,0.83-0.639,1.12
		c-0.262,0.289-0.552,0.504-0.87,0.643c-0.318,0.14-0.632,0.226-0.94,0.26L380.757,140.102z M377.262,133.417
		c0.347,0,0.672-0.022,0.976-0.067c0.304-0.044,0.571-0.142,0.8-0.292c0.229-0.15,0.409-0.373,0.541-0.669
		c0.131-0.295,0.196-0.699,0.196-1.212c0-0.39-0.065-0.721-0.196-0.994c-0.132-0.272-0.305-0.493-0.52-0.66
		c-0.216-0.167-0.461-0.289-0.737-0.367c-0.275-0.078-0.554-0.117-0.835-0.117h-4.743v4.379H377.262z"/>
	<path fill="#808284" d="M388.026,140.102h-1.235v-11.063h-3.845v-1.471h8.926v1.471h-3.846V140.102z"/>
	<path fill="#808284" d="M404.181,140.102h-1.235l-6.82-10.211h-0.028v10.211h-1.235v-12.534h1.235l6.82,10.345h0.028v-10.345h1.235
		V140.102z"/>
	<path fill="#808284" d="M417.189,140.102h-8.954v-12.534h8.646v1.471h-7.41v3.827h3.901v1.471h-3.901v4.295h7.719V140.102z"/>
	<path fill="#808284" d="M429.358,140.102h-1.418l-2.428-5.214h-4.168v5.214h-1.235v-12.534h5.249c0.262,0,0.55,0.014,0.863,0.042
		c0.313,0.027,0.627,0.083,0.94,0.167s0.617,0.206,0.912,0.367c0.295,0.162,0.557,0.376,0.786,0.644
		c0.229,0.268,0.411,0.597,0.547,0.986s0.204,0.853,0.204,1.387c0,0.68-0.082,1.248-0.246,1.705s-0.377,0.83-0.639,1.12
		c-0.262,0.289-0.552,0.504-0.87,0.643c-0.318,0.14-0.632,0.226-0.94,0.26L429.358,140.102z M425.863,133.417
		c0.347,0,0.672-0.022,0.976-0.067c0.304-0.044,0.571-0.142,0.8-0.292c0.229-0.15,0.409-0.373,0.541-0.669
		c0.131-0.295,0.196-0.699,0.196-1.212c0-0.39-0.065-0.721-0.196-0.994c-0.132-0.272-0.305-0.493-0.52-0.66
		c-0.216-0.167-0.461-0.289-0.737-0.367c-0.275-0.078-0.554-0.117-0.835-0.117h-4.743v4.379H425.863z"/>
</g>
<path fill="#8BB14C" d="M156.118,70.498V53.815h18.714v45.296h-18.714V82.429h-5.155v16.682h-18.714V53.815h18.714v16.682H156.118z"
	/>
<path fill="#8BB14C" d="M259.313,85.854v4.956c-2.133,6.098-8.473,9.146-19.02,9.146c-6.826,0-11.857-1.234-15.094-3.707
	c-3.211-2.418-4.815-6.138-4.815-11.161v-5.601c0-5.022,1.604-8.743,4.815-11.161c3.237-2.498,8.269-3.748,15.094-3.748
	c10.547,0,16.887,3.063,19.02,9.187v9.63h-21.447v4.472c0,0.995,0.107,1.572,0.322,1.733c0.189,0.161,0.891,0.241,2.105,0.241
	c1.078,0,1.74-0.081,1.982-0.241c0.242-0.162,0.377-0.659,0.404-1.491v-2.256H259.313z M238.188,76.224
	c-0.215,0.188-0.322,0.591-0.322,1.209v1.732h4.814v-1.894c-0.027-0.618-0.176-0.994-0.445-1.128
	c-0.242-0.107-0.889-0.162-1.941-0.162C239.078,75.982,238.377,76.063,238.188,76.224z"/>
<path fill="#8BB14C" d="M321.306,87.789v1.33c0,0.671,1.604,1.007,4.815,1.007h0.162c1.915,0,2.873-0.336,2.873-1.007V88.03
	c-1.673-0.349-4.142-0.873-7.405-1.572c-3.156-0.645-5.504-1.195-7.041-1.652c-5.153-1.772-7.729-4.056-7.729-6.85v-4.271
	c0-6.044,6.435-9.066,19.303-9.066c5.18,0,9.212,0.457,12.099,1.37c4.532,1.424,6.799,4.016,6.799,7.777v3.022h-13.88v-1.37
	c0-0.483-1.673-0.726-5.018-0.726c-2.24,0.027-3.359,0.269-3.359,0.726v0.726c1.942,0.349,4.56,0.873,7.851,1.571
	c3.156,0.645,5.489,1.196,7.001,1.652c5.18,2.042,7.77,4.459,7.77,7.253v4.271c0,6.045-6.421,9.066-19.262,9.066
	c-11.143,0-17.469-2.31-18.979-6.93v-5.239H321.306z"/>
<path fill="#8BB14C" d="M386.174,79.649h-16.065v-1.168c0-0.967-0.108-1.545-0.323-1.733c-0.189-0.161-0.891-0.242-2.104-0.242
	c-1.188,0-1.876,0.081-2.064,0.242c-0.216,0.188-0.323,0.766-0.323,1.733v7.575c0,0.994,0.107,1.585,0.323,1.773
	c0.188,0.161,0.877,0.242,2.064,0.242c1.214,0,1.915-0.081,2.104-0.242c0.215-0.188,0.323-0.779,0.323-1.773v-1.169h16.065v7.252
	c-0.81,1.64-1.942,3.009-3.399,4.11c-3.237,2.473-8.27,3.707-15.094,3.707c-6.799,0-11.816-1.234-15.054-3.707
	c-3.211-2.418-4.815-6.138-4.815-11.161v-5.601c0-5.022,1.604-8.757,4.815-11.201c3.237-2.472,8.255-3.708,15.054-3.708
	c6.824,0,11.856,1.236,15.094,3.708c1.457,1.102,2.59,2.485,3.399,4.15V79.649z"/>
<path fill="#8BB14C" d="M408.065,99.111h-17.481V52.209l17.481-1.934v16.681c2.319-1.558,5.301-2.337,8.942-2.337
	c5.1,0,8.633,0.994,10.603,2.982c1.834,1.907,2.752,5.225,2.752,9.952v21.558h-17.481V77.554c0-0.859-0.769-1.289-2.307-1.289
	h-0.243c-1.349,0-2.104,0.376-2.266,1.128V99.111z"/>
<path fill="#8BB14C" d="M300.789,67.642c-1.97-1.987-5.503-2.981-10.603-2.981c-3.642,0-6.623,0.779-8.942,2.337V50.114l-0.162,0.02
	v-0.02h-17.319v2.136V99.15v0.059h17.319v-0.975c2.439,1.143,5.229,1.723,8.377,1.723h0.161c5.126,0,8.741-0.993,10.846-2.981
	c2.05-1.935,3.075-5.252,3.075-9.953v-9.429C303.541,72.867,302.623,69.549,300.789,67.642z M286.06,87.023
	c0,0.699-0.769,1.075-2.307,1.128h-0.162c-1.403,0-2.185-0.322-2.347-0.967v-9.751c0.162-0.751,0.917-1.128,2.266-1.128h0.243
	c1.538,0,2.307,0.43,2.307,1.29V87.023z"/>
<path fill="#8BB14C" d="M199.139,65.425v21.598c0,0.86-0.796,1.29-2.388,1.29c-1.619,0-2.428-0.43-2.428-1.29V65.425h-17.481v21.598
	c0,4.728,0.917,8.045,2.751,9.953c1.969,1.988,5.503,2.981,10.602,2.981c3.653,0,6.634-0.776,8.943-2.327v1.521h8.741h8.741V65.425
	H199.139z"/>
<g>
	<path fill="#8BB14C" d="M438.733,100.005c-2.942,0-5.336-2.394-5.336-5.336c0-2.941,2.394-5.335,5.336-5.335
		s5.336,2.394,5.336,5.335C444.069,97.611,441.676,100.005,438.733,100.005z M438.733,90.089c-2.525,0-4.58,2.055-4.58,4.58
		s2.055,4.58,4.58,4.58s4.58-2.055,4.58-4.58S441.259,90.089,438.733,90.089z"/>
</g>
<g>
	<path fill="#8BB14C" d="M440.623,94.617c-0.441,0.386-1.09,0.581-1.945,0.581c0.763,1.051,1.644,2.288,2.419,3.358h-1.006
		l-2.472-3.358h-0.609v3.354c-0.326-0.012-0.548-0.004-0.855-0.017l-0.023-7.755h3.004c0.609,0,1.127,0.22,1.552,0.652
		c0.435,0.442,0.649,0.959,0.649,1.561C441.336,93.666,441.097,94.207,440.623,94.617z M440.094,92.063
		c-0.218-0.227-0.457-0.354-0.72-0.378c-0.172-0.012-0.395-0.023-0.653-0.023h-1.723v2.67h1.723c0.322,0,0.541-0.012,0.665-0.024
		c0.274-0.079,0.509-0.215,0.696-0.401c0.247-0.251,0.37-0.554,0.37-0.911C440.452,92.632,440.333,92.321,440.094,92.063z"/>
</g>
</svg>
