<?xml version="1.0" encoding="utf-8"?>
<!-- Generator: Adobe Illustrator 16.0.0, SVG Export Plug-In . SVG Version: 6.00 Build 0)  -->
<!DOCTYPE svg PUBLIC "-//W3C//DTD SVG 1.1//EN" "http://www.w3.org/Graphics/SVG/1.1/DTD/svg11.dtd">
<svg version="1.1" id="Layer_1" xmlns="http://www.w3.org/2000/svg" xmlns:xlink="http://www.w3.org/1999/xlink" x="0px" y="0px"
	 width="841.89px" height="595.276px" viewBox="0 0 841.89 595.276" enable-background="new 0 0 841.89 595.276"
	 xml:space="preserve">
<polygon fill="#FF0000" points="164.467,101.824 164.467,180.867 145.182,184.266 145.182,105.223 117.597,110.086 117.597,93.359 
	192.051,80.231 192.051,96.959 "/>
<polygon fill="#FF0000" points="267.631,123.347 227.277,130.462 227.277,169.791 208.631,173.079 208.631,77.307 227.277,74.02 
	227.277,113.351 267.631,106.235 267.631,66.904 286.279,63.616 286.279,159.388 267.631,162.675 "/>
<polygon fill="#FF0000" points="303.647,60.553 362.01,50.262 362.01,66.99 322.803,73.904 322.803,96.507 357.031,90.472 
	357.031,107.071 322.803,113.106 322.803,136.346 362.01,129.433 362.01,146.033 303.647,156.325 "/>
<g>
	<defs>
		<rect id="SVGID_1_" width="841.89" height="595.276"/>
	</defs>
	<clipPath id="SVGID_2_">
		<use xlink:href="#SVGID_1_"  overflow="visible"/>
	</clipPath>
	<path clip-path="url(#SVGID_2_)" fill="#FF0000" d="M156.295,255.882c-6.258,1.104-12.773,7.104-12.773,13.742
		c0,14.558,44.442,2.509,44.442,32.771c0,20.303-15.835,31.651-34.226,34.894c-14.941,2.634-28.988-2.423-33.586-16.551
		l16.855-10.891c2.173,7.919,9.835,11.546,18.138,10.082c7.535-1.328,13.791-5.88,13.791-14.179c0-15.068-44.313-3.04-44.313-32.795
		c0-16.981,15.451-31.582,31.672-34.442c13.92-2.455,24.39,1.83,30.009,13.737l-16.985,10.909
		C167.148,257.926,162.553,254.778,156.295,255.882"/>
	<polygon clip-path="url(#SVGID_2_)" fill="#FF0000" points="274.044,314.799 222.449,266.18 222.449,324.024 203.804,327.312 
		203.804,231.413 214.021,229.611 266.255,279.652 266.255,220.401 284.897,217.113 284.897,312.885 	"/>
	<polygon clip-path="url(#SVGID_2_)" fill="#FF0000" points="299.714,214.501 358.077,204.21 358.077,220.938 318.87,227.853 
		318.87,250.456 353.098,244.419 353.098,261.019 318.87,267.054 318.87,290.294 358.077,283.381 358.077,299.982 299.714,310.272 	
		"/>
	<path clip-path="url(#SVGID_2_)" fill="#FF0000" d="M436.941,269.094l-37.42,6.599l-7.025,18.221l-20.303,3.58l40.101-102.843
		l11.874-2.095l39.974,88.724l-20.176,3.558L436.941,269.094z M418.169,223.24l-12.39,36.277l24.904-4.39L418.169,223.24z"/>
	<polygon clip-path="url(#SVGID_2_)" fill="#FF0000" points="528.894,269.864 495.944,238.514 495.944,275.673 476.789,279.052 
		476.789,183.279 495.944,179.9 495.944,219.615 529.916,173.911 554.563,169.563 511.396,226.723 554.82,265.292 	"/>
	<polygon clip-path="url(#SVGID_2_)" fill="#FF0000" points="568.996,167.02 627.359,156.729 627.359,173.457 588.152,180.369 
		588.152,202.972 622.382,196.937 622.382,213.536 588.152,219.571 588.152,242.811 627.359,235.899 627.359,252.5 568.996,262.791 
			"/>
	<path clip-path="url(#SVGID_2_)" fill="#FF0000" d="M678.57,205.036L662.1,207.94v38.434l-18.646,3.288v-95.771l38.567-6.802
		c16.218-2.859,30.139,6.436,30.139,23.034c0,11.368-6.77,21.497-16.605,28.212l23.243,38.041l-21.195,3.738L678.57,205.036z
		 M693.769,174.516c0-7.405-5.232-11.846-12.642-10.54l-18.9,3.333v25.284l18.9-3.333
		C688.536,187.954,693.769,181.795,693.769,174.516"/>
	<path clip-path="url(#SVGID_2_)" fill="#FF0000" d="M156.295,409.137c-6.258,1.104-12.773,7.104-12.773,13.742
		c0,14.558,44.442,2.509,44.442,32.771c0,20.302-15.835,31.651-34.226,34.894c-14.941,2.634-28.988-2.424-33.586-16.552
		l16.855-10.89c2.173,7.919,9.835,11.546,18.138,10.082c7.535-1.328,13.791-5.88,13.791-14.179c0-15.068-44.313-3.04-44.313-32.795
		c0-16.981,15.451-31.582,31.672-34.442c13.92-2.455,24.39,1.83,30.009,13.737l-16.985,10.909
		C167.148,411.181,162.553,408.033,156.295,409.137"/>
	<polygon clip-path="url(#SVGID_2_)" fill="#FF0000" points="262.804,430.708 222.449,437.824 222.449,477.152 203.804,480.439 
		203.804,384.668 222.449,381.38 222.449,420.711 262.804,413.596 262.804,374.264 281.452,370.976 281.452,466.749 
		262.804,470.037 	"/>
	<path clip-path="url(#SVGID_2_)" fill="#FF0000" d="M362.255,435.518l-37.42,6.599l-7.025,18.221l-20.303,3.58l40.098-102.843
		l11.877-2.094l39.971,88.724l-20.176,3.558L362.255,435.518z M343.483,389.665l-12.39,36.278l24.904-4.392L343.483,389.665z"/>
	<path clip-path="url(#SVGID_2_)" fill="#FF0000" d="M440.795,439.929c-26.436,4.661-48.142-13.603-48.142-40.673
		c0-27.071,21.706-52.991,48.142-57.653c12.006-2.118,28.736-1.872,38.696,12.075l-13.667,15.562
		c-6.509-9.32-18.515-9.121-25.029-7.972c-15.832,2.791-28.859,18.626-28.859,34.588c0,15.961,13.027,27.198,28.859,24.406
		c6.515-1.148,16.348-2.882,24.902-16.647l14.048,10.418C466.084,434.192,453.185,437.744,440.795,439.929"/>
	<polygon clip-path="url(#SVGID_2_)" fill="#FF0000" points="549.86,419.419 516.914,388.071 516.914,425.23 497.759,428.607 
		497.759,332.835 516.914,329.458 516.914,369.172 550.887,323.468 575.533,319.122 532.365,376.282 575.787,414.849 	"/>
	<polygon clip-path="url(#SVGID_2_)" fill="#FF0000" points="93.397,227.97 748.989,111.965 749.051,95.494 93.46,211.5 	"/>
	<polygon clip-path="url(#SVGID_2_)" fill="#FF0000" points="92.812,381.757 748.403,265.751 748.466,249.28 92.874,365.287 	"/>
	<path clip-path="url(#SVGID_2_)" fill="#FF0000" d="M305.997,541.926c-0.138-0.138-0.207-0.343-0.069-0.515l2.127-2.47
		c0.138-0.172,0.344-0.172,0.48-0.035c1.511,1.202,3.74,2.471,6.346,2.471c2.781,0,4.391-1.406,4.391-3.362
		c0-1.681-1.028-2.778-4.253-3.224l-1.235-0.172c-4.494-0.617-7.031-2.778-7.031-6.655c0-4.22,3.086-7.033,7.889-7.033
		c2.918,0,5.695,0.927,7.548,2.334c0.171,0.136,0.204,0.274,0.067,0.479l-1.647,2.538c-0.135,0.172-0.309,0.205-0.48,0.104
		c-1.886-1.236-3.635-1.819-5.591-1.819c-2.366,0-3.671,1.304-3.671,3.122c0,1.612,1.134,2.71,4.289,3.155l1.236,0.173
		c4.493,0.616,6.961,2.744,6.961,6.757c0,4.151-2.984,7.239-8.782,7.239C311.144,545.014,307.815,543.642,305.997,541.926"/>
	<path clip-path="url(#SVGID_2_)" fill="#FF0000" d="M337.531,521.653c0-0.206,0.138-0.344,0.342-0.344h3.156
		c0.275,0,0.446,0.104,0.584,0.344l9.502,16.088h0.138v-16.088c0-0.206,0.138-0.344,0.342-0.344h2.984
		c0.207,0,0.345,0.138,0.345,0.344v22.64c0,0.207-0.138,0.343-0.345,0.343h-3.122c-0.273,0-0.444-0.103-0.582-0.343l-9.537-16.054
		h-0.136v16.054c0,0.207-0.138,0.343-0.344,0.343h-2.985c-0.204,0-0.342-0.136-0.342-0.343V521.653z"/>
	<path clip-path="url(#SVGID_2_)" fill="#FF0000" d="M370.307,521.653c0-0.206,0.138-0.344,0.342-0.344h14.616
		c0.204,0,0.342,0.138,0.342,0.344v2.949c0,0.206-0.138,0.344-0.342,0.344H374.56c-0.138,0-0.207,0.066-0.207,0.205v5.693
		c0,0.139,0.069,0.206,0.207,0.206h9.022c0.207,0,0.345,0.139,0.345,0.344v2.949c0,0.207-0.138,0.345-0.345,0.345h-9.022
		c-0.138,0-0.207,0.068-0.207,0.205v5.901c0,0.137,0.069,0.205,0.207,0.205h10.705c0.204,0,0.342,0.137,0.342,0.343v2.95
		c0,0.207-0.138,0.343-0.342,0.343h-14.616c-0.204,0-0.342-0.136-0.342-0.343V521.653z"/>
	<path clip-path="url(#SVGID_2_)" fill="#FF0000" d="M406.935,521.653c0.069-0.206,0.204-0.344,0.447-0.344h3.156
		c0.239,0,0.377,0.138,0.444,0.344l7.891,22.64c0.069,0.207,0,0.344-0.24,0.344h-3.362c-0.241,0-0.378-0.104-0.447-0.344
		l-1.542-4.527H404.5l-1.545,4.527c-0.069,0.24-0.206,0.344-0.447,0.344h-3.326c-0.24,0-0.309-0.137-0.24-0.344L406.935,521.653z
		 M412.046,536.164l-3.086-9.057h-0.105l-3.122,9.057H412.046z"/>
	<path clip-path="url(#SVGID_2_)" fill="#FF0000" d="M432.672,521.653c0-0.206,0.138-0.344,0.342-0.344h3.362
		c0.207,0,0.342,0.138,0.342,0.344v10.978l8.818-11.047c0.171-0.205,0.309-0.274,0.549-0.274h3.911c0.204,0,0.309,0.239,0.138,0.445
		l-7.24,8.714l8.062,13.756c0.137,0.24,0.033,0.411-0.24,0.411h-3.809c-0.274,0-0.376-0.068-0.514-0.273l-6.106-10.771l-3.569,4.323
		v6.379c0,0.207-0.135,0.343-0.342,0.343h-3.362c-0.204,0-0.342-0.136-0.342-0.343V521.653z"/>
	<path clip-path="url(#SVGID_2_)" fill="#FF0000" d="M464.893,521.653c0-0.206,0.138-0.344,0.342-0.344h14.616
		c0.204,0,0.342,0.138,0.342,0.344v2.949c0,0.206-0.138,0.344-0.342,0.344h-10.705c-0.138,0-0.207,0.066-0.207,0.205v5.693
		c0,0.139,0.069,0.206,0.207,0.206h9.022c0.207,0,0.342,0.139,0.342,0.344v2.949c0,0.207-0.135,0.345-0.342,0.345h-9.022
		c-0.138,0-0.207,0.068-0.207,0.205v5.901c0,0.137,0.069,0.205,0.207,0.205h10.705c0.204,0,0.342,0.137,0.342,0.343v2.95
		c0,0.207-0.138,0.343-0.342,0.343h-14.616c-0.204,0-0.342-0.136-0.342-0.343V521.653z"/>
	<path clip-path="url(#SVGID_2_)" fill="#FF0000" d="M507.856,544.636c-0.275,0-0.414-0.104-0.516-0.344l-4.46-9.091h-4.014
		c-0.138,0-0.206,0.069-0.206,0.207v8.884c0,0.207-0.136,0.344-0.343,0.344h-3.361c-0.204,0-0.343-0.137-0.343-0.344v-22.64
		c0-0.206,0.139-0.344,0.343-0.344h9.021c4.289,0,7.444,2.848,7.444,6.965c0,3.053-1.748,5.419-4.424,6.414l4.903,9.503
		c0.139,0.24,0,0.445-0.239,0.445H507.856z M507.41,528.274c0-2.025-1.439-3.328-3.569-3.328h-4.974
		c-0.138,0-0.206,0.067-0.206,0.205v6.209c0,0.138,0.068,0.207,0.206,0.207h4.974C505.971,531.567,507.41,530.262,507.41,528.274"/>
	<path clip-path="url(#SVGID_2_)" fill="#FF0000" d="M544.551,521.653c0-0.206,0.139-0.344,0.343-0.344h3.361
		c0.207,0,0.343,0.138,0.343,0.344v19.142c0,0.137,0.068,0.205,0.207,0.205h10.704c0.204,0,0.343,0.137,0.343,0.343v2.95
		c0,0.207-0.139,0.343-0.343,0.343h-14.615c-0.204,0-0.343-0.136-0.343-0.343V521.653z"/>
	<path clip-path="url(#SVGID_2_)" fill="#FF0000" d="M580.752,521.653c0.069-0.206,0.204-0.344,0.444-0.344h3.158
		c0.239,0,0.378,0.138,0.443,0.344l7.892,22.64c0.07,0.207,0,0.344-0.24,0.344h-3.362c-0.239,0-0.378-0.104-0.446-0.344
		l-1.542-4.527h-8.781l-1.545,4.527c-0.069,0.24-0.207,0.344-0.447,0.344h-3.326c-0.239,0-0.309-0.137-0.239-0.344L580.752,521.653z
		 M585.863,536.164l-3.086-9.057h-0.105l-3.119,9.057H585.863z"/>
	<path clip-path="url(#SVGID_2_)" fill="#FF0000" d="M618.598,536.369v-14.716c0-0.206,0.135-0.345,0.342-0.345h3.361
		c0.207,0,0.343,0.139,0.343,0.345v14.785c0,5.42-3.671,8.576-8.611,8.576c-4.904,0-8.575-3.156-8.575-8.576v-14.785
		c0-0.206,0.139-0.345,0.342-0.345h3.362c0.207,0,0.345,0.139,0.345,0.345v14.716c0,3.225,1.887,5.009,4.526,5.009
		C616.71,541.377,618.598,539.593,618.598,536.369"/>
	<path clip-path="url(#SVGID_2_)" fill="#FF0000" d="M637.896,521.653c0-0.206,0.138-0.344,0.342-0.344h3.156
		c0.274,0,0.445,0.104,0.584,0.344l9.502,16.088h0.138v-16.088c0-0.206,0.138-0.344,0.342-0.344h2.984
		c0.207,0,0.345,0.138,0.345,0.344v22.64c0,0.207-0.138,0.343-0.345,0.343h-3.122c-0.273,0-0.444-0.103-0.582-0.343l-9.538-16.054
		h-0.135v16.054c0,0.207-0.139,0.343-0.346,0.343h-2.983c-0.204,0-0.342-0.136-0.342-0.343V521.653z"/>
	<path clip-path="url(#SVGID_2_)" fill="#FF0000" d="M670.677,521.653c0-0.206,0.138-0.344,0.342-0.344h8.335
		c4.016,0,6.692,1.784,7.789,5.18c0.378,1.167,0.582,2.436,0.582,6.484c0,4.047-0.204,5.316-0.582,6.483
		c-1.097,3.396-3.773,5.18-7.789,5.18h-8.335c-0.204,0-0.342-0.137-0.342-0.344V521.653z M674.93,541h3.464
		c2.574,0,4.152-0.857,4.838-2.949c0.24-0.653,0.411-1.716,0.411-5.077c0-3.396-0.171-4.425-0.411-5.078
		c-0.686-2.092-2.264-2.949-4.838-2.949h-3.464c-0.138,0-0.207,0.067-0.207,0.204v15.645C674.723,540.931,674.792,541,674.93,541"/>
	<path clip-path="url(#SVGID_2_)" fill="#FF0000" d="M715.668,544.636c-0.275,0-0.414-0.104-0.516-0.344l-4.46-9.091h-4.013
		c-0.139,0-0.207,0.069-0.207,0.207v8.884c0,0.207-0.136,0.344-0.343,0.344h-3.361c-0.204,0-0.343-0.137-0.343-0.344v-22.64
		c0-0.206,0.139-0.344,0.343-0.344h9.021c4.289,0,7.444,2.848,7.444,6.965c0,3.053-1.748,5.419-4.424,6.414l4.903,9.503
		c0.139,0.24,0,0.445-0.239,0.445H715.668z M715.222,528.274c0-2.025-1.44-3.328-3.569-3.328h-4.973
		c-0.139,0-0.207,0.067-0.207,0.205v6.209c0,0.138,0.068,0.207,0.207,0.207h4.973C713.781,531.567,715.222,530.262,715.222,528.274"
		/>
	<path clip-path="url(#SVGID_2_)" fill="#FF0000" d="M738.592,544.636c-0.207,0-0.346-0.137-0.346-0.344V535.1l-6.758-13.447
		c-0.068-0.173,0.037-0.344,0.276-0.344h3.465c0.207,0,0.378,0.103,0.479,0.344l4.562,9.056h0.104l4.595-9.056
		c0.104-0.241,0.24-0.344,0.479-0.344h3.329c0.273,0,0.343,0.171,0.273,0.344l-6.758,13.447v9.192c0,0.207-0.138,0.344-0.342,0.344
		H738.592z"/>
</g>
</svg>
