<svg width="137" height="43" viewBox="0 0 137 43" fill="none" xmlns="http://www.w3.org/2000/svg">
<path d="M29.4146 22.1061L26.3376 19.0754V27.5969H29.4146V22.1061Z" fill="#030304"/>
<path d="M16.9969 12.9427H24.5796L21.5025 9.94771H17.4731C20.0373 9.69812 22.1619 7.59449 22.1619 4.99167C22.1619 2.28191 19.8908 0 16.9969 0V9.94771L8.46189 1.71144C7.98569 1.96102 7.58275 2.17495 7.17981 2.42453C6.70361 2.74543 6.30066 3.06631 5.82446 3.35156L13.8832 11.1956V28.3813L20.074 34.407V30.1284L16.9237 27.062L16.9969 12.9427Z" fill="#030304"/>
<path d="M20.0737 12.9429V27.5971H23.224V16.0092L20.0737 12.9429Z" fill="#030304"/>
<path d="M30.7701 19.0759L27.6564 16.0095H23.2241L26.3377 19.0759H30.7701Z" fill="#030304"/>
<path d="M10.7329 25.4933V12.4793L3.5532 5.49097C2.89385 6.27537 2.27112 7.13109 1.79492 8.09377L7.58263 13.7272V18.0414L0.549465 11.2314C0.256417 12.408 0.0732621 13.6559 0 14.9752C0.0732621 14.9752 10.4032 25.1725 10.7329 25.4933Z" fill="#030304"/>
<path d="M0.146484 19.2896V23.6039L20.0738 43.0001V38.7571L0.146484 19.2896Z" fill="#030304"/>
<path d="M35.7152 23.8533H32.5651V27.704H29.4148C29.4148 30.4494 31.7592 32.7313 34.5797 32.7313C37.4003 32.7313 39.7447 30.4494 39.7447 27.704L35.7152 23.8533Z" fill="#030304"/>
<path d="M61.2471 27.7039L58.7561 32.018H44.177L53.5912 14.3689H45.2027L47.5471 10.0547H62.1262L52.712 27.7039H61.2471Z" fill="#030304"/>
<path d="M69.5621 18.8258H76.9616V23.14H69.5621V27.7039H76.9616V32.018H63.9941V10.0547H76.9616V14.3689H69.5621V18.8258Z" fill="#030304"/>
<path fill-rule="evenodd" clip-rule="evenodd" d="M92.9695 11.089C91.6874 10.3759 90.0756 10.055 87.1818 10.055L79.4893 9.948V32.054H88.7569C91.028 32.054 92.3834 31.7331 93.5189 31.02C94.9842 30.093 95.8633 28.2746 95.8633 26.2423C95.8633 24.6022 95.3871 23.3185 94.3248 22.3915C93.5922 21.7855 92.9328 21.4645 91.5775 21.1437C92.7863 20.8227 93.2626 20.5375 93.9218 19.8957C94.9842 18.8617 95.4603 17.6138 95.4603 16.045C95.4603 13.9056 94.5079 12.016 92.9695 11.089ZM84.9473 19.1469H86.3026C88.7936 19.1469 89.8558 18.3626 89.8558 16.5441C89.8558 14.7257 88.7935 14.0484 86.2294 14.0484H84.9473V19.1469ZM84.9473 28.239H86.962C89.3064 28.239 90.2588 27.4545 90.2588 25.7431C90.2588 24.7091 89.8558 23.9247 89.0499 23.4613C88.3907 23.1403 87.9144 23.069 86.2294 23.069H84.9473V28.239Z" fill="#030304"/>
<path fill-rule="evenodd" clip-rule="evenodd" d="M98.1345 32.0183H103.629L103.702 23.3542L108.611 31.9114H115.205L110.223 23.8178C113.117 22.7125 114.582 20.5375 114.582 17.1503C114.582 14.7257 113.703 12.7647 112.164 11.5881C110.626 10.4828 108.428 9.948 105.461 9.948H98.1345V32.0183ZM109.051 17.3998C109.051 19.3609 107.695 20.4662 105.424 20.4662H103.739V14.3336H105.827C107.769 14.3336 109.051 15.5814 109.051 17.3998Z" fill="#030304"/>
<path fill-rule="evenodd" clip-rule="evenodd" d="M122.678 10.0547H129.674L137 32.0894H130.993L129.637 27.7752H122.311L120.955 32.0894H115.168L122.678 10.0547ZM126.047 16.3299L123.776 23.461H128.319L126.047 16.3299Z" fill="#030304"/>
</svg>
