<svg width="138" height="37" viewBox="0 0 138 37" fill="none" xmlns="http://www.w3.org/2000/svg">
<path fill-rule="evenodd" clip-rule="evenodd" d="M6.38674 23.4624H20.4616V18.4788H6.38674V12.2304H21.7224V6.84169H0V35.9984H22.048V30.6074H6.38674V23.4624ZM36.8106 6.9279H23.7116V36.0855H30.0976V25.6316H36.8106C44.0506 25.6316 46.858 21.0165 46.858 16.279C46.858 11.5415 44.0514 6.9279 36.8106 6.9279ZM35.0604 20.649H30.0976V11.9099H35.0604C38.0301 11.9099 40.6741 12.5642 40.6741 16.279C40.6741 19.9969 38.0301 20.649 35.0604 20.649ZM63.2601 19.1551C55.9786 17.2767 54.5953 16.9898 54.5953 14.7452C54.5953 12.2947 56.9544 11.4365 58.989 11.4365C62.039 11.4365 64.5201 12.3347 64.7238 15.8464H70.9083C70.9083 9.10893 65.3351 6.45533 59.2724 6.45533C54.0261 6.45533 48.4115 9.31348 48.4115 15.2735C48.4115 20.746 52.7645 22.4209 57.0763 23.5643C61.3474 24.7077 65.6997 25.2391 65.6997 28.3841C65.6997 31.3628 62.2826 32.0181 60.046 32.0181C56.6289 32.0181 53.6179 30.507 53.6179 26.6269H47.4357C47.3545 33.815 53.3751 37 59.8017 37C67.6943 37 71.8842 32.9992 71.8842 27.6489C71.8842 21.0345 65.3749 19.6865 63.2601 19.1551ZM87.0622 6.32603C78.0719 6.32603 72.7828 13.0651 72.7828 21.7233C72.7828 30.134 78.0719 36.8738 87.0622 36.8738C96.051 36.8738 101.34 30.134 101.34 21.7233C101.34 13.0651 96.051 6.32603 87.0622 6.32603ZM87.0622 31.4828C81.3257 31.4828 79.1704 26.5799 79.1704 21.7233C79.1704 16.6183 81.3266 11.7171 87.0622 11.7171C92.7971 11.7171 94.9541 16.6176 94.9541 21.7233C94.9541 26.5807 92.7971 31.4828 87.0622 31.4828ZM127.55 6.9569H121.571V26.5188H121.491L109.366 6.9569H103.022V36.1152H109V16.5949H109.083L121.165 36.1152H127.55V6.9569ZM134.804 6.41537C133.956 6.41453 133.144 6.07634 132.545 5.47499C131.946 4.87363 131.609 4.05823 131.608 3.20768C131.608 1.44828 133.049 0 134.804 0C136.558 0 138 1.44828 138 3.20768C137.999 4.05816 137.661 4.87346 137.062 5.47475C136.464 6.07607 135.652 6.41433 134.804 6.41537ZM137.524 3.2069C137.522 2.48353 137.235 1.79041 136.725 1.27905C136.215 0.767693 135.525 0.479711 134.804 0.478057C134.083 0.480124 133.393 0.768294 132.884 1.27961C132.375 1.79091 132.088 2.4838 132.086 3.2069C132.087 3.9304 132.374 4.62389 132.883 5.13571C133.393 5.64753 134.083 5.93602 134.804 5.93809C135.525 5.93623 136.216 5.64785 136.726 5.13603C137.235 4.62422 137.522 3.93061 137.524 3.2069ZM136.138 4.81897H135.458L134.927 3.45299H134.206V4.81897H133.593V1.43339H134.722C135.361 1.43339 136.095 1.54232 136.095 2.5243C136.095 3.12618 135.729 3.25001 135.511 3.35816L136.138 4.81897L134.942 2.90831C135.226 2.90831 135.458 2.77116 135.458 2.46944C135.458 2.17085 135.252 2.0196 134.886 2.0196H134.206V2.90831H134.942L136.138 4.81897Z" fill="#2F489A"/>
</svg>
