<?xml version="1.0" encoding="utf-8"?>
<!-- Generator: Adobe Illustrator 16.0.0, SVG Export Plug-In . SVG Version: 6.00 Build 0)  -->
<!DOCTYPE svg PUBLIC "-//W3C//DTD SVG 1.1//EN" "http://www.w3.org/Graphics/SVG/1.1/DTD/svg11.dtd">
<svg version="1.1" id="Layer_1" xmlns="http://www.w3.org/2000/svg" xmlns:xlink="http://www.w3.org/1999/xlink" x="0px" y="0px"
	 width="763px" height="203px" viewBox="0 0 763 203" enable-background="new 0 0 763 203" xml:space="preserve">
<path fill="#EF4923" d="M70.028,91.557c0.94,0.587,1.645,1.527,1.645,2.702c0,0.587-0.117,1.058-0.352,1.528
	c-0.47,0.94-1.527,1.646-2.703,1.646c-1.409,0-2.702-1.059-2.937-2.468c0-0.235-0.118-0.47-0.118-0.706
	c0-1.763,1.411-3.055,3.055-3.055c0.118,0,0.235,0,0.354,0c0.235,0,0.352,0.119,0.587,0.119l0,0c0.118,0,0.118,0,0.235,0.117l0,0
	c0,0,0.117,0,0.117,0.118C69.91,91.557,69.91,91.557,70.028,91.557L70.028,91.557 M192.469,131.037
	c14.453,0,25.381-4.697,25.381-19.622c0-10.928-8.46-14.571-16.92-16.921c-4.936-1.41-9.283-2.703-12.338-3.643v-7.168h4.466v7.168
	h23.618v-2.232c0-9.4-4.701-17.392-25.734-17.392c-16.098,0-25.733,5.523-25.498,19.036c0.235,10.105,7.167,13.396,14.57,15.981
	c4.583,1.528,9.165,2.82,13.044,4.229v8.228h-4.584v-8.464H164.62v1.293C164.62,130.449,179.896,131.037,192.469,131.037
	 M248.166,117.289h-4.699V98.138h4.699V117.289z M268.259,123.519c2.116-3.879,2.233-9.399,2.233-16.099
	c0-9.282-0.94-14.805-4.935-18.684c-2.468-2.35-5.523-3.642-9.871-3.642c-6.815-0.117-10.576,2.585-12.338,5.405v-4.583h-21.621
	v58.4h21.855v-18.45c2.233,2.941,5.993,4.819,11.868,4.819C261.562,130.686,265.792,127.981,268.259,123.519 M301.044,102.485
	h-4.701v-8.226h4.701V102.485z M314.44,127.748c5.169-2.585,8.93-7.754,8.93-13.277h-22.444v5.64h-4.7v-10.105h27.025v-3.172
	c0-7.756-1.292-11.046-2.702-13.514c-3.644-5.875-10.341-8.695-21.503-8.695c-18.684,0-25.381,7.638-25.381,23.149
	c0,13.865,4.699,23.03,24.559,23.03C303.042,130.803,309.034,130.449,314.44,127.748 M353.92,102.485h-4.7v-8.226h4.7V102.485z
	 M367.435,127.748c5.169-2.585,8.93-7.754,8.93-13.277H353.92v5.64h-4.7v-10.105h27.027v-3.172c0-7.756-1.292-11.046-2.703-13.514
	c-3.642-5.875-10.341-8.695-21.503-8.695c-18.684,0-25.381,7.638-25.381,23.149c0,13.865,4.699,23.03,24.559,23.03
	C355.918,130.803,362.028,130.449,367.435,127.748 M406.327,116.821h-4.583V98.019h4.583V116.821z M428.302,129.395V72.99h-21.975
	v16.451c-2.583-2.703-6.225-4.348-11.748-4.348c-5.289,0-9.285,1.763-11.986,5.993c-2.233,3.525-3.055,9.282-2.938,17.508
	c0.118,7.052,0.705,14.216,4.817,18.095c3.057,2.938,6.229,3.525,9.754,3.525c5.64,0,9.518-2.234,11.986-5.053v4.113h22.089V129.395
	z M488.111,119.053h-4.463V84.153h4.463V119.053z M515.021,131.037v-11.984h-5.053c1.881-4.346,2.231-12.22,2.231-17.979
	c0-23.148-5.523-29.847-26.202-29.847c-20.682,0-26.204,6.815-26.204,29.847c0,10.928,0.703,19.036,5.993,23.852
	c4.112,3.762,9.872,5.996,19.39,5.996h29.845V131.037z M565.901,129.395V85.916h-21.975v31.139h-4.583V85.916h-22.09v27.614
	c0,5.523,1.055,8.461,2.232,10.458c1.997,3.525,6.227,6.228,11.516,6.347c5.64,0.234,9.752-2,12.925-5.172v4.346h21.975V129.395z
	 M596.569,102.485h-4.7v-8.226h4.7V102.485z M609.966,127.748c5.17-2.585,8.929-7.754,8.929-13.277h-22.442v5.64h-4.702v-10.105
	h27.028v-3.172c0-7.756-1.294-11.046-2.702-13.514c-3.643-5.875-10.342-8.695-21.505-8.695c-18.684,0-25.381,7.638-25.381,23.149
	c0,13.865,4.702,23.03,24.44,23.03C598.566,130.803,604.677,130.449,609.966,127.748 M649.448,102.485h-4.702v-8.226h4.702V102.485z
	 M662.959,127.748c5.173-2.585,8.932-7.754,8.932-13.277h-22.442v5.64h-4.702v-10.105h27.027v-3.172
	c0-7.756-1.293-11.046-2.704-13.514c-3.642-5.875-10.339-8.695-21.502-8.695c-18.684,0-25.381,7.638-25.381,23.149
	c0,13.865,4.699,23.03,24.558,23.03C651.563,130.803,657.554,130.449,662.959,127.748 M724.063,129.395V99.43
	c0-8.931-5.17-14.923-14.335-14.806c-7.051,0-11.282,3.055-13.047,5.523v-4.23h-21.266v43.479h21.855V98.138h4.699v31.257H724.063z
	 M731.817,124.339v-1.645h1.177c0.588,0,1.175,0.117,1.175,0.824c0,0.821-0.587,0.94-1.294,0.94h-1.058V124.339z M731.817,125.046
	h0.94l1.411,2.349h0.94l-1.527-2.349c0.82-0.12,1.407-0.587,1.407-1.527c0-1.058-0.587-1.528-1.881-1.528h-2.114v5.523h0.823
	V125.046L731.817,125.046z M732.875,128.688c-2.114,0-3.876-1.645-3.876-3.996c0-2.231,1.645-3.995,3.876-3.995
	c2.114,0,3.879,1.647,3.879,3.995C736.637,126.927,734.989,128.688,732.875,128.688 M728.059,124.692
	c0,2.702,2.231,4.702,4.816,4.702s4.816-2,4.816-4.702c0-2.702-2.231-4.699-4.816-4.699
	C730.173,119.993,728.059,121.991,728.059,124.692 M80.016,91.204L80.016,91.204c-0.117,0-0.235,0-0.352,0l0,0h-0.117
	c-1.529,0.235-2.703,1.528-2.703,3.055c0,1.763,1.41,3.173,3.172,3.173c0.589,0,1.059-0.118,1.528-0.47
	c0.235-0.118,0.353-0.235,0.588-0.47c0.587-0.587,0.939-1.292,0.939-2.233C83.071,92.614,81.662,91.204,80.016,91.204
	 M91.062,91.204L91.062,91.204c-0.118,0-0.118,0-0.235,0c0,0,0,0-0.117,0l0,0c-1.176,0.119-2.233,1.058-2.586,2.115
	c-0.117,0.235-0.117,0.588-0.117,0.94c0,1.763,1.409,3.173,3.172,3.173c0.118,0,0.354,0,0.47,0c1.292-0.235,2.233-1.175,2.585-2.351
	c0.118-0.235,0.118-0.469,0.118-0.704C94.234,92.614,92.825,91.204,91.062,91.204 M106.102,124.222L106.102,124.222
	c0.118,0.117,0.354,0.237,0.47,0.237c0.118,0,0.354-0.12,0.587-0.237c5.523-3.759,9.519-8.695,11.398-14.452
	c0.823-2.468,1.175-5.053,1.175-7.756c0-15.98-15.862-29.141-35.251-29.141c-19.506,0-35.251,13.161-35.251,29.141
	c0,12.572,9.752,23.385,23.383,27.38c3.408,1.055,7.167,1.642,11.046,1.642h0.117c0.353,0,0.588-0.114,0.705-0.234
	c0-0.117,0.117-0.117,0.117-0.234c0-0.236-0.117-0.47-0.234-0.824l0,0c-0.94-1.878-1.881-3.759-2.703-5.64
	c-3.76-7.757-7.521-15.394-11.281-23.031l0,0l-0.117-0.117l0,0l0,0h0.235c0.352,0,0.706-0.118,1.058-0.118
	c0.47,0,0.94,0.118,1.292,0.705c0.352,0.587,0.705,1.292,1.057,1.998c0.47,0.706,0.822,1.41,1.292,2.115
	c0.118,0.352,0.353,0.588,0.47,0.94c0.353,0.47,0.705,0.939,1.057,1.41c1.176,1.175,2.821,1.764,4.114,1.764
	c1.645,0,3.055-0.94,3.055-2.938c0-0.824-0.235-1.998-0.824-3.291c-0.235-0.47-0.587-1.057-0.822-1.646
	c-0.117-0.235-0.235-0.587-0.352-0.822l-0.353-0.235h0.235h1.528c0.47,0,0.705,0.235,0.94,0.587c0.235,0.354,0.352,0.706,0.587,0.94
	c0.354,0.587,0.706,1.292,1.059,1.881c0.587,0.939,0.939,1.409,1.645,2.231c1.175,1.528,2.468,2.351,3.642,2.586
	c0.354,0.117,0.588,0.117,0.94,0.117c0.47,0,0.94-0.117,1.411-0.352c0.822-0.47,1.292-1.411,1.292-2.585c0-0.235,0-0.588-0.118-0.94
	c-0.117-0.587-0.235-1.057-0.587-1.763c-0.235-0.47-0.47-0.94-0.705-1.527c-0.235-0.352-0.352-0.822-0.587-1.175l0,0l-0.119-0.117
	h0.235h1.646c0.117,0,0.235,0,0.352,0c0.235,0.117,0.354,0.352,0.47,0.587c3.291,7.286,6.934,14.571,10.341,21.855
	c0.117,0.12,0.235,0.354,0.352,0.587C105.985,124.105,105.985,124.105,106.102,124.222L106.102,124.222 M111.86,134.564
	c-0.587,0.234-0.94,0.587-0.94,1.057c0,0.351,0.118,0.704,0.47,1.174c1.411,2.819,3.055,6.347,4.23,8.695
	c0.94,1.881,2.585,3.409,4.348,4.702c0.118,0.114,0.235,0.351,0.235,0.587c0,0.467-0.352,0.821-1.175,0.821
	c-5.64,0.12-11.163,0-16.803,0.12c-7.521,0-9.753-5.056-10.811-7.287c-0.352-0.824-1.058-2.351-1.763-3.525
	c-0.587-1.174-0.704-1.174-1.997-1.174c-0.824,0-1.763,0-2.468,0c-28.906,0-52.526-16.922-52.526-37.602
	c0-20.798,23.62-37.72,52.526-37.72c28.906,0,52.524,16.921,52.524,37.72C137.594,115.881,127.254,127.867,111.86,134.564
	 M122.788,145.725v0.826h1.057v5.05h0.824v-5.05h1.057v-0.826H122.788z M130.896,145.725l-1.645,4.468l-1.646-4.468h-1.292v5.759
	h0.822v-5.053l1.881,5.053h0.587l1.879-5.053l-0.117,5.053h0.822v-5.759H130.896z"/>
</svg>
