<svg width="86" height="84" viewBox="0 0 86 84" fill="none" xmlns="http://www.w3.org/2000/svg">
<path d="M43.0302 82.9469C66.4548 82.9469 85.4439 64.4045 85.4439 41.5309C85.4439 18.6576 66.4548 0.115044 43.0302 0.115044C19.6056 0.115044 0.616333 18.6576 0.616333 41.5309C0.616333 64.4045 19.6056 82.9469 43.0302 82.9469Z" fill="#1AB4D7"/>
<path d="M20.5094 41.001L27.8083 34.0801C28.0503 33.8468 28.1853 33.538 28.1853 33.2104C28.1853 32.5278 27.5986 31.9734 26.8769 31.9734C26.5254 31.9734 26.1958 32.1037 25.9473 32.3417C25.9466 32.3431 18.655 39.2361 18.655 39.2361L11.33 32.3314C11.0825 32.1006 10.7545 31.9734 10.4068 31.9734C9.68595 31.9734 9.09912 32.5275 9.09912 33.2095C9.09912 33.5421 9.23953 33.8543 9.49155 34.0895L16.7894 40.9914L9.49533 47.9037C9.23895 48.1425 9.09912 48.4553 9.09912 48.7895C9.09912 49.472 9.68595 50.0257 10.4068 50.0257C10.7551 50.0257 11.0834 49.8978 11.33 49.6644L18.6436 42.756L25.9294 49.6392C26.1878 49.8919 26.5212 50.0265 26.8769 50.0265C27.5979 50.0265 28.1846 49.472 28.1846 48.7895C28.1846 48.4601 28.0497 48.1507 27.8042 47.9174L20.5094 41.001Z" fill="white"/>
<path d="M64.2371 41.531C64.2371 42.7021 65.188 43.6548 66.3589 43.6548C67.5271 43.6548 68.4784 42.7021 68.4784 41.531C68.4784 40.3595 67.5271 39.407 66.3589 39.407C65.188 39.407 64.2371 40.3595 64.2371 41.531Z" fill="white"/>
<path fill-rule="evenodd" clip-rule="evenodd" d="M66.3567 50.0265C61.0952 50.0265 56.8146 45.9775 56.8146 41.0008C56.8146 36.0235 61.0952 31.9734 66.3567 31.9734C71.618 31.9734 75.9008 36.0235 75.9008 41.0008C75.9008 45.9775 71.618 50.0265 66.3567 50.0265ZM66.3567 34.5221C62.5802 34.5221 59.5085 37.4286 59.5085 41.0008C59.5085 44.5722 62.5802 47.4775 66.3567 47.4775C70.1312 47.4775 73.2037 44.5722 73.2037 41.0008C73.2037 37.4286 70.1312 34.5221 66.3567 34.5221Z" fill="white"/>
<path d="M56.5996 31.9745L56.2084 31.9734C55.034 31.9734 53.9013 32.3382 52.9553 33.0561C52.8306 32.4943 52.3207 32.0716 51.7134 32.0716C51.0143 32.0716 50.4542 32.6232 50.4525 33.313C50.4525 33.3155 50.4568 48.7783 50.4568 48.7783C50.4586 49.4668 51.0289 50.0265 51.7284 50.0265C52.4277 50.0265 52.9979 49.4668 52.9997 48.7767C52.9997 48.7737 53.0003 39.2676 53.0003 39.2676C53.0003 36.0982 53.2945 34.8182 56.0514 34.4789C56.3062 34.4477 56.5834 34.4526 56.5845 34.4526C57.3389 34.4271 57.8749 33.9166 57.8749 33.2266C57.8749 32.5363 57.3026 31.9745 56.5996 31.9745Z" fill="white"/>
<path fill-rule="evenodd" clip-rule="evenodd" d="M44.0227 33.3604C46.2547 34.6854 47.7205 36.7486 48.2859 39.2603C48.5651 40.6823 47.5544 41.9258 45.6766 41.9627C45.6766 41.9627 32.7685 41.9648 31.9793 41.9648C31.9819 42.024 31.9885 42.0882 31.9974 42.1548C32.0656 42.5107 32.1634 42.8562 32.2903 43.1894C33.0168 44.9735 35.0594 47.4731 38.8763 47.5129C40.0425 47.5068 41.1394 47.231 42.1021 46.7486C42.8585 46.3522 43.4899 45.8411 43.9987 45.3136C44.1676 45.1245 44.3211 44.9353 44.4586 44.7515C45.0986 43.9826 45.9119 44.1238 46.3963 44.4722C46.9707 44.885 47.0677 45.7499 46.5449 46.3581C46.5361 46.368 46.5272 46.3771 46.5183 46.3861C46.5119 46.3926 46.5056 46.3991 46.4992 46.4059C45.7461 47.292 44.9685 48.0322 44.0377 48.5935C43.1409 49.1327 42.1676 49.5154 41.1618 49.745C39.9912 50.0293 38.8608 50.0925 37.6995 49.9606C33.7859 49.5111 30.5033 46.7994 29.5327 43.2172C29.3388 42.497 29.2456 41.7652 29.2456 41.0403C29.2456 38.1493 30.7295 35.3428 33.3001 33.6271C36.4515 31.5247 40.76 31.4172 44.0227 33.3604ZM32.0962 39.4175C32.0947 39.4429 32.0932 39.4682 32.0932 39.4928H45.5987C44.8758 36.6153 42.1232 34.4731 38.8356 34.4731C35.5872 34.4731 32.8596 36.5639 32.0977 39.3894C32.0973 39.3987 32.0967 39.4081 32.0962 39.4175Z" fill="white"/>
</svg>
