<?xml version="1.0" encoding="utf-8"?>
<!-- Generator: Adobe Illustrator 16.0.0, SVG Export Plug-In . SVG Version: 6.00 Build 0)  -->
<!DOCTYPE svg PUBLIC "-//W3C//DTD SVG 1.1//EN" "http://www.w3.org/Graphics/SVG/1.1/DTD/svg11.dtd">
<svg version="1.1" id="Layer_1" xmlns="http://www.w3.org/2000/svg" xmlns:xlink="http://www.w3.org/1999/xlink" x="0px" y="0px"
	 width="288px" height="110.5px" viewBox="0 0 288 110.5" enable-background="new 0 0 288 110.5" xml:space="preserve">
<path fill="#747474" d="M54.58,28.3h-24.25L7.271,94.514h16.697c4.55,0,8.569-2.871,10.071-7.156L54.58,28.3z"/>
<path fill="#002854" d="M54.58,76.402h3.18V91.73h9.188v2.738H54.58V76.402z M96.322,81.395h-2.871v7.598
	c0,0.485-0.044,0.971-0.177,1.413c-0.088,0.442-0.309,0.795-0.53,1.148c-0.265,0.31-0.574,0.574-0.972,0.751
	s-0.927,0.266-1.502,0.266c-0.795,0-1.413-0.222-1.855-0.707c-0.442-0.486-0.663-1.281-0.663-2.43v-8.039h-2.871v8.305
	c0,1.723,0.397,3.003,1.148,3.842c0.751,0.84,2.032,1.281,3.71,1.281c0.707,0,1.458-0.177,2.12-0.574
	c0.707-0.397,1.237-0.928,1.59-1.59h0.044v1.811h2.827V81.395z M99.723,94.469h2.871v-7.729c0-0.486,0.088-0.928,0.221-1.325
	c0.133-0.441,0.354-0.795,0.619-1.104c0.265-0.31,0.618-0.574,0.972-0.751c0.397-0.177,0.839-0.266,1.325-0.266
	c0.839,0,1.502,0.222,1.899,0.707c0.397,0.441,0.618,1.193,0.663,2.253v8.216h2.871v-8.967c0-1.502-0.397-2.605-1.237-3.357
	c-0.839-0.75-1.944-1.104-3.401-1.104c-0.839,0-1.634,0.221-2.341,0.618c-0.707,0.397-1.281,0.972-1.723,1.723l-0.044-0.044v-1.943
	h-2.739L99.723,94.469z M117.083,86.342c0.132-0.574,0.354-1.061,0.618-1.502c0.31-0.441,0.663-0.795,1.149-1.104
	c0.486-0.265,1.016-0.397,1.723-0.397c1.104,0,1.987,0.397,2.65,1.236c0.663,0.795,0.972,1.943,0.972,3.401
	c0,0.574-0.088,1.148-0.221,1.679c-0.132,0.53-0.353,1.061-0.663,1.502c-0.309,0.441-0.663,0.795-1.148,1.061
	c-0.486,0.265-1.016,0.396-1.678,0.396c-0.619,0-1.148-0.132-1.634-0.396c-0.442-0.266-0.839-0.574-1.104-1.017
	c-0.309-0.441-0.53-0.884-0.663-1.458c-0.132-0.529-0.221-1.104-0.221-1.634C116.906,87.445,116.95,86.871,117.083,86.342z
	 M126.977,94.469V76.402h-2.871v6.67h-0.044c-0.221-0.354-0.486-0.662-0.839-0.928c-0.309-0.265-0.707-0.485-1.06-0.662
	c-0.397-0.177-0.795-0.309-1.237-0.354c-0.441-0.088-0.839-0.133-1.237-0.133c-0.707,0-1.413,0.133-2.076,0.398
	c-0.663,0.265-1.281,0.662-1.811,1.236c-0.53,0.574-0.972,1.281-1.281,2.121c-0.309,0.838-0.486,1.898-0.486,3.047
	c0,0.973,0.132,1.899,0.397,2.738c0.265,0.84,0.619,1.591,1.148,2.209c0.486,0.619,1.148,1.104,1.899,1.502
	c0.751,0.354,1.679,0.53,2.694,0.53c0.839,0,1.59-0.177,2.341-0.485c0.751-0.31,1.325-0.884,1.679-1.635h0.044v1.767h2.739V94.469z
	 M130.422,81.395v13.074h2.871V88.24c0-0.706,0.088-1.369,0.265-1.943s0.442-1.016,0.751-1.413s0.707-0.663,1.104-0.839
	c0.441-0.178,0.883-0.31,1.369-0.31c0.221,0,0.397,0,0.618,0.044c0.221,0.045,0.398,0.045,0.619,0.088v-2.782
	c-0.133,0-0.265-0.044-0.397-0.044c-0.133,0-0.354-0.045-0.707-0.045c-0.441,0-0.883,0.089-1.281,0.266
	c-0.442,0.177-0.795,0.397-1.148,0.662c-0.354,0.266-0.663,0.574-0.884,0.928c-0.265,0.354-0.397,0.663-0.486,1.016h-0.044V81.35
	h-2.65V81.395z M144.248,94.425l-0.309,1.017c-0.089,0.309-0.178,0.529-0.266,0.75s-0.221,0.398-0.354,0.574
	c-0.133,0.178-0.309,0.266-0.529,0.354s-0.486,0.133-0.84,0.133c-0.221,0-0.486,0-0.662-0.045c-0.221-0.043-0.442-0.088-0.663-0.132
	v2.43c0.663,0.088,1.325,0.132,1.987,0.132c0.752,0,1.369-0.132,1.855-0.354c0.486-0.265,0.884-0.574,1.237-0.971
	c0.31-0.398,0.618-0.884,0.839-1.414s0.441-1.104,0.707-1.679l5.08-13.781h-3.004l-3.313,9.762h-0.045l-3.4-9.762h-3.181
	L144.248,94.425z M161.52,88.418c0,1.104,0.221,2.076,0.618,2.915s0.928,1.502,1.634,2.032c0.663,0.529,1.459,0.928,2.386,1.148
	c0.928,0.265,1.899,0.396,2.915,0.396c0.884,0,1.768-0.088,2.65-0.309c0.884-0.221,1.635-0.53,2.297-1.016
	c0.663-0.441,1.237-1.061,1.635-1.768s0.619-1.59,0.619-2.605c0-0.486-0.089-0.928-0.222-1.414
	c-0.132-0.485-0.354-0.928-0.663-1.324c-0.309-0.398-0.662-0.796-1.104-1.105c-0.441-0.309-0.973-0.574-1.547-0.75
	c-0.221-0.089-0.617-0.178-1.191-0.31c-0.531-0.132-1.105-0.31-1.68-0.442c-0.574-0.132-1.104-0.309-1.545-0.396
	c-0.442-0.133-0.752-0.178-0.795-0.221c-0.663-0.178-1.148-0.442-1.547-0.84c-0.397-0.354-0.574-0.883-0.574-1.502
	c0-0.441,0.088-0.84,0.31-1.148c0.221-0.309,0.485-0.529,0.795-0.707c0.31-0.176,0.663-0.309,1.06-0.396
	c0.398-0.089,0.752-0.133,1.148-0.133c1.105,0,1.988,0.221,2.695,0.707c0.707,0.485,1.104,1.324,1.192,2.473h3.181
	c0-0.928-0.177-1.767-0.574-2.473c-0.354-0.707-0.884-1.326-1.502-1.812c-0.619-0.486-1.369-0.839-2.209-1.104
	c-0.839-0.266-1.723-0.354-2.65-0.354c-0.795,0-1.59,0.088-2.385,0.31c-0.795,0.221-1.502,0.53-2.121,0.972
	c-0.617,0.441-1.148,0.972-1.501,1.678c-0.397,0.663-0.574,1.459-0.574,2.386c0,0.486,0.044,0.928,0.177,1.413
	c0.133,0.442,0.354,0.885,0.662,1.281c0.31,0.398,0.707,0.752,1.236,1.104c0.531,0.31,1.148,0.574,1.944,0.796
	c1.237,0.353,2.297,0.617,3.136,0.839c0.84,0.221,1.59,0.441,2.253,0.662c0.354,0.133,0.707,0.354,1.017,0.707
	c0.309,0.31,0.485,0.839,0.485,1.546c0,0.354-0.089,0.662-0.221,1.016c-0.133,0.354-0.354,0.619-0.663,0.884
	c-0.309,0.265-0.707,0.442-1.192,0.618c-0.485,0.177-1.06,0.221-1.767,0.221c-0.662,0-1.236-0.088-1.768-0.221
	c-0.529-0.133-1.016-0.354-1.457-0.662c-0.441-0.31-0.751-0.707-0.972-1.193c-0.222-0.485-0.354-1.06-0.354-1.767L161.52,88.418z
	 M182.678,94.425l-0.31,1.017c-0.088,0.309-0.177,0.529-0.265,0.75s-0.221,0.398-0.354,0.574c-0.133,0.178-0.309,0.266-0.53,0.354
	c-0.221,0.088-0.485,0.133-0.839,0.133c-0.221,0-0.486,0-0.662-0.045c-0.222-0.043-0.442-0.088-0.663-0.132v2.43
	c0.663,0.088,1.325,0.132,1.987,0.132c0.751,0,1.369-0.132,1.855-0.354c0.486-0.265,0.883-0.574,1.236-0.971
	c0.31-0.398,0.619-0.884,0.84-1.414s0.441-1.104,0.707-1.679l5.08-13.781h-3.004l-3.313,9.762H184.4l-3.401-9.762h-3.181
	L182.678,94.425z M191.865,90.273c0,0.795,0.177,1.457,0.486,2.031c0.309,0.574,0.707,1.016,1.192,1.414
	c0.53,0.396,1.104,0.662,1.812,0.839c0.706,0.177,1.457,0.265,2.297,0.265c0.662,0,1.369-0.088,2.031-0.221
	c0.707-0.133,1.325-0.397,1.899-0.751s1.017-0.795,1.37-1.325c0.353-0.529,0.529-1.192,0.529-1.988c0-0.662-0.133-1.191-0.354-1.634
	c-0.265-0.441-0.574-0.795-0.972-1.104c-0.397-0.309-0.839-0.529-1.369-0.662c-0.485-0.177-1.017-0.31-1.546-0.441
	c-0.53-0.133-1.061-0.221-1.59-0.31c-0.486-0.089-0.973-0.222-1.369-0.354c-0.398-0.132-0.707-0.31-0.973-0.53
	c-0.265-0.221-0.354-0.529-0.354-0.883c0-0.31,0.089-0.53,0.266-0.707c0.176-0.177,0.397-0.31,0.618-0.397
	c0.265-0.089,0.485-0.177,0.795-0.177c0.265-0.045,0.53-0.045,0.707-0.045c0.663,0,1.192,0.133,1.723,0.354
	c0.485,0.221,0.795,0.707,0.928,1.414h3.003c-0.088-0.707-0.309-1.325-0.617-1.855c-0.311-0.529-0.752-0.928-1.237-1.236
	c-0.485-0.31-1.06-0.574-1.679-0.707c-0.618-0.133-1.281-0.221-1.943-0.221c-0.574,0-1.193,0.044-1.855,0.177
	c-0.662,0.132-1.236,0.31-1.767,0.618s-0.972,0.662-1.325,1.148s-0.53,1.061-0.53,1.768c0,0.662,0.133,1.191,0.354,1.678
	c0.221,0.441,0.574,0.795,0.928,1.104c0.397,0.31,0.839,0.53,1.325,0.663c0.486,0.176,1.016,0.309,1.546,0.441
	s1.06,0.221,1.546,0.309c0.486,0.089,0.972,0.221,1.369,0.354s0.707,0.354,0.973,0.574c0.264,0.221,0.396,0.53,0.396,0.928
	c0,0.354-0.088,0.662-0.265,0.883c-0.177,0.222-0.442,0.398-0.751,0.531c-0.309,0.132-0.618,0.176-0.972,0.221
	c-0.354,0.044-0.663,0.044-0.928,0.044c-0.795,0-1.458-0.177-1.987-0.485c-0.574-0.354-0.884-0.928-0.973-1.768L191.865,90.273z
	 M204.896,81.395L204.896,81.395v2.164h2.164v7.73c0,0.529,0.088,1.016,0.177,1.457s0.265,0.795,0.53,1.061
	c0.265,0.265,0.618,0.486,1.104,0.618c0.441,0.133,1.061,0.221,1.855,0.221c0.31,0,0.619,0,0.928-0.044s0.619-0.088,0.928-0.088
	v-2.209c-0.221,0.044-0.397,0.088-0.619,0.088c-0.221,0-0.396,0-0.617,0c-0.31,0-0.574-0.044-0.752-0.133
	c-0.176-0.088-0.309-0.176-0.396-0.353c-0.089-0.133-0.133-0.354-0.178-0.574c-0.044-0.222-0.044-0.485-0.044-0.796v-6.979h2.606
	v-2.164h-2.606v-3.932h-2.871v3.932H204.896L204.896,81.395z M223.669,86.783L223.669,86.783h-6.714
	c0-0.486,0.133-0.928,0.309-1.369c0.178-0.441,0.398-0.795,0.707-1.104c0.31-0.31,0.662-0.574,1.061-0.751
	c0.397-0.177,0.883-0.266,1.369-0.266s0.928,0.089,1.325,0.31c0.397,0.177,0.751,0.442,1.016,0.751
	c0.265,0.31,0.486,0.662,0.663,1.104C223.537,85.855,223.625,86.297,223.669,86.783L223.669,86.783z M216.955,88.683h9.629
	c0.133-0.972,0.045-1.943-0.176-2.827c-0.266-0.928-0.619-1.723-1.193-2.43c-0.529-0.707-1.236-1.281-2.031-1.723
	c-0.84-0.441-1.723-0.662-2.783-0.662c-0.972,0-1.855,0.177-2.65,0.574c-0.795,0.354-1.457,0.883-1.988,1.502
	c-0.529,0.618-0.971,1.369-1.28,2.209c-0.31,0.838-0.442,1.723-0.442,2.649c0,1.017,0.133,1.944,0.398,2.783
	c0.265,0.839,0.707,1.59,1.236,2.164c0.53,0.618,1.236,1.061,2.032,1.413c0.795,0.354,1.723,0.486,2.738,0.486
	c0.707,0,1.37-0.088,2.032-0.309c0.662-0.178,1.236-0.486,1.767-0.84c0.53-0.397,0.972-0.839,1.325-1.414
	c0.354-0.574,0.619-1.191,0.795-1.898h-2.738c-0.266,0.707-0.619,1.281-1.148,1.635c-0.53,0.353-1.193,0.529-2.032,0.529
	c-0.618,0-1.148-0.088-1.59-0.309c-0.442-0.221-0.796-0.486-1.104-0.84s-0.486-0.751-0.662-1.236
	C217.043,89.654,216.955,89.168,216.955,88.683L216.955,88.683z M229.234,94.469h2.871v-7.773c0-0.531,0.089-1.017,0.221-1.458
	c0.178-0.442,0.354-0.796,0.619-1.06c0.265-0.266,0.574-0.486,0.928-0.663c0.354-0.133,0.707-0.222,1.06-0.222
	c0.884,0,1.502,0.222,1.812,0.707c0.309,0.486,0.486,1.148,0.486,2.076v8.393h2.871v-7.686c0-1.104,0.221-1.988,0.662-2.563
	c0.441-0.617,1.148-0.928,2.12-0.928c0.574,0,1.017,0.089,1.325,0.266s0.574,0.397,0.707,0.707c0.176,0.309,0.265,0.662,0.309,1.104
	c0.045,0.442,0.045,0.928,0.045,1.414v7.642h2.871v-9.011c0-1.59-0.398-2.738-1.148-3.401c-0.752-0.663-1.855-1.017-3.225-1.017
	c-0.973,0-1.768,0.178-2.386,0.574c-0.618,0.398-1.192,0.928-1.679,1.591c-0.309-0.751-0.75-1.281-1.457-1.634
	c-0.707-0.354-1.414-0.531-2.209-0.531c-0.53,0-0.972,0.045-1.369,0.178c-0.398,0.132-0.751,0.265-1.061,0.441
	c-0.309,0.177-0.574,0.397-0.839,0.662c-0.265,0.266-0.485,0.574-0.707,0.884h-0.089V81.35h-2.738V94.469z M250.923,90.273
	c0,0.795,0.177,1.457,0.485,2.031c0.311,0.574,0.707,1.016,1.237,1.414c0.53,0.396,1.104,0.662,1.812,0.839s1.457,0.265,2.297,0.265
	c0.662,0,1.369-0.088,2.031-0.221c0.707-0.133,1.326-0.397,1.9-0.751s1.016-0.795,1.369-1.325c0.354-0.529,0.529-1.192,0.529-1.988
	c0-0.662-0.133-1.191-0.354-1.634c-0.265-0.441-0.574-0.795-0.971-1.104c-0.398-0.309-0.84-0.529-1.37-0.662
	c-0.485-0.177-1.016-0.31-1.546-0.441c-0.529-0.133-1.061-0.221-1.59-0.31c-0.53-0.089-0.973-0.222-1.369-0.354
	c-0.398-0.132-0.707-0.31-0.973-0.53c-0.265-0.221-0.354-0.529-0.354-0.883c0-0.31,0.089-0.53,0.266-0.707s0.397-0.31,0.619-0.397
	c0.264-0.089,0.485-0.177,0.795-0.177c0.265-0.045,0.529-0.045,0.706-0.045c0.663,0,1.192,0.133,1.723,0.354
	c0.485,0.221,0.796,0.707,0.928,1.414h3.004c-0.089-0.707-0.31-1.325-0.618-1.855c-0.31-0.529-0.752-0.928-1.237-1.236
	c-0.485-0.31-1.06-0.574-1.679-0.707c-0.618-0.133-1.281-0.221-1.943-0.221c-0.574,0-1.192,0.044-1.855,0.177
	c-0.662,0.132-1.236,0.31-1.767,0.618s-0.972,0.662-1.325,1.148s-0.529,1.061-0.529,1.768c0,0.662,0.132,1.191,0.353,1.678
	c0.222,0.441,0.574,0.795,0.928,1.104c0.397,0.31,0.839,0.53,1.325,0.663c0.486,0.176,1.016,0.309,1.546,0.441
	s1.06,0.221,1.546,0.309c0.486,0.089,0.973,0.221,1.369,0.354c0.398,0.133,0.707,0.354,0.973,0.574
	c0.265,0.221,0.396,0.53,0.396,0.928c0,0.354-0.088,0.662-0.265,0.883c-0.177,0.222-0.441,0.398-0.751,0.531
	c-0.309,0.132-0.618,0.176-0.972,0.221c-0.353,0.044-0.663,0.044-0.927,0.044c-0.752,0-1.459-0.177-1.988-0.485
	c-0.574-0.354-0.884-0.928-0.973-1.768L250.923,90.273z M78.609,87.888c0-1.458-0.309-2.562-0.972-3.401
	c-0.663-0.795-1.546-1.193-2.65-1.193c-0.663,0-1.237,0.133-1.723,0.398c-0.486,0.265-0.839,0.618-1.148,1.104
	c-0.309,0.442-0.486,0.973-0.619,1.502c-0.132,0.574-0.176,1.148-0.176,1.723s0.088,1.104,0.221,1.635
	c0.132,0.53,0.354,1.016,0.663,1.457c0.309,0.442,0.663,0.752,1.148,1.017c0.441,0.265,0.972,0.397,1.634,0.397
	c0.619,0,1.193-0.133,1.679-0.397c0.441-0.265,0.839-0.618,1.148-1.06c0.309-0.442,0.53-0.928,0.663-1.502
	C78.609,88.992,78.609,88.462,78.609,87.888z M81.392,81.35v13.119h-2.738v-1.767h-0.044c-0.397,0.751-0.972,1.325-1.679,1.634
	c-0.75,0.31-1.546,0.486-2.341,0.486c-1.016,0-1.944-0.177-2.694-0.529c-0.751-0.354-1.414-0.84-1.899-1.502
	c-0.486-0.619-0.884-1.369-1.148-2.209c-0.265-0.84-0.398-1.768-0.398-2.738c0-1.193,0.177-2.209,0.486-3.049
	c0.31-0.883,0.751-1.59,1.281-2.119c0.53-0.574,1.148-0.973,1.811-1.237s1.369-0.397,2.076-0.397c0.397,0,0.795,0.044,1.237,0.133
	c0.441,0.088,0.839,0.176,1.192,0.354c0.397,0.176,0.751,0.396,1.06,0.662c0.31,0.265,0.619,0.574,0.839,0.928h0.044V81.35H81.392z
	 M183.164,36.958c-3.357,0-6.494,1.104-8.967,3.003v-2.164h-6.008v28.357h6.008h1.501V51.932c0-4.152,3.357-7.465,7.466-7.465
	c4.151,0,7.465,3.357,7.465,7.465v14.223h7.465V51.932C198.094,43.671,191.424,36.958,183.164,36.958z M154.85,51.932
	c0-4.152-3.357-7.465-7.465-7.465c-4.152,0-7.465,3.357-7.465,7.465c0,4.152,3.357,7.465,7.465,7.465
	C151.492,59.396,154.85,56.04,154.85,51.932z M156.352,37.752h6.007v28.359h-6.007v-2.253c-2.518,1.9-5.61,3.003-8.967,3.003
	c-8.261,0-14.975-6.714-14.975-14.974c0-8.26,6.714-14.975,14.975-14.975c3.356,0,6.492,1.104,8.967,3.004V37.752z M77.417,52.638
	l-5.036-14.444l-5.036,14.444H77.417z M77.063,28.3l13.163,37.812h-8.083l-2.606-7.51H65.313l-1.767,5.124
	c-0.486,1.413-1.855,2.386-3.357,2.386h-5.566L67.787,28.3H77.063z M120.396,66.154h7.465V37.797h-7.465V66.154z M120.396,34.307
	h7.465V28.3h-7.465V34.307z M107.188,66.154h7.465V28.344h-7.465V66.154z M94.025,66.154h7.465V28.344h-7.465V66.154z
	 M216.91,44.422c2.297,0,4.33,1.016,5.699,2.65l7.729-1.723c-2.429-4.992-7.554-8.393-13.429-8.393
	c-8.26,0-14.974,6.714-14.974,14.974l0,0c0,8.26,6.714,14.975,14.974,14.975c5.92,0,11-3.446,13.429-8.393l-7.729-1.723
	c-1.369,1.634-3.402,2.65-5.699,2.65c-4.151,0-7.465-3.357-7.465-7.465C209.401,47.779,212.759,44.422,216.91,44.422z
	 M241.028,48.928h13.693c-1.148-2.65-3.799-4.505-6.847-4.505S242.221,46.278,241.028,48.928z M262.894,51.932
	c0,1.016-0.089,2.032-0.31,3.004h-21.512c1.148,2.65,3.799,4.505,6.848,4.505c2.297,0,4.328-1.016,5.697-2.65l7.73,1.723
	c-2.43,4.992-7.554,8.393-13.428,8.393c-8.261,0-14.975-6.714-14.975-14.975l0,0c0-8.26,6.714-14.974,14.975-14.974
	c7.994,0,14.531,6.272,14.93,14.223c0,0.044,0,0.044,0,0.088C262.85,51.446,262.894,51.667,262.894,51.932z M264.527,32.54v4.417
	h0.663V32.54h1.634v-0.574h-3.975v0.574H264.527z M267.398,32.01v4.947h0.619V32.85l0,0l1.546,4.108h0.574l1.546-4.108l0,0v4.108
	h0.619V32.01h-0.884l-1.546,4.152l-1.547-4.152H267.398L267.398,32.01z"/>
</svg>
