<?xml version="1.0" encoding="utf-8"?>
<!-- Generator: Adobe Illustrator 16.0.0, SVG Export Plug-In . SVG Version: 6.00 Build 0)  -->
<!DOCTYPE svg PUBLIC "-//W3C//DTD SVG 1.1//EN" "http://www.w3.org/Graphics/SVG/1.1/DTD/svg11.dtd">
<svg version="1.1" id="Layer_1" xmlns="http://www.w3.org/2000/svg" xmlns:xlink="http://www.w3.org/1999/xlink" x="0px" y="0px"
	 width="288px" height="76.667px" viewBox="0 0 288 76.667" enable-background="new 0 0 288 76.667" xml:space="preserve">
<g>
	<path fill="#BE1E2F" d="M56.363,26.165c0-5.035,2.681-9.435,6.675-11.825c-3.028-1.228-6.338-1.906-9.807-1.906
		c-14.423,0-26.116,11.693-26.116,26.116c0,1.862,0.197,3.677,0.568,5.429c0.916-0.583,3.173-1.383,8.361-0.719
		c0,0-1.651-5.688,2.019-11.193c0,0-3.547,4.22-4.22,4.771c0,0-1.712-2.447,3.303-8.318c0,0-3.058,0.856-4.159,0.856
		c0,0,0.612-6.544,7.768-4.832l-2.814-2.752c0,0,5.688-3.303,7.523,2.752c0,0,4.832,0,5.994,5.872c0,0-1.713-0.184-2.752-1.346
		c0,0,0.795,4.403-1.958,6.667c0,0-0.306-2.446-1.284-3.67c0,0-0.856,3.119-3.119,4.404l-1.101-0.122c0,0,1.101-2.997,0.307-4.159
		c0,0-5.382,7.646,0.061,12.293c0,0,6.45-1.651,11.727-2.08c5.276-0.428,11.086,2.08,16.346,2.08c4.316,0,6.942,0.123,9.2-1.016
		c0.304-1.592,0.464-3.236,0.464-4.917c0-0.808-0.039-1.604-0.11-2.393c-2.43,2.315-5.701,3.738-9.303,3.738
		C62.439,39.896,56.363,33.748,56.363,26.165z"/>
	<path fill="#0158B0" d="M46.993,55.002c5.444,0.979,13.701-0.917,15.841-0.733c1.778,0.151,8.658,0.347,10.941,0.407
		c1.25-1.59,2.319-3.33,3.176-5.188c-7.772,0.896-12.811-0.427-19.927-1.642c-7.522-1.285-16.085,1.651-19.266,1.773
		c-2.211,0.086-5.959,0.229-8.039,0.309c0.771,1.59,1.699,3.089,2.762,4.479C36.633,53.893,42.547,54.204,46.993,55.002z"/>
	<path fill="#0158B0" d="M54.455,57.327c-6.177,0.795-6.299-0.429-13.333-1.406c-3.547-0.494-5.755-0.132-7.074,0.349
		c4.771,5.163,11.599,8.397,19.184,8.397c7.697,0,14.616-3.33,19.395-8.629C64.153,55.583,60.059,56.606,54.455,57.327z"/>
</g>
<g>
	<g>
		<path fill="#0158B0" d="M100.855,55.316l0.037-4.082c0-1.519-0.155-2.562-0.466-3.13s-0.849-1.037-1.612-1.406
			s-1.925-0.554-3.484-0.554c-1.717,0-3.012,0.307-3.883,0.921c-0.871,0.613-1.485,1.56-1.842,2.837l3.173,0.572
			c0.216-0.613,0.498-1.043,0.846-1.288c0.349-0.244,0.834-0.367,1.456-0.367c0.921,0,1.547,0.144,1.879,0.43
			c0.332,0.286,0.498,0.766,0.498,1.438v0.349c-0.63,0.266-1.763,0.552-3.397,0.858c-1.211,0.232-2.139,0.504-2.781,0.815
			c-0.643,0.311-1.143,0.759-1.5,1.344c-0.356,0.585-0.535,1.251-0.535,1.997c0,1.129,0.392,2.063,1.176,2.801
			s1.856,1.107,3.217,1.107c0.772,0,1.498-0.146,2.178-0.436c0.68-0.29,1.319-0.726,1.917-1.307c0.025,0.066,0.066,0.203,0.125,0.41
			c0.132,0.457,0.245,0.801,0.336,1.033h3.459c-0.307-0.631-0.517-1.222-0.628-1.773S100.855,56.477,100.855,55.316z M97.458,54.008
			c0,0.839-0.046,1.406-0.137,1.705c-0.133,0.457-0.411,0.843-0.834,1.157c-0.572,0.415-1.174,0.623-1.805,0.623
			c-0.564,0-1.029-0.179-1.394-0.535c-0.365-0.357-0.548-0.78-0.548-1.27c0-0.498,0.229-0.908,0.685-1.232
			c0.299-0.199,0.934-0.402,1.904-0.609s1.68-0.386,2.128-0.535V54.008z"/>
		<polygon fill="#0158B0" points="107.836,41.415 104.34,41.415 104.34,57.333 104.34,59.659 107.836,59.659 109.5,59.659 
			109.5,57.333 107.836,57.333 		"/>
		<path fill="#0158B0" d="M118.427,59.049c0,1.078-0.038,1.726-0.112,1.941c-0.075,0.215-0.226,0.399-0.454,0.554
			c-0.229,0.153-0.521,0.229-0.877,0.229c-0.125,0-0.259-0.01-0.404-0.03c-0.145-0.021-0.301-0.048-0.467-0.081l-0.61,2.986
			c0.465,0.125,0.898,0.218,1.301,0.28s0.778,0.093,1.126,0.093c0.971,0,1.769-0.194,2.396-0.584c0.626-0.391,1.05-0.932,1.27-1.625
			c0.22-0.692,0.33-1.881,0.33-3.565V46.442h-3.497V59.049z"/>
		<rect x="118.427" y="41.415" fill="#0158B0" width="3.497" height="3.235"/>
		<path fill="#0158B0" d="M136.273,55.316l0.037-4.082c0-1.519-0.155-2.562-0.466-3.13s-0.849-1.037-1.612-1.406
			s-1.925-0.554-3.484-0.554c-1.717,0-3.012,0.307-3.883,0.921c-0.871,0.613-1.485,1.56-1.842,2.837l3.173,0.572
			c0.216-0.613,0.498-1.043,0.846-1.288c0.349-0.244,0.834-0.367,1.456-0.367c0.921,0,1.547,0.144,1.879,0.43
			c0.332,0.286,0.498,0.766,0.498,1.438v0.349c-0.63,0.266-1.763,0.552-3.397,0.858c-1.211,0.232-2.139,0.504-2.781,0.815
			c-0.643,0.311-1.143,0.759-1.5,1.344c-0.356,0.585-0.535,1.251-0.535,1.997c0,1.129,0.392,2.063,1.176,2.801
			s1.856,1.107,3.217,1.107c0.772,0,1.498-0.146,2.178-0.436c0.68-0.29,1.319-0.726,1.917-1.307c0.025,0.066,0.066,0.203,0.125,0.41
			c0.132,0.457,0.245,0.801,0.336,1.033h3.459c-0.307-0.631-0.517-1.222-0.628-1.773S136.273,56.477,136.273,55.316z
			 M132.875,54.008c0,0.839-0.046,1.406-0.137,1.705c-0.133,0.457-0.411,0.843-0.834,1.157c-0.572,0.415-1.174,0.623-1.805,0.623
			c-0.564,0-1.029-0.179-1.394-0.535c-0.365-0.357-0.548-0.78-0.548-1.27c0-0.498,0.229-0.908,0.685-1.232
			c0.299-0.199,0.934-0.402,1.904-0.609s1.68-0.386,2.128-0.535V54.008z"/>
		<path fill="#0158B0" d="M146.938,46.144c-1.477,0-2.754,0.613-3.832,1.842v-6.571h-3.497v18.244h3.248v-1.941
			c0.531,0.738,1.163,1.297,1.897,1.674c0.734,0.378,1.479,0.566,2.234,0.566c1.535,0,2.84-0.61,3.914-1.829
			c1.074-1.22,1.611-2.958,1.611-5.215c0-2.182-0.527-3.855-1.58-5.021C149.879,46.726,148.547,46.144,146.938,46.144z
			 M148.115,56.206c-0.545,0.659-1.201,0.989-1.973,0.989c-1.004,0-1.81-0.465-2.415-1.394c-0.432-0.656-0.647-1.668-0.647-3.037
			c0-1.327,0.278-2.316,0.833-2.968s1.252-0.978,2.092-0.978c0.854,0,1.555,0.334,2.102,1.002c0.549,0.668,0.822,1.757,0.822,3.267
			C148.93,54.506,148.658,55.545,148.115,56.206z"/>
		<path fill="#0158B0" d="M159.925,46.567c-0.444,0.282-0.943,0.867-1.5,1.755v-1.88h-3.248v13.217h3.497v-4.082
			c0-2.248,0.098-3.725,0.293-4.431c0.194-0.705,0.462-1.192,0.803-1.462c0.34-0.27,0.755-0.404,1.244-0.404
			c0.506,0,1.054,0.19,1.643,0.572l1.083-3.049c-0.738-0.439-1.506-0.659-2.303-0.659C160.873,46.144,160.368,46.285,159.925,46.567
			z"/>
		<polygon fill="#0158B0" points="175.822,41.415 172.325,41.415 172.325,57.333 172.325,59.659 175.822,59.659 177.485,59.659 
			177.485,57.333 175.822,57.333 		"/>
		<path fill="#0158B0" d="M190.097,55.316l0.037-4.082c0-1.519-0.155-2.562-0.467-3.13c-0.311-0.568-0.848-1.037-1.611-1.406
			s-1.925-0.554-3.484-0.554c-1.718,0-3.012,0.307-3.883,0.921c-0.871,0.613-1.485,1.56-1.842,2.837l3.173,0.572
			c0.216-0.613,0.498-1.043,0.847-1.288c0.349-0.244,0.834-0.367,1.456-0.367c0.921,0,1.547,0.144,1.879,0.43
			s0.498,0.766,0.498,1.438v0.349c-0.631,0.266-1.763,0.552-3.397,0.858c-1.211,0.232-2.139,0.504-2.781,0.815
			c-0.644,0.311-1.144,0.759-1.5,1.344s-0.535,1.251-0.535,1.997c0,1.129,0.393,2.063,1.177,2.801
			c0.783,0.738,1.855,1.107,3.217,1.107c0.771,0,1.497-0.146,2.178-0.436c0.68-0.29,1.319-0.726,1.916-1.307
			c0.025,0.066,0.066,0.203,0.125,0.41c0.133,0.457,0.244,0.801,0.336,1.033h3.46c-0.308-0.631-0.517-1.222-0.629-1.773
			S190.097,56.477,190.097,55.316z M186.699,54.008c0,0.839-0.046,1.406-0.137,1.705c-0.133,0.457-0.411,0.843-0.834,1.157
			c-0.572,0.415-1.174,0.623-1.805,0.623c-0.564,0-1.028-0.179-1.394-0.535c-0.365-0.357-0.548-0.78-0.548-1.27
			c0-0.498,0.229-0.908,0.685-1.232c0.299-0.199,0.934-0.402,1.904-0.609s1.68-0.386,2.128-0.535V54.008z"/>
		<path fill="#0158B0" d="M202.031,52.017c0,1.892-0.087,3.08-0.261,3.565c-0.175,0.485-0.498,0.893-0.971,1.22
			c-0.474,0.328-1.009,0.492-1.605,0.492c-0.523,0-0.954-0.123-1.295-0.367c-0.34-0.245-0.574-0.577-0.703-0.996
			s-0.192-1.558-0.192-3.416v-6.073h-3.497v8.363c0,1.244,0.157,2.22,0.473,2.925s0.825,1.253,1.531,1.643
			c0.705,0.39,1.501,0.585,2.389,0.585c0.871,0,1.699-0.203,2.483-0.61c0.783-0.406,1.416-0.962,1.897-1.667v1.979h3.248V46.442
			h-3.497V52.017z"/>
		<path fill="#0158B0" d="M220.294,47.625c-0.328-0.432-0.811-0.786-1.449-1.064c-0.64-0.277-1.345-0.416-2.116-0.416
			c-1.751,0-3.202,0.746-4.355,2.239v-1.941h-3.248v13.217h3.497v-5.986c0-1.477,0.089-2.488,0.268-3.036
			c0.178-0.548,0.508-0.987,0.989-1.319c0.48-0.332,1.024-0.498,1.63-0.498c0.473,0,0.878,0.116,1.214,0.349
			s0.578,0.559,0.728,0.978s0.225,1.342,0.225,2.769v6.745h3.497v-8.214c0-1.021-0.064-1.805-0.193-2.352
			C220.85,48.545,220.622,48.056,220.294,47.625z"/>
		<path fill="#0158B0" d="M233.343,47.986c-1.079-1.229-2.356-1.842-3.833-1.842c-1.61,0-2.941,0.582-3.995,1.748
			s-1.581,2.868-1.581,5.108c0,2.19,0.542,3.897,1.624,5.121c1.083,1.224,2.384,1.836,3.902,1.836c0.746,0,1.486-0.185,2.221-0.554
			s1.371-0.932,1.91-1.687v1.941h3.248V41.415h-3.496V47.986z M232.509,56.167c-0.564,0.685-1.249,1.027-2.054,1.027
			c-1.013,0-1.801-0.456-2.364-1.369c-0.391-0.631-0.585-1.651-0.585-3.062c0-1.311,0.28-2.296,0.84-2.956
			c0.56-0.659,1.255-0.989,2.085-0.989c0.854,0,1.556,0.334,2.103,1.002c0.548,0.668,0.821,1.761,0.821,3.279
			C233.354,54.461,233.072,55.484,232.509,56.167z"/>
		<path fill="#0158B0" d="M258.519,46.442l-3.086,9.384l-3.161-9.384h-3.722l0.134,0.353c-0.733-0.433-1.495-0.65-2.286-0.65
			c-0.563,0-1.068,0.141-1.512,0.423c-0.444,0.282-0.943,0.867-1.5,1.755v-1.88h-3.248v13.217h3.497v-4.082
			c0-2.248,0.098-3.725,0.293-4.431c0.194-0.705,0.462-1.192,0.803-1.462c0.34-0.27,0.755-0.404,1.244-0.404
			c0.506,0,1.054,0.19,1.643,0.572l1.076-3.03l4.885,12.874c-0.208,0.738-0.507,1.347-0.896,1.823
			c-0.39,0.478-0.991,0.716-1.805,0.716c-0.439,0-0.933-0.054-1.48-0.162l0.312,2.738c0.646,0.141,1.307,0.211,1.979,0.211
			c0.663,0,1.259-0.07,1.785-0.211c0.527-0.142,0.971-0.338,1.332-0.591c0.361-0.254,0.681-0.583,0.958-0.99
			c0.278-0.406,0.57-0.995,0.878-1.767l0.834-2.303l4.666-12.719H258.519z"/>
	</g>
</g>
<g>
	<path fill="#0158B0" d="M145.738,31.591h-7.15c0.056-4.393-1.068-7.558-3.368-9.404c-3.348-2.688-7.77-1.404-7.957-1.348
		l0.881,2.962c0.031-0.008,3.088-0.868,5.156,0.808c1.5,1.216,2.25,3.617,2.202,6.982h-27.364c-1.515,0-2.747-1.232-2.747-2.747
		v-6.525h-3.091v6.525c0,1.515-1.232,2.747-2.747,2.747h-4.472v-9.959h-3.091v12.535c0,1.515-1.232,2.748-2.747,2.748v3.091
		c3.045,0,5.55-2.345,5.812-5.323h4.498c1.698,0,3.225-0.733,4.292-1.895c1.068,1.162,2.594,1.895,4.292,1.895h40.69V12.016h-3.091
		V31.591z"/>
	<rect x="152.435" y="12.016" fill="#0158B0" width="3.091" height="21.121"/>
	<path fill="#0158B0" d="M261.648,23.73c-1.031-2.175-2.822-3.388-4.753-3.245c-4.98,0.365-8.175,7.337-9.236,10.056
		c-2.928,0.182-5.384,0.021-7.403-0.359c1.899-1.543,3.198-3.432,3.655-5.256c0.332-1.328-0.021-2.539-0.995-3.409
		c-2.393-2.139-7.897-1.496-10.866-0.389c-1.938,0.722-2.909,2.681-2.419,4.873c0.291,1.295,1.203,2.891,3.003,4.293
		c-0.662,0.11-1.354,0.17-2.069,0.17c-3.94,0-5.67-1.194-6.251-1.732v-6.706h-3.091v7.28c0,1.259-1.023,2.284-2.283,2.284
		s-2.284-1.024-2.284-2.284v-0.463v-3.778v-2.49h-3.091v2.49v3.778c0,1.489-0.939,2.747-2.053,2.747h-3.132
		c-1.113,0-2.053-1.258-2.053-2.747v-4.121h-3.091v4.121c0,1.515-1.232,2.747-2.748,2.747h-3.736c-1.24,0-2.28-0.832-2.62-1.962
		c0.035-0.257,0.06-0.518,0.06-0.785V12.016h-3.091v7.556h-0.188v9.272c0,0.267,0.024,0.527,0.06,0.785
		c-0.34,1.131-1.379,1.962-2.62,1.962h-0.023h-5.993h-0.023c-1.515,0-2.747-1.232-2.747-2.747v-9.272h-3.091v1.261
		c-2.562,0.171-7.451,0.848-9.333,3.514c-1.229,1.742-1.818,4.624-0.204,6.833c0.89,1.218,2.563,2.377,5.704,2.377
		c1.433,0,3.194-0.263,5.305-0.85c1.07,1.208,2.629,1.976,4.366,1.976h0.023h5.993h0.023c1.649,0,3.138-0.689,4.2-1.792
		c1.063,1.102,2.55,1.792,4.199,1.792h3.736c1.646,0,3.134-0.688,4.196-1.787c0.936,1.1,2.244,1.787,3.695,1.787h3.132
		c1.387,0,2.646-0.628,3.571-1.646c0.978,1.011,2.342,1.646,3.856,1.646c1.981,0,3.696-1.09,4.628-2.689
		c1.4,0.807,3.611,1.563,6.997,1.563c2.167,0,4.186-0.441,5.967-1.173c2.244,0.806,5.117,1.327,8.747,1.327
		c1.131,0,2.337-0.051,3.617-0.159l1.01-0.085l0.313-0.923c5.968,2.07,9.018,0.69,10.543-0.918
		C262.881,29.389,262.707,25.966,261.648,23.73z M169.433,29.355c-0.676-0.924-0.384-2.352,0.234-3.226
		c0.912-1.292,4.133-1.997,6.808-2.201v4.915c0,0.356,0.037,0.703,0.099,1.042C172.979,30.802,170.359,30.623,169.433,29.355z
		 M236.427,29.01c-2.312-1.062-3.509-2.476-3.779-3.685c-0.086-0.386-0.139-1.069,0.483-1.301c1.535-0.573,3.299-0.83,4.772-0.83
		c1.378,0,2.503,0.225,2.952,0.627c0.078,0.069,0.12,0.106,0.058,0.354C240.525,25.726,238.896,27.693,236.427,29.01z
		 M258.52,29.496c-1.194,1.261-3.744,1.314-7.104,0.188c1.313-2.694,3.425-5.948,5.705-6.115c0.754-0.072,1.377,0.733,1.733,1.485
		C259.496,26.408,259.588,28.37,258.52,29.496z"/>
</g>
<path fill="#0158B0" d="M172.834,10.351c-2.579,0-2.579,4,0,4S175.413,10.351,172.834,10.351z"/>
<path fill="#0158B0" d="M177.667,10.518c-2.579,0-2.579,4,0,4S180.246,10.518,177.667,10.518z"/>
<path fill="#0158B0" d="M236.746,13.561c-2.657,0-2.657,4.121,0,4.121S239.403,13.561,236.746,13.561z"/>
<path fill="#0158B0" d="M132.172,36.056c-2.658,0-2.658,4.121,0,4.121S134.83,36.056,132.172,36.056z"/>
<path fill="#0158B0" d="M104.011,36.399c-2.658,0-2.658,4.121,0,4.121S106.669,36.399,104.011,36.399z"/>
</svg>
