<svg width="121" height="40" viewBox="0 0 121 40" fill="none" xmlns="http://www.w3.org/2000/svg">
<path fill-rule="evenodd" clip-rule="evenodd" d="M0.829459 40H16.137C20.2187 40 23.9822 36.3402 23.9822 32.0506C23.9822 25.9939 17.0941 23.2184 13.2668 20.0634C12.5655 19.4951 12.5018 18.9909 13.9044 18.9909H23.0889V15.6476H8.99332C7.27129 15.6476 6.56934 16.7195 6.56934 17.5403C6.56934 19.8116 10.6516 22.083 13.2662 23.6597C16.0727 25.3 20.1544 28.7701 20.1544 31.9244C20.1544 34.7006 17.6035 36.5305 15.2433 36.5305H0.829459V40ZM23.0889 9.4634V12.9335H8.67454C6.37872 12.9335 3.76347 14.7634 3.76347 17.539C3.76347 20.7568 7.3988 23.1543 10.2053 24.7945C12.8205 26.372 17.4121 30.1572 17.4121 31.8604C17.4121 32.8701 17.5398 33.8165 14.7969 33.8165H0.701948V30.4731H10.5241C11.6086 30.4731 11.6723 29.7165 10.9704 29.211C7.08002 26.0568 0 23.5329 0 17.4134C0 13.1231 3.69972 9.4634 7.78132 9.4634H23.0889ZM26.0867 0V12.8708H29.5307V0H26.0867ZM32.9755 0V12.8708H43.9458V9.4634H36.3558V0H32.9755ZM43.9452 15.647H32.9755V29.7799C32.9755 31.5451 35.2075 33.8171 37.504 33.8171H43.9458V30.4738H39.2898C37.6315 30.4738 36.3558 29.2116 36.3558 28.2019V18.864H43.9458V15.647H43.9452ZM26.0867 15.647H29.5307V30.4731C29.5307 32.8701 32.7198 36.5926 37.3122 36.5926H43.9452V39.9359H37.0571C28.3187 39.9359 26.0867 34.5731 26.0867 30.4725V15.647ZM66.9698 39.6841V24.7951C66.9698 21.5775 64.1639 19.0536 60.7829 19.0536C57.467 19.0536 54.7243 21.5775 54.7243 24.7951C54.7243 27.95 57.467 30.4738 60.7829 30.4738C61.9312 30.4738 62.9526 30.1579 63.9088 29.6536V33.3135C62.8888 33.628 61.8687 33.8177 60.7829 33.8177C55.49 33.8177 51.0889 29.7171 51.0889 24.7324C51.0889 19.7482 55.4893 15.6476 60.7829 15.6476C66.141 15.6476 70.542 19.7482 70.542 24.7324V39.6847H66.9698V39.6841ZM73.5391 39.6841H77.1113V24.7318C77.1113 16.3409 69.7756 9.4634 60.7829 9.4634C51.8547 9.4634 44.5196 16.3402 44.5196 24.7318C44.5196 33.1231 51.8547 40 60.7829 40C61.8043 40 62.8888 39.8737 63.9088 39.6841V36.214C62.8871 36.4683 61.8369 36.5956 60.7829 36.5933C53.8318 36.5933 48.0913 31.2305 48.0913 24.7318C48.0913 18.2335 53.8318 12.8708 60.7829 12.8708C67.7992 12.8708 73.4767 18.2335 73.4767 24.7318L73.5391 39.6841ZM79.5997 9.4634V39.6841H82.9793V9.4634H79.5997ZM86.3603 9.4634V19.9366C89.8043 15.6464 95.0979 12.8701 100.775 12.8701V9.46278C96.6918 9.46278 93.0571 10.725 89.8043 12.8701V9.46278H86.3603V9.4634ZM86.3603 39.6841V28.0756C86.3603 22.3341 92.0363 16.3403 98.2869 15.7725L100.775 16.5926V18.9274C94.0141 18.9274 89.8043 24.7945 89.8043 27.8866V39.6841H86.3603Z" fill="#33348E"/>
<path fill-rule="evenodd" clip-rule="evenodd" d="M111.672 14.7737L113.759 17.7572L113.223 18.5347L108.813 17.5331L106.335 20.5089L105.428 20.1891V16.504L102.958 15.6159L102.981 14.6609L105.492 13.888V13.0217L101.053 13.236L99.348 15.6925L103.903 17.1749L103.846 25.183L109.337 18.8554L118.134 21.3987L113.546 14.5611L119.964 5.77553L119.895 3.85372L111.672 14.7737ZM119.943 2.09668L120.866 2.37905L121 6.08442L114.79 14.5854L119.76 21.9929L119.189 22.7546L109.685 20.007L103.714 26.8881L102.812 26.5569L102.874 17.9021L97.7349 16.2296L100.495 12.2533L106.516 11.9626V14.6294L104.729 15.1792L106.452 15.7986V18.779L108.424 16.4097L112.168 17.2602L110.413 14.7521L119.943 2.09668Z" fill="#33348E"/>
</svg>
