<svg width="78" height="32" viewBox="0 0 78 32" fill="none" xmlns="http://www.w3.org/2000/svg">
<path d="M5.48163 12.4846C5.48163 11.6554 6.17495 11.3363 7.32347 11.3363C8.97 11.3363 11.0499 11.8255 12.6966 12.6974V7.69992C10.8984 6.99821 9.12173 6.72175 7.32347 6.72175C2.925 6.72175 0 8.97594 0 12.74C0 18.609 8.23327 17.6735 8.23327 20.2041C8.23327 21.1821 7.36673 21.5012 6.15332 21.5012C4.35505 21.5012 2.05832 20.7781 0.238266 19.7999V24.8611C2.25332 25.7117 4.29 26.0731 6.15332 26.0731C10.6599 26.0731 13.7583 23.8829 13.7583 20.0764C13.7367 13.7394 5.48163 14.8663 5.48163 12.4846ZM20.1283 2.46876L14.8416 3.57447L14.82 20.608C14.82 23.7554 17.225 26.0731 20.4317 26.0731C22.2084 26.0731 23.5083 25.7542 24.2233 25.3714V21.0546C23.5301 21.331 20.1066 22.3092 20.1066 19.1619V11.6127H24.2233V7.08329H20.1066L20.1283 2.46876ZM30.9617 8.65686L30.615 7.08329H25.935V25.6903H31.3517V13.0802C32.6299 11.4427 34.7967 11.7404 35.4684 11.9743V7.08329C34.7751 6.82806 32.2401 6.36021 30.9617 8.65686ZM36.7899 7.08329H42.2283V25.6903H36.7899V7.08329ZM36.7899 5.46711L42.2283 4.31879V0.00195312L36.7899 1.12905V5.46696V5.46711ZM53.5383 6.72175C51.4149 6.72175 50.0499 7.69992 49.2917 8.38054L49.0099 7.06206H44.2434V31.8572L49.6599 30.7303L49.6817 24.7122C50.4617 25.2651 51.61 26.0519 53.5167 26.0519C57.3951 26.0519 60.9267 22.9897 60.9267 16.2487C60.905 10.0816 57.33 6.72175 53.5383 6.72175ZM52.2384 21.3735C50.9601 21.3735 50.2015 20.927 49.6817 20.3741L49.6599 12.4846C50.2233 11.868 51.0033 11.4427 52.2384 11.4427C54.21 11.4427 55.575 13.6117 55.575 16.3974C55.575 19.247 54.2316 21.3735 52.2384 21.3735ZM78 16.4613C78 11.0174 75.3133 6.72175 70.1784 6.72175C65.0215 6.72175 61.9015 11.0175 61.9015 16.4188C61.9015 22.8195 65.5851 26.0519 70.8715 26.0519C73.45 26.0519 75.3999 25.4777 76.8733 24.6697V20.4166C75.4001 21.1397 73.71 21.5863 71.565 21.5863C69.4633 21.5863 67.6 20.8632 67.3617 18.3539H77.9567C77.9567 18.0773 78 16.9716 78 16.4613ZM67.2966 14.4411C67.2966 12.0381 68.7917 11.0386 70.1567 11.0386C71.4783 11.0386 72.8867 12.0381 72.8867 14.4411H67.2966Z" fill="#6772E5"/>
</svg>
