<svg width="199" height="39" viewBox="0 0 199 39" fill="none" xmlns="http://www.w3.org/2000/svg">
<path fill-rule="evenodd" clip-rule="evenodd" d="M116.51 19.0248C117.787 17.8361 119.139 17.0387 120.974 17.0387L120.974 17.0391C125.065 17.0391 128.168 20.2224 128.168 24.6089C128.168 29.0619 125.028 32.2948 120.886 32.2948C119.022 32.2948 117.225 31.3212 116.32 29.8466H116.26V31.8879H112.424V9.48648H116.435V19.0248H116.51ZM180.47 17.4457H175.296L170.115 23.4385H170.026V9.48685H166.014V31.8879H170.026V24.765H170.115L175.49 31.8879H180.77L174.524 23.9952L180.47 17.4457ZM130.015 24.6093C130.015 20.2229 133.328 17.0396 137.894 17.0395C142.459 17.0395 145.772 20.2228 145.772 24.6093C145.772 29.1175 142.385 32.334 137.894 32.334C133.402 32.334 130.015 29.1481 130.015 24.6093ZM50.31 19.2798H50.399V17.446H54.2649V39H50.2526V30.1523H50.1932C49.169 31.3044 47.4026 32.2952 45.5221 32.2952C41.3801 32.2952 38.4713 29.063 38.4713 24.6093C38.4713 20.2228 41.6235 17.0399 45.7144 17.0399C48.2079 17.0399 49.7429 18.6563 50.31 19.2798ZM89.0477 28.8879C86.6053 28.8879 85.3737 26.7189 85.3737 24.6208C85.3737 22.5235 86.7101 20.4464 88.9305 20.4464C89.9709 20.4464 91.2854 20.9653 91.8018 21.6944L94.3877 19.1334C93.1363 17.8223 91.1408 17.0399 88.9305 17.0399C84.4337 17.0399 81.1695 20.2478 81.1695 24.6675C81.1695 29.1585 84.3972 32.2956 89.0191 32.2956C91.2178 32.2956 93.2501 31.6557 94.455 30.3681L91.9397 27.6851C91.3587 28.3884 90.1406 28.8883 89.0477 28.8883V28.8879ZM196.478 28.6086C195.556 28.6086 194.809 29.3441 194.809 30.2613C194.809 31.1786 195.556 31.8995 196.478 31.8995C197.401 31.8995 198.149 31.179 198.149 30.2613C198.149 29.3437 197.401 28.6086 196.478 28.6086ZM196.486 29.3221C196.838 29.3221 197.182 29.468 197.182 29.8686L197.182 29.8675C197.182 30.1366 197.013 30.3114 196.75 30.3696L197.255 31.1857H196.845L196.406 30.4066H196.164V31.186H195.827V29.3221H196.486ZM196.164 29.6062V30.1374L196.165 30.137H196.435C196.626 30.137 196.845 30.0862 196.845 29.8608C196.845 29.6569 196.648 29.6062 196.471 29.6062H196.164ZM195.072 30.2613C195.072 31.0255 195.702 31.6587 196.478 31.6587V31.659C197.255 31.659 197.885 31.0255 197.885 30.2613C197.885 29.4897 197.255 28.8636 196.478 28.8636C195.702 28.8636 195.072 29.4897 195.072 30.2613ZM78.5978 31.8883H74.5855V17.446H78.5978V31.8883ZM67.2898 25.3641C67.2898 27.0612 66.1769 28.8883 64.1026 28.8883C62.5033 28.8883 61.65 27.7545 61.65 25.4224V17.446H57.6365V26.4094C57.6365 29.3922 59.134 32.2952 63.1377 32.2952C65.0258 32.2952 66.6073 30.8176 67.4043 29.7267H67.4644V31.8883H71.301V17.446H67.2886V25.3641H67.2898ZM46.5035 28.8879C44.0224 28.8879 42.6124 26.7353 42.6124 24.6096C42.6124 22.5762 43.9071 20.3882 46.5035 20.3882C48.8914 20.3882 50.3694 22.6094 50.3694 24.6671C50.3694 26.7417 48.9234 28.8879 46.5039 28.8879H46.5035ZM137.894 28.8879C135.278 28.8879 134.086 26.6704 134.086 24.6096C134.086 22.5762 135.278 20.3882 137.894 20.3882C140.511 20.3882 141.702 22.5758 141.702 24.6093C141.702 26.67 140.511 28.8875 137.893 28.8875L137.894 28.8879ZM185.263 21.4144C185.263 22.245 185.99 22.509 188.055 22.9992L188.055 22.9995C190.082 23.4822 192.931 24.4689 192.931 27.4032C192.931 30.47 190.603 32.3284 186.681 32.3284C184.345 32.3284 182.068 31.4462 180.737 29.9791L183.173 27.5245C183.994 28.4929 185.515 29.2396 186.827 29.2396C187.352 29.2396 188.878 29.0212 188.878 27.6847C188.878 26.7775 188.071 26.3949 185.806 25.8703C183.657 25.3589 181.461 24.5189 181.461 21.734C181.461 18.4909 184.51 17.0399 187.414 17.0399C189.686 17.0399 191.837 17.835 192.931 19.2014L190.565 21.4577C190.036 20.7559 188.63 20.0167 187.385 20.0167C186.724 20.0167 185.263 20.2683 185.263 21.4144ZM120.185 28.8879C117.765 28.8879 116.318 26.7413 116.318 24.6668C116.318 22.609 117.797 20.3878 120.185 20.3878C122.781 20.3878 124.072 22.5754 124.072 24.6089C124.072 26.735 122.666 28.8871 120.185 28.8871V28.8879ZM105.739 17.4457H110.914L104.968 23.9952L111.214 31.8879H105.934L100.559 24.765H100.47V31.8879H96.458V9.48685H100.47V23.4385H100.559L105.739 17.4457ZM155.524 17.0387C150.959 17.0387 147.645 20.2224 147.645 24.6089C147.645 29.1477 151.032 32.3336 155.524 32.3336C160.015 32.3336 163.402 29.1171 163.402 24.6089C163.402 20.2224 160.089 17.0391 155.524 17.0391L155.524 17.0387ZM151.716 24.6089C151.716 26.6696 152.908 28.8879 155.524 28.8879L155.524 28.8871C158.14 28.8871 159.332 26.6696 159.332 24.6089C159.332 22.5754 158.14 20.3878 155.524 20.3878C152.908 20.3878 151.716 22.5758 151.716 24.6089Z" fill="black"/>
<ellipse cx="16.6487" cy="17.3919" rx="16.5" ry="17.3919" fill="#2CA01C"/>
<path fill-rule="evenodd" clip-rule="evenodd" d="M21.3583 9.77255H22.2998C25.9394 9.77255 28.8906 12.7122 28.8906 16.3384C28.8906 19.9646 25.9394 22.9042 22.2998 22.9042H17.5883V5.27026C18.9404 5.27026 20.0363 6.36207 20.0363 7.709V20.4655H22.2998C24.5836 20.4655 26.4426 18.6139 26.4426 16.3384C26.4426 14.0629 24.5836 12.2113 22.2998 12.2113H21.3583V9.77255ZM10.9975 22.9031C7.35753 22.9031 4.40674 19.9635 4.40674 16.3373C4.40674 12.7114 7.35753 9.77143 10.9975 9.77143H15.7079V27.4054C14.3558 27.4054 13.2599 26.3136 13.2599 24.9667V12.2102H10.9975C8.71298 12.2102 6.85475 14.0617 6.85475 16.3373C6.85475 18.6132 8.71298 20.4644 10.9975 20.4644H11.9391V22.9031H10.9975Z" fill="white"/>
<path fill-rule="evenodd" clip-rule="evenodd" d="M56.0283 3.30612C56.0283 3.96716 55.534 4.50373 54.9243 4.50373C54.3145 4.50373 53.8198 3.96676 53.8198 3.30612C53.8198 2.64468 54.3145 2.10811 54.9243 2.10811C55.5344 2.10811 56.0283 2.64468 56.0283 3.30612ZM46.0667 6.81394C46.386 6.02118 47.2543 5.31059 48.3349 5.31059L48.3345 5.31099C50.2388 5.31099 51.0306 6.89652 51.0306 8.51589V13.4715H49.2035V9.07743C49.2035 8.13562 49.0056 6.96339 47.8321 6.96339C46.6757 6.96339 46.1276 8.05344 46.1276 9.11047V13.4715H44.3005V5.54222H46.0358V6.81394H46.0667ZM40.6003 13.4711H42.4274V5.54181H40.6003V13.4711ZM74.9348 3.30612C74.9348 3.96716 74.4405 4.50413 73.8304 4.50413L73.8311 4.50373C73.221 4.50373 72.7271 3.96676 72.7271 3.30612C72.7271 2.64468 73.2217 2.10811 73.8308 2.10811C74.4409 2.10811 74.9348 2.64468 74.9348 3.30612ZM70.8681 5.53779V7.29371H72.9172V13.4707H74.7451V7.29411H76.7938V5.53779H70.8681ZM69.5877 13.4707H67.7606V5.54181H69.5877V13.4707ZM51.9616 7.29411H54.0103V13.4711H55.8374V7.29411H57.8862V5.53779H51.9612V7.29411H51.9616ZM62.357 12.0503C63.5137 12.0503 64.0622 10.9603 64.0622 9.90323H64.063V5.54181H65.89V13.4715H64.154V12.1993H64.1231C63.8038 12.9925 62.9355 13.7027 61.8549 13.7027C59.9506 13.7027 59.1588 12.1172 59.1588 10.4978V5.54222H60.9867V9.93546C60.9867 10.8781 61.1842 12.0503 62.357 12.0503Z" fill="black"/>
</svg>
