<svg xmlns="http://www.w3.org/2000/svg" viewBox="0 0 220 220"><defs><style>.cls-4{fill:#86d0cb;}.cls-5{fill:#414141;}</style></defs><g id="Layer_2" data-name="Layer 2"><g id="Layer_1-2" data-name="Layer 1"><rect class="cls-4" width="220" height="220"></rect><path class="cls-5" d="M42.46,143.68a2.66,2.66,0,0,0,1.11-.16l.56,4h0c-1.16-2.24-2.33-3.3-5-3.3h-.8v7.32h.35c1.91,0,2.5-.42,3.32-2.61h0v5.34h0c-.82-2.16-1.41-2.26-3.32-2.26h-.35v7.66h.94c2.64,0,4-1.09,5.18-3.72h.05L44,160.16H35v0c1.15-.47,1.37-1.18,1.37-2.73V146.46c0-1.55-.22-2.26-1.37-2.73v0Z"></path><path class="cls-5" d="M60.52,160.16H56.89v0c1-.5,1.49-1.51,2-3.16L63,143.45h.07l4.29,14.08c.49,1.6.71,2.07,1.67,2.59v0h-4.4v0c.7-.29,1-.66,1-1.25a5.42,5.42,0,0,0-.29-1.41l-.87-2.88H60.26l-.71,2.31a4.42,4.42,0,0,0-.21,1.27,2,2,0,0,0,1.18,2Zm-.1-6.16h3.87l-1.94-6.34Z"></path><path class="cls-5" d="M83.52,146.93c0,1.86,1.36,2.88,2.87,3.86,1.81,1.23,3.84,2.4,3.84,5.11a4.29,4.29,0,0,1-4.34,4.5c-1.5,0-2.28-.71-3-.71-.47,0-.72.24-1.05.71l-.29-5.7h0c1,3.23,2.66,5.16,4.26,5.16s2.59-1.13,2.59-3c0-2.19-1.6-3.27-3.22-4.35s-3.49-2.29-3.49-4.71A4.17,4.17,0,0,1,86,143.45c1.34,0,1.9.59,2.54.59a1,1,0,0,0,.92-.59l.25,5.2h0C88.91,146.34,88.18,144,86,144A2.66,2.66,0,0,0,83.52,146.93Z"></path><path class="cls-5" d="M113.27,143.68a2.66,2.66,0,0,0,1.11-.16l.31,4.87h0c-1.18-3-1.81-4.26-4.47-4.26h-.29v13.44c0,1.56.33,2.1,1.49,2.55v0h-4.9v0c1.13-.45,1.46-1,1.46-2.55V144.13h-.26c-2.68,0-3.32,1.25-4.5,4.26h0l.33-4.87a2.49,2.49,0,0,0,1.08.16Z"></path><path class="cls-5" d="M134.86,143.68a2.66,2.66,0,0,0,1.11-.16l.56,4h-.05c-1.15-2.24-2.33-3.3-5-3.3h-.8v7.32h.35c1.91,0,2.49-.42,3.32-2.61h.05v5.34h-.05c-.83-2.16-1.41-2.26-3.32-2.26h-.35v7.66h.94c2.63,0,4-1.09,5.18-3.72h0l-.51,4.23h-9v0c1.15-.47,1.36-1.18,1.36-2.73V146.46c0-1.55-.21-2.26-1.36-2.73v0Z"></path><path class="cls-5" d="M154.28,143.68c3.08,0,5.74,1.13,5.74,4.34,0,2.87-2.59,4.09-5,4.19,2.19.18,3.46,1.29,3.84,3l.4,2a3.21,3.21,0,0,0,2.35,2.9v0H158.3a6,6,0,0,1-1-2.54l-.38-2.05c-.33-1.81-1-3.15-3.08-3.15h-.61v5c0,1.55.23,2.26,1.36,2.73v0h-4.68v0c1.15-.47,1.36-1.18,1.36-2.73V146.46c0-1.55-.21-2.26-1.36-2.73v0Zm-1.08,8.17h.7c2.26,0,3.93-.92,3.93-3.86,0-2.56-1.46-3.74-3.93-3.74h-.7Z"></path><path class="cls-5" d="M183.19,146.82v13.56h-.1l-7.7-15.17V157.1c0,1.75.66,2.57,1.79,3v0H173v0c1.15-.47,1.79-1.27,1.79-3.09V146.46c0-1.55-.22-2.26-1.37-2.73v0h3.51l5.67,11.26v-8.2c0-1.74-.66-2.56-1.79-3v0H185v0C183.85,144.2,183.19,145,183.19,146.82Z"></path><path class="cls-5" d="M43,184.38V177h1.56a5.86,5.86,0,0,1,1.76.22,3.38,3.38,0,0,1,1.26.74,3.53,3.53,0,0,1,1.14,2.74,3.48,3.48,0,0,1-1.19,2.76,3.44,3.44,0,0,1-1.25.73,5.62,5.62,0,0,1-1.74.21Zm1.12-1h.5a4,4,0,0,0,1.25-.16,2.41,2.41,0,0,0,.9-.53,2.75,2.75,0,0,0,0-3.93,3.06,3.06,0,0,0-2.16-.68h-.5Z"></path><path class="cls-5" d="M59.39,181.23l2.29,3.15H60.31l-2.11-3H58v3H56.88V177h1.31a3.33,3.33,0,0,1,2.12.55,2,2,0,0,1,.72,1.62,2.07,2.07,0,0,1-.45,1.35A2,2,0,0,1,59.39,181.23ZM58,180.38h.35c1.06,0,1.59-.4,1.59-1.21S59.43,178,58.4,178H58Z"></path><path class="cls-5" d="M70.73,181.18,68.31,177H69.6l1.69,3L73,177h1.29l-2.43,4.2v3.2H70.73Z"></path><path class="cls-5" d="M87,177.38v1.32a3.1,3.1,0,0,0-2-.81,2.57,2.57,0,0,0-1.92.82,2.76,2.76,0,0,0-.79,2,2.67,2.67,0,0,0,.79,2,2.59,2.59,0,0,0,1.92.8,2.48,2.48,0,0,0,1-.19,3.87,3.87,0,0,0,.48-.26c.16-.11.34-.24.52-.39V184a4,4,0,0,1-2,.54,3.74,3.74,0,0,1-2.71-1.1,3.7,3.7,0,0,1-1.12-2.7,3.78,3.78,0,0,1,.94-2.51,3.7,3.7,0,0,1,3-1.36A3.78,3.78,0,0,1,87,177.38Z"></path><path class="cls-5" d="M96.25,177v6.35h2.17v1H95.13V177Z"></path><path class="cls-5" d="M110.33,178h-3v1.78h2.87v1.05h-2.87v2.47h3v1h-4.08V177h4.08Z"></path><path class="cls-5" d="M122.91,182.58h-3.17l-.82,1.8h-1.2l3.66-7.86,3.52,7.86h-1.22Zm-.46-1.05L121.36,179l-1.15,2.51Z"></path><path class="cls-5" d="M132.6,184.38v-7.9l5.39,5.64V177h1.12v7.85l-5.4-5.63v5.18Z"></path><path class="cls-5" d="M151.73,178h-3v1.78h2.88v1.05h-2.88v2.47h3v1h-4.08V177h4.08Z"></path><path class="cls-5" d="M162.46,181.23l2.29,3.15h-1.36l-2.11-3h-.2v3H160V177h1.31a3.29,3.29,0,0,1,2.11.55,2,2,0,0,1,.72,1.62,2.07,2.07,0,0,1-.45,1.35A2,2,0,0,1,162.46,181.23Zm-1.38-.85h.35c1.06,0,1.59-.4,1.59-1.21s-.52-1.14-1.55-1.14h-.39Z"></path><path class="cls-5" d="M176.81,178.09l-.9.53a1.52,1.52,0,0,0-.49-.57,1,1,0,0,0-.61-.16,1.11,1.11,0,0,0-.77.27.8.8,0,0,0-.31.65c0,.36.27.65.8.87l.74.3a3.15,3.15,0,0,1,1.32.89,2,2,0,0,1,.42,1.29,2.25,2.25,0,0,1-.68,1.68,2.35,2.35,0,0,1-1.71.67,2.28,2.28,0,0,1-1.59-.57,2.66,2.66,0,0,1-.77-1.6l1.13-.25a2,2,0,0,0,.27.9,1.17,1.17,0,0,0,1,.48,1.15,1.15,0,0,0,.86-.35,1.21,1.21,0,0,0,.35-.89,1.23,1.23,0,0,0-.06-.39.92.92,0,0,0-.19-.33,1.52,1.52,0,0,0-.32-.29,5.27,5.27,0,0,0-.48-.25l-.72-.29a2.07,2.07,0,0,1-1.52-1.88,1.78,1.78,0,0,1,.64-1.39,2.3,2.3,0,0,1,1.59-.57A2.19,2.19,0,0,1,176.81,178.09Z"></path><path class="cls-5" d="M87,126.58H84.76v1.34h2.16v.78H84.76v1.86H87v.78H83.93V125.8H87Z"></path><path class="cls-5" d="M93.65,126.62,93,127a1.27,1.27,0,0,0-.36-.43.93.93,0,0,0-.47-.11.8.8,0,0,0-.57.2.59.59,0,0,0-.23.48c0,.28.2.49.6.66l.55.22a2.49,2.49,0,0,1,1,.67,1.48,1.48,0,0,1,.31,1,1.68,1.68,0,0,1-.51,1.26,1.75,1.75,0,0,1-1.27.5,1.71,1.71,0,0,1-1.19-.42,2,2,0,0,1-.58-1.21l.84-.19a1.39,1.39,0,0,0,.21.68.86.86,0,0,0,.75.36.89.89,0,0,0,.65-.26.94.94,0,0,0,.26-.67.88.88,0,0,0,0-.29.62.62,0,0,0-.14-.25.83.83,0,0,0-.24-.21,2,2,0,0,0-.36-.19l-.54-.22c-.76-.33-1.13-.79-1.13-1.41a1.33,1.33,0,0,1,.47-1,1.75,1.75,0,0,1,1.19-.42A1.66,1.66,0,0,1,93.65,126.62Z"></path><path class="cls-5" d="M98.86,126.58v4.76H98v-4.76H96.75v-.78h3.39v.78Z"></path><path class="cls-5" d="M103.06,130.94a.47.47,0,0,1,.14-.35.49.49,0,0,1,.35-.15.49.49,0,0,1,.36.15.52.52,0,0,1,.14.35.48.48,0,0,1-.5.5.48.48,0,0,1-.49-.5Z"></path><path class="cls-5" d="M113.81,126.58h-1l.46-.78h1.34v5.54h-.84Z"></path><path class="cls-5" d="M119.84,131.53l-.61-.45,1.32-1.81-.18,0h-.12a1.55,1.55,0,0,1-1.17-.52,1.73,1.73,0,0,1-.49-1.22,1.76,1.76,0,0,1,.55-1.31,1.74,1.74,0,0,1,1.3-.55,1.83,1.83,0,0,1,1.32.54,1.72,1.72,0,0,1,.56,1.27,2.38,2.38,0,0,1-.55,1.39Zm-.43-4a1,1,0,0,0,.3.75,1,1,0,0,0,.75.31,1,1,0,0,0,.74-.31,1,1,0,0,0,0-1.48,1,1,0,0,0-.75-.31,1,1,0,0,0-.73.31A1,1,0,0,0,119.41,127.5Z"></path><path class="cls-5" d="M129,126.58h-1.71l-.27.92h.22a1.74,1.74,0,0,1,1.32.55,2.07,2.07,0,0,1-.06,2.83,2.07,2.07,0,0,1-1.49.57,2,2,0,0,1-1.74-1l.64-.54a1.83,1.83,0,0,0,.53.63,1.1,1.1,0,0,0,.64.18,1.15,1.15,0,0,0,.85-.35,1.23,1.23,0,0,0,.34-.88,1.15,1.15,0,0,0-.34-.87,1.12,1.12,0,0,0-.84-.35,1.21,1.21,0,0,0-1,.49h-.28l.87-2.91H129Z"></path><path class="cls-5" d="M136,126.58h-1.71l-.27.92h.22a1.74,1.74,0,0,1,1.32.55,1.92,1.92,0,0,1,.52,1.39,1.88,1.88,0,0,1-.59,1.44,2,2,0,0,1-1.48.57,2,2,0,0,1-1.74-1l.63-.54a2.07,2.07,0,0,0,.53.63,1.23,1.23,0,0,0,1.5-.17,1.27,1.27,0,0,0,.34-.88,1.15,1.15,0,0,0-.34-.87,1.13,1.13,0,0,0-.84-.35,1.24,1.24,0,0,0-1,.49h-.27l.87-2.91H136Z"></path></g></g></svg>