<svg width="17" height="15" viewBox="0 0 17 15" fill="none" xmlns="http://www.w3.org/2000/svg">
<path d="M7.77487 0.427256C8.06141 -0.142419 8.93859 -0.142419 9.22513 0.427256L11.1441 4.24224C11.2605 4.47384 11.4984 4.63341 11.773 4.66413L16.2957 5.17022C16.9711 5.2458 17.2421 6.01604 16.7439 6.44369L13.4071 9.30757C13.2045 9.48144 13.1137 9.73962 13.1669 9.99021L14.0432 14.118C14.174 14.7344 13.4644 15.2104 12.8699 14.905L8.88871 12.86C8.64701 12.7359 8.35299 12.7359 8.11129 12.86L4.13014 14.905C3.53565 15.2104 2.826 14.7344 2.95685 14.118L3.83313 9.99021C3.88633 9.73962 3.79547 9.48144 3.5929 9.30758L0.256125 6.44369C-0.242141 6.01604 0.0289222 5.2458 0.704282 5.17022L5.22701 4.66413C5.50158 4.63341 5.73945 4.47384 5.85595 4.24224L7.77487 0.427256Z" fill="#FFC758"/>
</svg>
