<svg width="18" height="19" viewBox="0 0 18 19" fill="none" xmlns="http://www.w3.org/2000/svg">
<path d="M9 18.3792C13.9706 18.3792 18 14.3497 18 9.37915C18 4.40859 13.9706 0.37915 9 0.37915C4.02944 0.37915 0 4.40859 0 9.37915C0 14.3497 4.02944 18.3792 9 18.3792Z" fill="white"/>
<path d="M10.5625 0.51709V7.10779L16.0125 3.74035C14.6733 2.07679 12.7544 0.90085 10.5625 0.51709Z" fill="#010066"/>
<path d="M8.10156 18.3343C8.39712 18.3637 8.69682 18.3792 9.0003 18.3792C9.30378 18.3792 9.60366 18.3637 9.89904 18.3343V0.42397C9.60366 0.39463 9.30378 0.37915 9.0003 0.37915C8.69682 0.37915 8.39712 0.39463 8.10156 0.42397V18.3343Z" fill="#CC0001"/>
<path d="M7.43832 7.10779V0.51709C5.24646 0.90085 3.32766 2.07679 1.98828 3.74035L7.43832 7.10779Z" fill="#010066"/>
<path d="M7.43832 18.2408V11.6506L1.98828 15.0177C3.32766 16.6813 5.24646 17.8574 7.43832 18.2408Z" fill="#010066"/>
<path d="M0.998047 5.26037L4.56889 7.46573H5.90449L1.34347 4.64819C1.22035 4.84691 1.10569 5.05157 0.998047 5.26037Z" fill="#CC0001"/>
<path d="M1.73705 14.693L7.24019 11.2926H5.90441L1.34375 14.1105C1.46741 14.3103 1.59881 14.5047 1.73705 14.693Z" fill="#CC0001"/>
<path d="M16.2629 4.06494L10.7598 7.4655H12.095L16.6564 4.64778C16.5329 4.44798 16.4013 4.25358 16.2629 4.06494Z" fill="#CC0001"/>
<path d="M17.0009 13.4986L13.4297 11.2928H12.0938L16.6553 14.1106C16.7786 13.9117 16.8934 13.7072 17.0009 13.4986Z" fill="#CC0001"/>
<path d="M17.1817 5.62866L14.207 7.46557H17.7952C17.6562 6.82512 17.4492 6.21042 17.1817 5.62866Z" fill="#010066"/>
<path d="M17.1815 13.1297C17.4487 12.5483 17.656 11.9335 17.7946 11.2928H14.207L17.1815 13.1297Z" fill="#010066"/>
<path d="M0.205078 7.46557H3.7932L0.818338 5.62866C0.551038 6.21042 0.343858 6.82512 0.205078 7.46557Z" fill="#010066"/>
<path d="M0.205078 11.2928C0.343858 11.9335 0.551218 12.5483 0.818518 13.1299L3.79302 11.2928H0.205078Z" fill="#010066"/>
<path d="M0 9.37925C0 9.75653 0.02592 10.1273 0.0711 10.4927H17.9291C17.9741 10.1273 18.0002 9.75653 18.0002 9.37925C18.0002 9.00233 17.9741 8.63171 17.9291 8.26685H0.07092C0.02592 8.63171 0 9.00233 0 9.37925Z" fill="#CC0001"/>
<path d="M10.5625 18.2408C12.7544 17.857 14.6733 16.6809 16.0125 15.0174L10.5625 11.6506V18.2408Z" fill="#010066"/>
</svg>
