<svg width="18" height="19" viewBox="0 0 18 19" fill="none" xmlns="http://www.w3.org/2000/svg">
<path d="M16.4829 4.37915H1.51591C1.10317 4.99601 0.765312 5.66723 0.513672 6.37913H17.4857C17.2337 5.66723 16.896 4.99601 16.4829 4.37915Z" fill="#CC0001"/>
<path d="M17.4862 6.37915H0.514201C0.289201 7.01599 0.133321 7.68559 0.0566406 8.37913H17.9436C17.8669 7.68559 17.7112 7.01617 17.4862 6.37915Z" fill="white"/>
<path d="M9.0004 0.37915C6.85786 0.37915 4.89118 1.12921 3.3457 2.37913H14.6551C13.1096 1.12921 11.1429 0.37915 9.0004 0.37915Z" fill="#CC0001"/>
<path d="M14.654 2.37915H3.3446C2.63954 2.94957 2.02178 3.62349 1.51562 4.37877H16.4826C15.9768 3.62349 15.3591 2.94957 14.654 2.37915Z" fill="white"/>
<path d="M18 9.37923C18 9.04101 17.9797 8.70783 17.9435 8.37915H0.05652C0.02034 8.70783 0 9.04101 0 9.37923C0 9.71745 0.02034 10.0506 0.05652 10.3793H17.9435C17.9797 10.0506 18 9.71745 18 9.37923Z" fill="#CC0001"/>
<path d="M17.9436 10.3792H0.0566406C0.133321 11.0729 0.289201 11.7421 0.514201 12.3791H17.4862C17.7112 11.7421 17.8669 11.0725 17.9436 10.3792Z" fill="white"/>
<path d="M17.4857 12.3792H0.513672C0.765312 13.0911 1.10317 13.7625 1.51591 14.379H16.4829C16.896 13.7625 17.2337 13.0911 17.4857 12.3792Z" fill="#CC0001"/>
<path d="M16.4826 14.3792H1.51562C2.02196 15.1346 2.63954 15.8085 3.3446 16.3788H14.654C15.3591 15.8091 15.9768 15.1352 16.4826 14.3792Z" fill="white"/>
<path d="M3.3457 16.3792C4.89118 17.6291 6.85786 18.3791 9.0004 18.3791C11.1429 18.3791 13.1096 17.6291 14.6551 16.3792H3.3457Z" fill="#CC0001"/>
<path d="M10.0001 0.43567C9.6714 0.39949 9.33822 0.37915 9 0.37915C4.02948 0.37915 0 4.40863 0 9.37915C0 9.71719 0.02034 10.0506 0.05652 10.3792H9.9999L10.0001 0.43567Z" fill="#030389"/>
<path d="M8.92099 8.93484L8.71111 8.28918L8.50123 8.93484H7.82227L8.37145 9.33354L8.16157 9.97921L8.71111 9.58015L9.26011 9.97921L9.05059 9.33354L9.59995 8.93484H8.92099Z" fill="white"/>
<path d="M7.14418 7.64419L6.93376 6.99817L6.72442 7.64419H6.04492L6.5941 8.04271L6.38458 8.68909L6.93376 8.28967L7.48312 8.68909L7.27324 8.04271L7.8226 7.64419H7.14418Z" fill="white"/>
<path d="M4.9469 8.93484L5.15696 8.28918L5.36648 8.93484H6.04508L5.4959 9.33354L5.70578 9.97921L5.15696 9.58015L4.60724 9.97921L4.81694 9.33354L4.26758 8.93484H4.9469Z" fill="white"/>
<path d="M3.16973 7.64419L3.37961 6.99817L3.58949 7.64419H4.26809L3.71927 8.04271L3.92915 8.68909L3.37961 8.28967L2.83043 8.68909L3.04031 8.04271L2.49023 7.64419H3.16973Z" fill="white"/>
<path d="M7.14418 5.06204L6.93376 4.41638L6.72442 5.06204H6.04492L6.5941 5.46056L6.38458 6.10694L6.93376 5.7077L7.48312 6.10694L7.27324 5.46056L7.8226 5.06204H7.14418Z" fill="white"/>
<path d="M3.16973 5.06197L3.37961 4.41577L3.58949 5.06197H4.26809L3.71927 5.46067L3.92915 6.10687L3.37961 5.70763L2.83043 6.10687L3.04031 5.46067L2.49023 5.06197H3.16973Z" fill="white"/>
<path d="M7.14418 2.48031L6.93376 1.83447L6.72442 2.48049L6.04492 2.48031L6.5941 2.87937L6.38458 3.52539L6.93376 3.12579L7.48312 3.52539L7.27324 2.87937L7.8226 2.48049L7.14418 2.48031Z" fill="white"/>
<path d="M1.81338 8.93484L1.6035 8.28918L1.3938 8.93484H0.714844L1.26402 9.33354L1.05468 9.97921L1.6035 9.58015L2.15322 9.97921L1.94334 9.33354L2.4927 8.93484H1.81338Z" fill="white"/>
<path d="M8.92099 6.35318L8.71111 5.70752L8.50123 6.35318H7.82227L8.37145 6.75188L8.16193 7.39826L8.71111 6.99866L9.26011 7.39826L9.05077 6.75188L9.59995 6.35318H8.92099Z" fill="white"/>
<path d="M4.9469 6.35318L5.15696 5.70752L5.36648 6.35318H6.04508L5.4959 6.75188L5.70578 7.39808L5.15696 6.99866L4.60724 7.39808L4.81694 6.75188L4.26758 6.35318H4.9469Z" fill="white"/>
<path d="M1.81338 6.35318L1.6035 5.70752L1.3938 6.35318H0.714844L1.26402 6.75188L1.05468 7.39826L1.6035 6.99866L2.15322 7.39826L1.94334 6.75188L2.4927 6.35318H1.81338Z" fill="white"/>
<path d="M8.92099 3.77127L8.71111 3.12561L8.50123 3.77127H7.82227L8.37145 4.17015L8.16193 4.81635L8.71111 4.41747L9.26011 4.81635L9.05077 4.17015L9.59995 3.77127H8.92099Z" fill="white"/>
<path d="M4.9469 3.77121L5.15696 3.12573L5.36648 3.77121H6.04508L5.4959 4.17009L5.70578 4.81611L5.15696 4.41741L4.60724 4.81611L4.81694 4.17009L4.26758 3.77121H4.9469Z" fill="white"/>
<path d="M8.92099 1.1893L8.71111 0.543823L8.50123 1.18948L7.82227 1.1893L8.37145 1.58854L8.16193 2.2342L8.71111 1.83532L9.26011 2.2342L9.05077 1.58854L9.59995 1.18948L8.92099 1.1893Z" fill="white"/>
<path d="M2.83203 3.54499L3.38121 3.14593L3.93057 3.54499L3.72069 2.89897L4.26951 2.49991H3.59073L3.50955 2.25061C3.29211 2.41855 3.08205 2.59567 2.88081 2.78251L3.04137 2.89897L2.83203 3.54499Z" fill="white"/>
<path d="M2.15339 4.67923L1.94351 4.03304L2.49269 3.63416H2.07293C1.89383 3.84998 1.72481 4.07462 1.56641 4.30682L1.60367 4.27964L2.15339 4.67923Z" fill="white"/>
<path d="M4.60742 2.25456L5.15768 1.85514L5.7065 2.25456L5.49662 1.60818L6.0458 1.20912L5.3672 1.20948L5.34866 1.15332C5.11394 1.25772 4.88372 1.37058 4.65998 1.49388L4.8173 1.608L4.60742 2.25456Z" fill="white"/>
</svg>
